G04 #@! TF.GenerationSoftware,KiCad,Pcbnew,(6.0.11-0)*
G04 #@! TF.CreationDate,2023-03-27T16:27:17-06:00*
G04 #@! TF.ProjectId,ESP_PCB,4553505f-5043-4422-9e6b-696361645f70,rev?*
G04 #@! TF.SameCoordinates,Original*
G04 #@! TF.FileFunction,Legend,Bot*
G04 #@! TF.FilePolarity,Positive*
%FSLAX46Y46*%
G04 Gerber Fmt 4.6, Leading zero omitted, Abs format (unit mm)*
G04 Created by KiCad (PCBNEW (6.0.11-0)) date 2023-03-27 16:27:17*
%MOMM*%
%LPD*%
G01*
G04 APERTURE LIST*
%ADD10C,0.150000*%
%ADD11C,0.254000*%
%ADD12C,3.230000*%
%ADD13R,1.700000X1.700000*%
%ADD14O,1.700000X1.700000*%
%ADD15C,2.500000*%
%ADD16C,1.400000*%
%ADD17O,1.400000X1.400000*%
%ADD18C,3.200000*%
%ADD19R,1.524000X1.524000*%
%ADD20C,1.524000*%
%ADD21C,3.000000*%
%ADD22O,1.308000X2.616000*%
G04 APERTURE END LIST*
D10*
X64714285Y-91892380D02*
X64714285Y-90892380D01*
X64476190Y-90892380D01*
X64333333Y-90940000D01*
X64238095Y-91035238D01*
X64190476Y-91130476D01*
X64142857Y-91320952D01*
X64142857Y-91463809D01*
X64190476Y-91654285D01*
X64238095Y-91749523D01*
X64333333Y-91844761D01*
X64476190Y-91892380D01*
X64714285Y-91892380D01*
X63761904Y-90987619D02*
X63714285Y-90940000D01*
X63619047Y-90892380D01*
X63380952Y-90892380D01*
X63285714Y-90940000D01*
X63238095Y-90987619D01*
X63190476Y-91082857D01*
X63190476Y-91178095D01*
X63238095Y-91320952D01*
X63809523Y-91892380D01*
X63190476Y-91892380D01*
X62333333Y-90892380D02*
X62523809Y-90892380D01*
X62619047Y-90940000D01*
X62666666Y-90987619D01*
X62761904Y-91130476D01*
X62809523Y-91320952D01*
X62809523Y-91701904D01*
X62761904Y-91797142D01*
X62714285Y-91844761D01*
X62619047Y-91892380D01*
X62428571Y-91892380D01*
X62333333Y-91844761D01*
X62285714Y-91797142D01*
X62238095Y-91701904D01*
X62238095Y-91463809D01*
X62285714Y-91368571D01*
X62333333Y-91320952D01*
X62428571Y-91273333D01*
X62619047Y-91273333D01*
X62714285Y-91320952D01*
X62761904Y-91368571D01*
X62809523Y-91463809D01*
X130754285Y-84272380D02*
X130754285Y-83272380D01*
X130516190Y-83272380D01*
X130373333Y-83320000D01*
X130278095Y-83415238D01*
X130230476Y-83510476D01*
X130182857Y-83700952D01*
X130182857Y-83843809D01*
X130230476Y-84034285D01*
X130278095Y-84129523D01*
X130373333Y-84224761D01*
X130516190Y-84272380D01*
X130754285Y-84272380D01*
X129230476Y-84272380D02*
X129801904Y-84272380D01*
X129516190Y-84272380D02*
X129516190Y-83272380D01*
X129611428Y-83415238D01*
X129706666Y-83510476D01*
X129801904Y-83558095D01*
X128659047Y-83700952D02*
X128754285Y-83653333D01*
X128801904Y-83605714D01*
X128849523Y-83510476D01*
X128849523Y-83462857D01*
X128801904Y-83367619D01*
X128754285Y-83320000D01*
X128659047Y-83272380D01*
X128468571Y-83272380D01*
X128373333Y-83320000D01*
X128325714Y-83367619D01*
X128278095Y-83462857D01*
X128278095Y-83510476D01*
X128325714Y-83605714D01*
X128373333Y-83653333D01*
X128468571Y-83700952D01*
X128659047Y-83700952D01*
X128754285Y-83748571D01*
X128801904Y-83796190D01*
X128849523Y-83891428D01*
X128849523Y-84081904D01*
X128801904Y-84177142D01*
X128754285Y-84224761D01*
X128659047Y-84272380D01*
X128468571Y-84272380D01*
X128373333Y-84224761D01*
X128325714Y-84177142D01*
X128278095Y-84081904D01*
X128278095Y-83891428D01*
X128325714Y-83796190D01*
X128373333Y-83748571D01*
X128468571Y-83700952D01*
X130754285Y-81732380D02*
X130754285Y-80732380D01*
X130516190Y-80732380D01*
X130373333Y-80780000D01*
X130278095Y-80875238D01*
X130230476Y-80970476D01*
X130182857Y-81160952D01*
X130182857Y-81303809D01*
X130230476Y-81494285D01*
X130278095Y-81589523D01*
X130373333Y-81684761D01*
X130516190Y-81732380D01*
X130754285Y-81732380D01*
X129230476Y-81732380D02*
X129801904Y-81732380D01*
X129516190Y-81732380D02*
X129516190Y-80732380D01*
X129611428Y-80875238D01*
X129706666Y-80970476D01*
X129801904Y-81018095D01*
X128754285Y-81732380D02*
X128563809Y-81732380D01*
X128468571Y-81684761D01*
X128420952Y-81637142D01*
X128325714Y-81494285D01*
X128278095Y-81303809D01*
X128278095Y-80922857D01*
X128325714Y-80827619D01*
X128373333Y-80780000D01*
X128468571Y-80732380D01*
X128659047Y-80732380D01*
X128754285Y-80780000D01*
X128801904Y-80827619D01*
X128849523Y-80922857D01*
X128849523Y-81160952D01*
X128801904Y-81256190D01*
X128754285Y-81303809D01*
X128659047Y-81351428D01*
X128468571Y-81351428D01*
X128373333Y-81303809D01*
X128325714Y-81256190D01*
X128278095Y-81160952D01*
X64238095Y-71048571D02*
X63904761Y-71048571D01*
X63761904Y-71572380D02*
X64238095Y-71572380D01*
X64238095Y-70572380D01*
X63761904Y-70572380D01*
X63333333Y-71572380D02*
X63333333Y-70572380D01*
X62761904Y-71572380D01*
X62761904Y-70572380D01*
X64714285Y-102052380D02*
X64714285Y-101052380D01*
X64476190Y-101052380D01*
X64333333Y-101100000D01*
X64238095Y-101195238D01*
X64190476Y-101290476D01*
X64142857Y-101480952D01*
X64142857Y-101623809D01*
X64190476Y-101814285D01*
X64238095Y-101909523D01*
X64333333Y-102004761D01*
X64476190Y-102052380D01*
X64714285Y-102052380D01*
X63190476Y-102052380D02*
X63761904Y-102052380D01*
X63476190Y-102052380D02*
X63476190Y-101052380D01*
X63571428Y-101195238D01*
X63666666Y-101290476D01*
X63761904Y-101338095D01*
X62857142Y-101052380D02*
X62238095Y-101052380D01*
X62571428Y-101433333D01*
X62428571Y-101433333D01*
X62333333Y-101480952D01*
X62285714Y-101528571D01*
X62238095Y-101623809D01*
X62238095Y-101861904D01*
X62285714Y-101957142D01*
X62333333Y-102004761D01*
X62428571Y-102052380D01*
X62714285Y-102052380D01*
X62809523Y-102004761D01*
X62857142Y-101957142D01*
X64261904Y-103640000D02*
X64357142Y-103592380D01*
X64500000Y-103592380D01*
X64642857Y-103640000D01*
X64738095Y-103735238D01*
X64785714Y-103830476D01*
X64833333Y-104020952D01*
X64833333Y-104163809D01*
X64785714Y-104354285D01*
X64738095Y-104449523D01*
X64642857Y-104544761D01*
X64500000Y-104592380D01*
X64404761Y-104592380D01*
X64261904Y-104544761D01*
X64214285Y-104497142D01*
X64214285Y-104163809D01*
X64404761Y-104163809D01*
X63785714Y-104592380D02*
X63785714Y-103592380D01*
X63214285Y-104592380D01*
X63214285Y-103592380D01*
X62738095Y-104592380D02*
X62738095Y-103592380D01*
X62500000Y-103592380D01*
X62357142Y-103640000D01*
X62261904Y-103735238D01*
X62214285Y-103830476D01*
X62166666Y-104020952D01*
X62166666Y-104163809D01*
X62214285Y-104354285D01*
X62261904Y-104449523D01*
X62357142Y-104544761D01*
X62500000Y-104592380D01*
X62738095Y-104592380D01*
X64714285Y-96972380D02*
X64714285Y-95972380D01*
X64476190Y-95972380D01*
X64333333Y-96020000D01*
X64238095Y-96115238D01*
X64190476Y-96210476D01*
X64142857Y-96400952D01*
X64142857Y-96543809D01*
X64190476Y-96734285D01*
X64238095Y-96829523D01*
X64333333Y-96924761D01*
X64476190Y-96972380D01*
X64714285Y-96972380D01*
X63190476Y-96972380D02*
X63761904Y-96972380D01*
X63476190Y-96972380D02*
X63476190Y-95972380D01*
X63571428Y-96115238D01*
X63666666Y-96210476D01*
X63761904Y-96258095D01*
X62333333Y-96305714D02*
X62333333Y-96972380D01*
X62571428Y-95924761D02*
X62809523Y-96639047D01*
X62190476Y-96639047D01*
X130754285Y-79192380D02*
X130754285Y-78192380D01*
X130516190Y-78192380D01*
X130373333Y-78240000D01*
X130278095Y-78335238D01*
X130230476Y-78430476D01*
X130182857Y-78620952D01*
X130182857Y-78763809D01*
X130230476Y-78954285D01*
X130278095Y-79049523D01*
X130373333Y-79144761D01*
X130516190Y-79192380D01*
X130754285Y-79192380D01*
X129801904Y-78287619D02*
X129754285Y-78240000D01*
X129659047Y-78192380D01*
X129420952Y-78192380D01*
X129325714Y-78240000D01*
X129278095Y-78287619D01*
X129230476Y-78382857D01*
X129230476Y-78478095D01*
X129278095Y-78620952D01*
X129849523Y-79192380D01*
X129230476Y-79192380D01*
X128278095Y-79192380D02*
X128849523Y-79192380D01*
X128563809Y-79192380D02*
X128563809Y-78192380D01*
X128659047Y-78335238D01*
X128754285Y-78430476D01*
X128849523Y-78478095D01*
X130278095Y-96972380D02*
X130278095Y-95972380D01*
X130040000Y-95972380D01*
X129897142Y-96020000D01*
X129801904Y-96115238D01*
X129754285Y-96210476D01*
X129706666Y-96400952D01*
X129706666Y-96543809D01*
X129754285Y-96734285D01*
X129801904Y-96829523D01*
X129897142Y-96924761D01*
X130040000Y-96972380D01*
X130278095Y-96972380D01*
X129325714Y-96067619D02*
X129278095Y-96020000D01*
X129182857Y-95972380D01*
X128944761Y-95972380D01*
X128849523Y-96020000D01*
X128801904Y-96067619D01*
X128754285Y-96162857D01*
X128754285Y-96258095D01*
X128801904Y-96400952D01*
X129373333Y-96972380D01*
X128754285Y-96972380D01*
X64714285Y-86812380D02*
X64714285Y-85812380D01*
X64476190Y-85812380D01*
X64333333Y-85860000D01*
X64238095Y-85955238D01*
X64190476Y-86050476D01*
X64142857Y-86240952D01*
X64142857Y-86383809D01*
X64190476Y-86574285D01*
X64238095Y-86669523D01*
X64333333Y-86764761D01*
X64476190Y-86812380D01*
X64714285Y-86812380D01*
X63809523Y-85812380D02*
X63190476Y-85812380D01*
X63523809Y-86193333D01*
X63380952Y-86193333D01*
X63285714Y-86240952D01*
X63238095Y-86288571D01*
X63190476Y-86383809D01*
X63190476Y-86621904D01*
X63238095Y-86717142D01*
X63285714Y-86764761D01*
X63380952Y-86812380D01*
X63666666Y-86812380D01*
X63761904Y-86764761D01*
X63809523Y-86717142D01*
X62857142Y-85812380D02*
X62238095Y-85812380D01*
X62571428Y-86193333D01*
X62428571Y-86193333D01*
X62333333Y-86240952D01*
X62285714Y-86288571D01*
X62238095Y-86383809D01*
X62238095Y-86621904D01*
X62285714Y-86717142D01*
X62333333Y-86764761D01*
X62428571Y-86812380D01*
X62714285Y-86812380D01*
X62809523Y-86764761D01*
X62857142Y-86717142D01*
X130278095Y-86812380D02*
X130278095Y-85812380D01*
X130040000Y-85812380D01*
X129897142Y-85860000D01*
X129801904Y-85955238D01*
X129754285Y-86050476D01*
X129706666Y-86240952D01*
X129706666Y-86383809D01*
X129754285Y-86574285D01*
X129801904Y-86669523D01*
X129897142Y-86764761D01*
X130040000Y-86812380D01*
X130278095Y-86812380D01*
X128801904Y-85812380D02*
X129278095Y-85812380D01*
X129325714Y-86288571D01*
X129278095Y-86240952D01*
X129182857Y-86193333D01*
X128944761Y-86193333D01*
X128849523Y-86240952D01*
X128801904Y-86288571D01*
X128754285Y-86383809D01*
X128754285Y-86621904D01*
X128801904Y-86717142D01*
X128849523Y-86764761D01*
X128944761Y-86812380D01*
X129182857Y-86812380D01*
X129278095Y-86764761D01*
X129325714Y-86717142D01*
X64714285Y-94432380D02*
X64714285Y-93432380D01*
X64476190Y-93432380D01*
X64333333Y-93480000D01*
X64238095Y-93575238D01*
X64190476Y-93670476D01*
X64142857Y-93860952D01*
X64142857Y-94003809D01*
X64190476Y-94194285D01*
X64238095Y-94289523D01*
X64333333Y-94384761D01*
X64476190Y-94432380D01*
X64714285Y-94432380D01*
X63761904Y-93527619D02*
X63714285Y-93480000D01*
X63619047Y-93432380D01*
X63380952Y-93432380D01*
X63285714Y-93480000D01*
X63238095Y-93527619D01*
X63190476Y-93622857D01*
X63190476Y-93718095D01*
X63238095Y-93860952D01*
X63809523Y-94432380D01*
X63190476Y-94432380D01*
X62857142Y-93432380D02*
X62190476Y-93432380D01*
X62619047Y-94432380D01*
X130754285Y-71572380D02*
X130754285Y-70572380D01*
X130516190Y-70572380D01*
X130373333Y-70620000D01*
X130278095Y-70715238D01*
X130230476Y-70810476D01*
X130182857Y-71000952D01*
X130182857Y-71143809D01*
X130230476Y-71334285D01*
X130278095Y-71429523D01*
X130373333Y-71524761D01*
X130516190Y-71572380D01*
X130754285Y-71572380D01*
X129801904Y-70667619D02*
X129754285Y-70620000D01*
X129659047Y-70572380D01*
X129420952Y-70572380D01*
X129325714Y-70620000D01*
X129278095Y-70667619D01*
X129230476Y-70762857D01*
X129230476Y-70858095D01*
X129278095Y-71000952D01*
X129849523Y-71572380D01*
X129230476Y-71572380D01*
X128849523Y-70667619D02*
X128801904Y-70620000D01*
X128706666Y-70572380D01*
X128468571Y-70572380D01*
X128373333Y-70620000D01*
X128325714Y-70667619D01*
X128278095Y-70762857D01*
X128278095Y-70858095D01*
X128325714Y-71000952D01*
X128897142Y-71572380D01*
X128278095Y-71572380D01*
X130754285Y-99512380D02*
X130754285Y-98512380D01*
X130516190Y-98512380D01*
X130373333Y-98560000D01*
X130278095Y-98655238D01*
X130230476Y-98750476D01*
X130182857Y-98940952D01*
X130182857Y-99083809D01*
X130230476Y-99274285D01*
X130278095Y-99369523D01*
X130373333Y-99464761D01*
X130516190Y-99512380D01*
X130754285Y-99512380D01*
X129230476Y-99512380D02*
X129801904Y-99512380D01*
X129516190Y-99512380D02*
X129516190Y-98512380D01*
X129611428Y-98655238D01*
X129706666Y-98750476D01*
X129801904Y-98798095D01*
X128325714Y-98512380D02*
X128801904Y-98512380D01*
X128849523Y-98988571D01*
X128801904Y-98940952D01*
X128706666Y-98893333D01*
X128468571Y-98893333D01*
X128373333Y-98940952D01*
X128325714Y-98988571D01*
X128278095Y-99083809D01*
X128278095Y-99321904D01*
X128325714Y-99417142D01*
X128373333Y-99464761D01*
X128468571Y-99512380D01*
X128706666Y-99512380D01*
X128801904Y-99464761D01*
X128849523Y-99417142D01*
X64714285Y-81732380D02*
X64714285Y-80732380D01*
X64476190Y-80732380D01*
X64333333Y-80780000D01*
X64238095Y-80875238D01*
X64190476Y-80970476D01*
X64142857Y-81160952D01*
X64142857Y-81303809D01*
X64190476Y-81494285D01*
X64238095Y-81589523D01*
X64333333Y-81684761D01*
X64476190Y-81732380D01*
X64714285Y-81732380D01*
X63809523Y-80732380D02*
X63190476Y-80732380D01*
X63523809Y-81113333D01*
X63380952Y-81113333D01*
X63285714Y-81160952D01*
X63238095Y-81208571D01*
X63190476Y-81303809D01*
X63190476Y-81541904D01*
X63238095Y-81637142D01*
X63285714Y-81684761D01*
X63380952Y-81732380D01*
X63666666Y-81732380D01*
X63761904Y-81684761D01*
X63809523Y-81637142D01*
X62285714Y-80732380D02*
X62761904Y-80732380D01*
X62809523Y-81208571D01*
X62761904Y-81160952D01*
X62666666Y-81113333D01*
X62428571Y-81113333D01*
X62333333Y-81160952D01*
X62285714Y-81208571D01*
X62238095Y-81303809D01*
X62238095Y-81541904D01*
X62285714Y-81637142D01*
X62333333Y-81684761D01*
X62428571Y-81732380D01*
X62666666Y-81732380D01*
X62761904Y-81684761D01*
X62809523Y-81637142D01*
X64714285Y-84272380D02*
X64714285Y-83272380D01*
X64476190Y-83272380D01*
X64333333Y-83320000D01*
X64238095Y-83415238D01*
X64190476Y-83510476D01*
X64142857Y-83700952D01*
X64142857Y-83843809D01*
X64190476Y-84034285D01*
X64238095Y-84129523D01*
X64333333Y-84224761D01*
X64476190Y-84272380D01*
X64714285Y-84272380D01*
X63809523Y-83272380D02*
X63190476Y-83272380D01*
X63523809Y-83653333D01*
X63380952Y-83653333D01*
X63285714Y-83700952D01*
X63238095Y-83748571D01*
X63190476Y-83843809D01*
X63190476Y-84081904D01*
X63238095Y-84177142D01*
X63285714Y-84224761D01*
X63380952Y-84272380D01*
X63666666Y-84272380D01*
X63761904Y-84224761D01*
X63809523Y-84177142D01*
X62809523Y-83367619D02*
X62761904Y-83320000D01*
X62666666Y-83272380D01*
X62428571Y-83272380D01*
X62333333Y-83320000D01*
X62285714Y-83367619D01*
X62238095Y-83462857D01*
X62238095Y-83558095D01*
X62285714Y-83700952D01*
X62857142Y-84272380D01*
X62238095Y-84272380D01*
X130778095Y-103592380D02*
X130159047Y-103592380D01*
X130492380Y-103973333D01*
X130349523Y-103973333D01*
X130254285Y-104020952D01*
X130206666Y-104068571D01*
X130159047Y-104163809D01*
X130159047Y-104401904D01*
X130206666Y-104497142D01*
X130254285Y-104544761D01*
X130349523Y-104592380D01*
X130635238Y-104592380D01*
X130730476Y-104544761D01*
X130778095Y-104497142D01*
X129873333Y-103592380D02*
X129540000Y-104592380D01*
X129206666Y-103592380D01*
X128968571Y-103592380D02*
X128349523Y-103592380D01*
X128682857Y-103973333D01*
X128540000Y-103973333D01*
X128444761Y-104020952D01*
X128397142Y-104068571D01*
X128349523Y-104163809D01*
X128349523Y-104401904D01*
X128397142Y-104497142D01*
X128444761Y-104544761D01*
X128540000Y-104592380D01*
X128825714Y-104592380D01*
X128920952Y-104544761D01*
X128968571Y-104497142D01*
X64714285Y-79192380D02*
X64714285Y-78192380D01*
X64476190Y-78192380D01*
X64333333Y-78240000D01*
X64238095Y-78335238D01*
X64190476Y-78430476D01*
X64142857Y-78620952D01*
X64142857Y-78763809D01*
X64190476Y-78954285D01*
X64238095Y-79049523D01*
X64333333Y-79144761D01*
X64476190Y-79192380D01*
X64714285Y-79192380D01*
X63809523Y-78192380D02*
X63190476Y-78192380D01*
X63523809Y-78573333D01*
X63380952Y-78573333D01*
X63285714Y-78620952D01*
X63238095Y-78668571D01*
X63190476Y-78763809D01*
X63190476Y-79001904D01*
X63238095Y-79097142D01*
X63285714Y-79144761D01*
X63380952Y-79192380D01*
X63666666Y-79192380D01*
X63761904Y-79144761D01*
X63809523Y-79097142D01*
X62333333Y-78525714D02*
X62333333Y-79192380D01*
X62571428Y-78144761D02*
X62809523Y-78859047D01*
X62190476Y-78859047D01*
X130182857Y-76652380D02*
X130516190Y-76176190D01*
X130754285Y-76652380D02*
X130754285Y-75652380D01*
X130373333Y-75652380D01*
X130278095Y-75700000D01*
X130230476Y-75747619D01*
X130182857Y-75842857D01*
X130182857Y-75985714D01*
X130230476Y-76080952D01*
X130278095Y-76128571D01*
X130373333Y-76176190D01*
X130754285Y-76176190D01*
X129849523Y-75652380D02*
X129182857Y-76652380D01*
X129182857Y-75652380D02*
X129849523Y-76652380D01*
X128611428Y-75652380D02*
X128516190Y-75652380D01*
X128420952Y-75700000D01*
X128373333Y-75747619D01*
X128325714Y-75842857D01*
X128278095Y-76033333D01*
X128278095Y-76271428D01*
X128325714Y-76461904D01*
X128373333Y-76557142D01*
X128420952Y-76604761D01*
X128516190Y-76652380D01*
X128611428Y-76652380D01*
X128706666Y-76604761D01*
X128754285Y-76557142D01*
X128801904Y-76461904D01*
X128849523Y-76271428D01*
X128849523Y-76033333D01*
X128801904Y-75842857D01*
X128754285Y-75747619D01*
X128706666Y-75700000D01*
X128611428Y-75652380D01*
X64595238Y-106132380D02*
X64261904Y-107132380D01*
X63928571Y-106132380D01*
X63595238Y-107132380D02*
X63595238Y-106132380D01*
X63119047Y-107132380D02*
X63119047Y-106132380D01*
X62547619Y-107132380D01*
X62547619Y-106132380D01*
X64333333Y-73112380D02*
X64000000Y-74112380D01*
X63666666Y-73112380D01*
X63333333Y-74112380D02*
X63333333Y-73112380D01*
X62952380Y-73112380D01*
X62857142Y-73160000D01*
X62809523Y-73207619D01*
X62761904Y-73302857D01*
X62761904Y-73445714D01*
X62809523Y-73540952D01*
X62857142Y-73588571D01*
X62952380Y-73636190D01*
X63333333Y-73636190D01*
X130182857Y-91892380D02*
X130516190Y-91416190D01*
X130754285Y-91892380D02*
X130754285Y-90892380D01*
X130373333Y-90892380D01*
X130278095Y-90940000D01*
X130230476Y-90987619D01*
X130182857Y-91082857D01*
X130182857Y-91225714D01*
X130230476Y-91320952D01*
X130278095Y-91368571D01*
X130373333Y-91416190D01*
X130754285Y-91416190D01*
X129849523Y-90892380D02*
X129182857Y-91892380D01*
X129182857Y-90892380D02*
X129849523Y-91892380D01*
X128849523Y-90987619D02*
X128801904Y-90940000D01*
X128706666Y-90892380D01*
X128468571Y-90892380D01*
X128373333Y-90940000D01*
X128325714Y-90987619D01*
X128278095Y-91082857D01*
X128278095Y-91178095D01*
X128325714Y-91320952D01*
X128897142Y-91892380D01*
X128278095Y-91892380D01*
X130778095Y-88352380D02*
X130206666Y-88352380D01*
X130492380Y-89352380D02*
X130492380Y-88352380D01*
X129968571Y-88352380D02*
X129301904Y-89352380D01*
X129301904Y-88352380D02*
X129968571Y-89352380D01*
X128968571Y-88447619D02*
X128920952Y-88400000D01*
X128825714Y-88352380D01*
X128587619Y-88352380D01*
X128492380Y-88400000D01*
X128444761Y-88447619D01*
X128397142Y-88542857D01*
X128397142Y-88638095D01*
X128444761Y-88780952D01*
X129016190Y-89352380D01*
X128397142Y-89352380D01*
X64714285Y-99512380D02*
X64714285Y-98512380D01*
X64476190Y-98512380D01*
X64333333Y-98560000D01*
X64238095Y-98655238D01*
X64190476Y-98750476D01*
X64142857Y-98940952D01*
X64142857Y-99083809D01*
X64190476Y-99274285D01*
X64238095Y-99369523D01*
X64333333Y-99464761D01*
X64476190Y-99512380D01*
X64714285Y-99512380D01*
X63190476Y-99512380D02*
X63761904Y-99512380D01*
X63476190Y-99512380D02*
X63476190Y-98512380D01*
X63571428Y-98655238D01*
X63666666Y-98750476D01*
X63761904Y-98798095D01*
X62809523Y-98607619D02*
X62761904Y-98560000D01*
X62666666Y-98512380D01*
X62428571Y-98512380D01*
X62333333Y-98560000D01*
X62285714Y-98607619D01*
X62238095Y-98702857D01*
X62238095Y-98798095D01*
X62285714Y-98940952D01*
X62857142Y-99512380D01*
X62238095Y-99512380D01*
X130778095Y-73112380D02*
X130206666Y-73112380D01*
X130492380Y-74112380D02*
X130492380Y-73112380D01*
X129968571Y-73112380D02*
X129301904Y-74112380D01*
X129301904Y-73112380D02*
X129968571Y-74112380D01*
X128730476Y-73112380D02*
X128635238Y-73112380D01*
X128540000Y-73160000D01*
X128492380Y-73207619D01*
X128444761Y-73302857D01*
X128397142Y-73493333D01*
X128397142Y-73731428D01*
X128444761Y-73921904D01*
X128492380Y-74017142D01*
X128540000Y-74064761D01*
X128635238Y-74112380D01*
X128730476Y-74112380D01*
X128825714Y-74064761D01*
X128873333Y-74017142D01*
X128920952Y-73921904D01*
X128968571Y-73731428D01*
X128968571Y-73493333D01*
X128920952Y-73302857D01*
X128873333Y-73207619D01*
X128825714Y-73160000D01*
X128730476Y-73112380D01*
X130754285Y-69032380D02*
X130754285Y-68032380D01*
X130516190Y-68032380D01*
X130373333Y-68080000D01*
X130278095Y-68175238D01*
X130230476Y-68270476D01*
X130182857Y-68460952D01*
X130182857Y-68603809D01*
X130230476Y-68794285D01*
X130278095Y-68889523D01*
X130373333Y-68984761D01*
X130516190Y-69032380D01*
X130754285Y-69032380D01*
X129801904Y-68127619D02*
X129754285Y-68080000D01*
X129659047Y-68032380D01*
X129420952Y-68032380D01*
X129325714Y-68080000D01*
X129278095Y-68127619D01*
X129230476Y-68222857D01*
X129230476Y-68318095D01*
X129278095Y-68460952D01*
X129849523Y-69032380D01*
X129230476Y-69032380D01*
X128897142Y-68032380D02*
X128278095Y-68032380D01*
X128611428Y-68413333D01*
X128468571Y-68413333D01*
X128373333Y-68460952D01*
X128325714Y-68508571D01*
X128278095Y-68603809D01*
X128278095Y-68841904D01*
X128325714Y-68937142D01*
X128373333Y-68984761D01*
X128468571Y-69032380D01*
X128754285Y-69032380D01*
X128849523Y-68984761D01*
X128897142Y-68937142D01*
X64357142Y-75652380D02*
X64023809Y-76652380D01*
X63690476Y-75652380D01*
X63357142Y-76652380D02*
X63357142Y-75652380D01*
X62785714Y-76652380D01*
X62785714Y-75652380D01*
X130301904Y-101100000D02*
X130397142Y-101052380D01*
X130540000Y-101052380D01*
X130682857Y-101100000D01*
X130778095Y-101195238D01*
X130825714Y-101290476D01*
X130873333Y-101480952D01*
X130873333Y-101623809D01*
X130825714Y-101814285D01*
X130778095Y-101909523D01*
X130682857Y-102004761D01*
X130540000Y-102052380D01*
X130444761Y-102052380D01*
X130301904Y-102004761D01*
X130254285Y-101957142D01*
X130254285Y-101623809D01*
X130444761Y-101623809D01*
X129825714Y-102052380D02*
X129825714Y-101052380D01*
X129254285Y-102052380D01*
X129254285Y-101052380D01*
X128778095Y-102052380D02*
X128778095Y-101052380D01*
X128540000Y-101052380D01*
X128397142Y-101100000D01*
X128301904Y-101195238D01*
X128254285Y-101290476D01*
X128206666Y-101480952D01*
X128206666Y-101623809D01*
X128254285Y-101814285D01*
X128301904Y-101909523D01*
X128397142Y-102004761D01*
X128540000Y-102052380D01*
X128778095Y-102052380D01*
X130278095Y-94432380D02*
X130278095Y-93432380D01*
X130040000Y-93432380D01*
X129897142Y-93480000D01*
X129801904Y-93575238D01*
X129754285Y-93670476D01*
X129706666Y-93860952D01*
X129706666Y-94003809D01*
X129754285Y-94194285D01*
X129801904Y-94289523D01*
X129897142Y-94384761D01*
X130040000Y-94432380D01*
X130278095Y-94432380D01*
X128849523Y-93765714D02*
X128849523Y-94432380D01*
X129087619Y-93384761D02*
X129325714Y-94099047D01*
X128706666Y-94099047D01*
X64714285Y-89352380D02*
X64714285Y-88352380D01*
X64476190Y-88352380D01*
X64333333Y-88400000D01*
X64238095Y-88495238D01*
X64190476Y-88590476D01*
X64142857Y-88780952D01*
X64142857Y-88923809D01*
X64190476Y-89114285D01*
X64238095Y-89209523D01*
X64333333Y-89304761D01*
X64476190Y-89352380D01*
X64714285Y-89352380D01*
X63761904Y-88447619D02*
X63714285Y-88400000D01*
X63619047Y-88352380D01*
X63380952Y-88352380D01*
X63285714Y-88400000D01*
X63238095Y-88447619D01*
X63190476Y-88542857D01*
X63190476Y-88638095D01*
X63238095Y-88780952D01*
X63809523Y-89352380D01*
X63190476Y-89352380D01*
X62285714Y-88352380D02*
X62761904Y-88352380D01*
X62809523Y-88828571D01*
X62761904Y-88780952D01*
X62666666Y-88733333D01*
X62428571Y-88733333D01*
X62333333Y-88780952D01*
X62285714Y-88828571D01*
X62238095Y-88923809D01*
X62238095Y-89161904D01*
X62285714Y-89257142D01*
X62333333Y-89304761D01*
X62428571Y-89352380D01*
X62666666Y-89352380D01*
X62761904Y-89304761D01*
X62809523Y-89257142D01*
X98167374Y-45288803D02*
X97717430Y-45288803D01*
X97942402Y-46076205D02*
X97942402Y-45288803D01*
X97454962Y-46076205D02*
X97454962Y-45288803D01*
X97454962Y-45663757D02*
X97005018Y-45663757D01*
X97005018Y-46076205D02*
X97005018Y-45288803D01*
X96217616Y-46076205D02*
X96667560Y-46076205D01*
X96442588Y-46076205D02*
X96442588Y-45288803D01*
X96517579Y-45401289D01*
X96592570Y-45476280D01*
X96667560Y-45513775D01*
D11*
X97155000Y-50800000D02*
X89535000Y-50800000D01*
X104775000Y-50800000D02*
X97155000Y-50800000D01*
X104775000Y-50800000D02*
X104775000Y-71120000D01*
X89535000Y-50800000D02*
X89535000Y-71120000D01*
X89535000Y-71120000D02*
X92075000Y-76200000D01*
X102235000Y-76200000D02*
X104775000Y-71120000D01*
X89535000Y-71120000D02*
X104775000Y-71120000D01*
X92075000Y-76200000D02*
X102235000Y-76200000D01*
%LPC*%
D12*
X149900000Y-96480000D03*
D13*
X134645000Y-68610000D03*
D14*
X134645000Y-71150000D03*
X134645000Y-73690000D03*
X134645000Y-76230000D03*
X134645000Y-78770000D03*
X134645000Y-81310000D03*
X134645000Y-83850000D03*
X134645000Y-86390000D03*
X134645000Y-88930000D03*
X134645000Y-91470000D03*
X134645000Y-94010000D03*
X134645000Y-96550000D03*
X134645000Y-99090000D03*
X134645000Y-101630000D03*
X134645000Y-104170000D03*
D15*
X147400000Y-45680000D03*
X147400000Y-134620000D03*
X53420000Y-134580000D03*
D16*
X92710000Y-63500000D03*
D17*
X100330000Y-63500000D03*
D18*
X53420000Y-45840000D03*
D19*
X83820000Y-83820000D03*
D20*
X83820000Y-86360000D03*
X83820000Y-88900000D03*
X83820000Y-91440000D03*
X83820000Y-93980000D03*
X83820000Y-96520000D03*
X83820000Y-99060000D03*
X83820000Y-101600000D03*
X83820000Y-104140000D03*
X83820000Y-106680000D03*
X83820000Y-109220000D03*
X83820000Y-111760000D03*
X83820000Y-114300000D03*
X83820000Y-116840000D03*
X83820000Y-119380000D03*
X109220000Y-119380000D03*
X109220000Y-116840000D03*
X109220000Y-114300000D03*
X109220000Y-111760000D03*
X109220000Y-109220000D03*
X109220000Y-106680000D03*
X109220000Y-104140000D03*
X109220000Y-101600000D03*
X109220000Y-99060000D03*
X109220000Y-96520000D03*
X109220000Y-93980000D03*
X109220000Y-91440000D03*
X109220000Y-88900000D03*
X109220000Y-86360000D03*
X109220000Y-83820000D03*
D12*
X149900000Y-66040000D03*
D13*
X73660000Y-83820000D03*
D14*
X73660000Y-86360000D03*
X73660000Y-88900000D03*
X73660000Y-91440000D03*
X73660000Y-93980000D03*
X73660000Y-96520000D03*
X73660000Y-99060000D03*
X73660000Y-101600000D03*
X73660000Y-104140000D03*
X73660000Y-106680000D03*
X73660000Y-109220000D03*
X73660000Y-111760000D03*
X73660000Y-114300000D03*
X73660000Y-116840000D03*
X73660000Y-119380000D03*
D13*
X119380000Y-83820000D03*
D14*
X119380000Y-86360000D03*
X119380000Y-88900000D03*
X119380000Y-91440000D03*
X119380000Y-93980000D03*
X119380000Y-96520000D03*
X119380000Y-99060000D03*
X119380000Y-101600000D03*
X119380000Y-104140000D03*
X119380000Y-106680000D03*
X119380000Y-109220000D03*
X119380000Y-111760000D03*
X119380000Y-114300000D03*
X119380000Y-116840000D03*
X119380000Y-119380000D03*
D13*
X59740000Y-71180000D03*
D14*
X59740000Y-73720000D03*
X59740000Y-76260000D03*
X59740000Y-78800000D03*
X59740000Y-81340000D03*
X59740000Y-83880000D03*
X59740000Y-86420000D03*
X59740000Y-88960000D03*
X59740000Y-91500000D03*
X59740000Y-94040000D03*
X59740000Y-96580000D03*
X59740000Y-99120000D03*
X59740000Y-101660000D03*
X59740000Y-104200000D03*
X59740000Y-106740000D03*
D21*
X97155000Y-73025000D03*
D22*
X100965000Y-48260000D03*
X98425000Y-48260000D03*
X95885000Y-48260000D03*
X93345000Y-48260000D03*
M02*
