M48
; DRILL file {KiCad (6.0.11-0)} date Monday, March 27, 2023 at 04:27:20 PM
; FORMAT={-:-/ absolute / metric / decimal}
; #@! TF.CreationDate,2023-03-27T16:27:20-06:00
; #@! TF.GenerationSoftware,Kicad,Pcbnew,(6.0.11-0)
; #@! TF.FileFunction,Plated,1,2,PTH
FMAT,2
METRIC
; #@! TA.AperFunction,Plated,PTH,ComponentDrill
T1C0.700
; #@! TA.AperFunction,Plated,PTH,ComponentDrill
T2C0.762
; #@! TA.AperFunction,Plated,PTH,ComponentDrill
T3C0.800
; #@! TA.AperFunction,Plated,PTH,ComponentDrill
T4C1.000
%
G90
G05
T1
X92.71Y-63.5
X100.33Y-63.5
T2
X83.82Y-83.82
X83.82Y-86.36
X83.82Y-88.9
X83.82Y-91.44
X83.82Y-93.98
X83.82Y-96.52
X83.82Y-99.06
X83.82Y-101.6
X83.82Y-104.14
X83.82Y-106.68
X83.82Y-109.22
X83.82Y-111.76
X83.82Y-114.3
X83.82Y-116.84
X83.82Y-119.38
X109.22Y-83.82
X109.22Y-86.36
X109.22Y-88.9
X109.22Y-91.44
X109.22Y-93.98
X109.22Y-96.52
X109.22Y-99.06
X109.22Y-101.6
X109.22Y-104.14
X109.22Y-106.68
X109.22Y-109.22
X109.22Y-111.76
X109.22Y-114.3
X109.22Y-116.84
X109.22Y-119.38
T3
X93.345Y-48.26
X95.885Y-48.26
X98.425Y-48.26
X100.965Y-48.26
T4
X59.74Y-71.18
X59.74Y-73.72
X59.74Y-76.26
X59.74Y-78.8
X59.74Y-81.34
X59.74Y-83.88
X59.74Y-86.42
X59.74Y-88.96
X59.74Y-91.5
X59.74Y-94.04
X59.74Y-96.58
X59.74Y-99.12
X59.74Y-101.66
X59.74Y-104.2
X59.74Y-106.74
X73.66Y-83.82
X73.66Y-86.36
X73.66Y-88.9
X73.66Y-91.44
X73.66Y-93.98
X73.66Y-96.52
X73.66Y-99.06
X73.66Y-101.6
X73.66Y-104.14
X73.66Y-106.68
X73.66Y-109.22
X73.66Y-111.76
X73.66Y-114.3
X73.66Y-116.84
X73.66Y-119.38
X119.38Y-83.82
X119.38Y-86.36
X119.38Y-88.9
X119.38Y-91.44
X119.38Y-93.98
X119.38Y-96.52
X119.38Y-99.06
X119.38Y-101.6
X119.38Y-104.14
X119.38Y-106.68
X119.38Y-109.22
X119.38Y-111.76
X119.38Y-114.3
X119.38Y-116.84
X119.38Y-119.38
X134.645Y-68.61
X134.645Y-71.15
X134.645Y-73.69
X134.645Y-76.23
X134.645Y-78.77
X134.645Y-81.31
X134.645Y-83.85
X134.645Y-86.39
X134.645Y-88.93
X134.645Y-91.47
X134.645Y-94.01
X134.645Y-96.55
X134.645Y-99.09
X134.645Y-101.63
X134.645Y-104.17
T0
M30
