G04 #@! TF.GenerationSoftware,KiCad,Pcbnew,(6.0.11-0)*
G04 #@! TF.CreationDate,2023-03-27T16:27:17-06:00*
G04 #@! TF.ProjectId,ESP_PCB,4553505f-5043-4422-9e6b-696361645f70,rev?*
G04 #@! TF.SameCoordinates,Original*
G04 #@! TF.FileFunction,Soldermask,Top*
G04 #@! TF.FilePolarity,Negative*
%FSLAX46Y46*%
G04 Gerber Fmt 4.6, Leading zero omitted, Abs format (unit mm)*
G04 Created by KiCad (PCBNEW (6.0.11-0)) date 2023-03-27 16:27:17*
%MOMM*%
%LPD*%
G01*
G04 APERTURE LIST*
%ADD10C,3.230000*%
%ADD11R,1.700000X1.700000*%
%ADD12O,1.700000X1.700000*%
%ADD13C,2.500000*%
%ADD14C,1.400000*%
%ADD15O,1.400000X1.400000*%
%ADD16C,3.200000*%
%ADD17R,1.524000X1.524000*%
%ADD18C,1.524000*%
%ADD19C,3.000000*%
%ADD20O,1.308000X2.616000*%
G04 APERTURE END LIST*
D10*
X149900000Y-96480000D03*
D11*
X134645000Y-68610000D03*
D12*
X134645000Y-71150000D03*
X134645000Y-73690000D03*
X134645000Y-76230000D03*
X134645000Y-78770000D03*
X134645000Y-81310000D03*
X134645000Y-83850000D03*
X134645000Y-86390000D03*
X134645000Y-88930000D03*
X134645000Y-91470000D03*
X134645000Y-94010000D03*
X134645000Y-96550000D03*
X134645000Y-99090000D03*
X134645000Y-101630000D03*
X134645000Y-104170000D03*
D13*
X147400000Y-45680000D03*
X147400000Y-134620000D03*
X53420000Y-134580000D03*
D14*
X92710000Y-63500000D03*
D15*
X100330000Y-63500000D03*
D16*
X53420000Y-45840000D03*
D17*
X83820000Y-83820000D03*
D18*
X83820000Y-86360000D03*
X83820000Y-88900000D03*
X83820000Y-91440000D03*
X83820000Y-93980000D03*
X83820000Y-96520000D03*
X83820000Y-99060000D03*
X83820000Y-101600000D03*
X83820000Y-104140000D03*
X83820000Y-106680000D03*
X83820000Y-109220000D03*
X83820000Y-111760000D03*
X83820000Y-114300000D03*
X83820000Y-116840000D03*
X83820000Y-119380000D03*
X109220000Y-119380000D03*
X109220000Y-116840000D03*
X109220000Y-114300000D03*
X109220000Y-111760000D03*
X109220000Y-109220000D03*
X109220000Y-106680000D03*
X109220000Y-104140000D03*
X109220000Y-101600000D03*
X109220000Y-99060000D03*
X109220000Y-96520000D03*
X109220000Y-93980000D03*
X109220000Y-91440000D03*
X109220000Y-88900000D03*
X109220000Y-86360000D03*
X109220000Y-83820000D03*
D10*
X149900000Y-66040000D03*
D11*
X73660000Y-83820000D03*
D12*
X73660000Y-86360000D03*
X73660000Y-88900000D03*
X73660000Y-91440000D03*
X73660000Y-93980000D03*
X73660000Y-96520000D03*
X73660000Y-99060000D03*
X73660000Y-101600000D03*
X73660000Y-104140000D03*
X73660000Y-106680000D03*
X73660000Y-109220000D03*
X73660000Y-111760000D03*
X73660000Y-114300000D03*
X73660000Y-116840000D03*
X73660000Y-119380000D03*
D11*
X119380000Y-83820000D03*
D12*
X119380000Y-86360000D03*
X119380000Y-88900000D03*
X119380000Y-91440000D03*
X119380000Y-93980000D03*
X119380000Y-96520000D03*
X119380000Y-99060000D03*
X119380000Y-101600000D03*
X119380000Y-104140000D03*
X119380000Y-106680000D03*
X119380000Y-109220000D03*
X119380000Y-111760000D03*
X119380000Y-114300000D03*
X119380000Y-116840000D03*
X119380000Y-119380000D03*
D11*
X59740000Y-71180000D03*
D12*
X59740000Y-73720000D03*
X59740000Y-76260000D03*
X59740000Y-78800000D03*
X59740000Y-81340000D03*
X59740000Y-83880000D03*
X59740000Y-86420000D03*
X59740000Y-88960000D03*
X59740000Y-91500000D03*
X59740000Y-94040000D03*
X59740000Y-96580000D03*
X59740000Y-99120000D03*
X59740000Y-101660000D03*
X59740000Y-104200000D03*
X59740000Y-106740000D03*
D19*
X97155000Y-73025000D03*
D20*
X100965000Y-48260000D03*
X98425000Y-48260000D03*
X95885000Y-48260000D03*
X93345000Y-48260000D03*
M02*
