G04 #@! TF.GenerationSoftware,KiCad,Pcbnew,(6.0.11-0)*
G04 #@! TF.CreationDate,2023-03-27T16:27:17-06:00*
G04 #@! TF.ProjectId,ESP_PCB,4553505f-5043-4422-9e6b-696361645f70,rev?*
G04 #@! TF.SameCoordinates,Original*
G04 #@! TF.FileFunction,Copper,L2,Bot*
G04 #@! TF.FilePolarity,Positive*
%FSLAX46Y46*%
G04 Gerber Fmt 4.6, Leading zero omitted, Abs format (unit mm)*
G04 Created by KiCad (PCBNEW (6.0.11-0)) date 2023-03-27 16:27:17*
%MOMM*%
%LPD*%
G01*
G04 APERTURE LIST*
G04 #@! TA.AperFunction,ComponentPad*
%ADD10R,1.700000X1.700000*%
G04 #@! TD*
G04 #@! TA.AperFunction,ComponentPad*
%ADD11O,1.700000X1.700000*%
G04 #@! TD*
G04 #@! TA.AperFunction,ComponentPad*
%ADD12C,1.400000*%
G04 #@! TD*
G04 #@! TA.AperFunction,ComponentPad*
%ADD13O,1.400000X1.400000*%
G04 #@! TD*
G04 #@! TA.AperFunction,WasherPad*
%ADD14C,3.200000*%
G04 #@! TD*
G04 #@! TA.AperFunction,ComponentPad*
%ADD15R,1.524000X1.524000*%
G04 #@! TD*
G04 #@! TA.AperFunction,ComponentPad*
%ADD16C,1.524000*%
G04 #@! TD*
G04 #@! TA.AperFunction,ComponentPad*
%ADD17O,1.308000X2.616000*%
G04 #@! TD*
G04 APERTURE END LIST*
D10*
X134645000Y-68610000D03*
D11*
X134645000Y-71150000D03*
X134645000Y-73690000D03*
X134645000Y-76230000D03*
X134645000Y-78770000D03*
X134645000Y-81310000D03*
X134645000Y-83850000D03*
X134645000Y-86390000D03*
X134645000Y-88930000D03*
X134645000Y-91470000D03*
X134645000Y-94010000D03*
X134645000Y-96550000D03*
X134645000Y-99090000D03*
X134645000Y-101630000D03*
X134645000Y-104170000D03*
D12*
X92710000Y-63500000D03*
D13*
X100330000Y-63500000D03*
D14*
X53420000Y-45840000D03*
D15*
X83820000Y-83820000D03*
D16*
X83820000Y-86360000D03*
X83820000Y-88900000D03*
X83820000Y-91440000D03*
X83820000Y-93980000D03*
X83820000Y-96520000D03*
X83820000Y-99060000D03*
X83820000Y-101600000D03*
X83820000Y-104140000D03*
X83820000Y-106680000D03*
X83820000Y-109220000D03*
X83820000Y-111760000D03*
X83820000Y-114300000D03*
X83820000Y-116840000D03*
X83820000Y-119380000D03*
X109220000Y-119380000D03*
X109220000Y-116840000D03*
X109220000Y-114300000D03*
X109220000Y-111760000D03*
X109220000Y-109220000D03*
X109220000Y-106680000D03*
X109220000Y-104140000D03*
X109220000Y-101600000D03*
X109220000Y-99060000D03*
X109220000Y-96520000D03*
X109220000Y-93980000D03*
X109220000Y-91440000D03*
X109220000Y-88900000D03*
X109220000Y-86360000D03*
X109220000Y-83820000D03*
D10*
X73660000Y-83820000D03*
D11*
X73660000Y-86360000D03*
X73660000Y-88900000D03*
X73660000Y-91440000D03*
X73660000Y-93980000D03*
X73660000Y-96520000D03*
X73660000Y-99060000D03*
X73660000Y-101600000D03*
X73660000Y-104140000D03*
X73660000Y-106680000D03*
X73660000Y-109220000D03*
X73660000Y-111760000D03*
X73660000Y-114300000D03*
X73660000Y-116840000D03*
X73660000Y-119380000D03*
D10*
X119380000Y-83820000D03*
D11*
X119380000Y-86360000D03*
X119380000Y-88900000D03*
X119380000Y-91440000D03*
X119380000Y-93980000D03*
X119380000Y-96520000D03*
X119380000Y-99060000D03*
X119380000Y-101600000D03*
X119380000Y-104140000D03*
X119380000Y-106680000D03*
X119380000Y-109220000D03*
X119380000Y-111760000D03*
X119380000Y-114300000D03*
X119380000Y-116840000D03*
X119380000Y-119380000D03*
D10*
X59740000Y-71180000D03*
D11*
X59740000Y-73720000D03*
X59740000Y-76260000D03*
X59740000Y-78800000D03*
X59740000Y-81340000D03*
X59740000Y-83880000D03*
X59740000Y-86420000D03*
X59740000Y-88960000D03*
X59740000Y-91500000D03*
X59740000Y-94040000D03*
X59740000Y-96580000D03*
X59740000Y-99120000D03*
X59740000Y-101660000D03*
X59740000Y-104200000D03*
X59740000Y-106740000D03*
D17*
X100965000Y-48260000D03*
X98425000Y-48260000D03*
X95885000Y-48260000D03*
X93345000Y-48260000D03*
G04 #@! TA.AperFunction,Conductor*
G36*
X151873621Y-41168502D02*
G01*
X151920114Y-41222158D01*
X151931500Y-41274500D01*
X151931500Y-64843425D01*
X151911498Y-64911546D01*
X151857842Y-64958039D01*
X151787568Y-64968143D01*
X151722988Y-64938649D01*
X151697384Y-64908132D01*
X151647785Y-64825258D01*
X151466755Y-64599295D01*
X151256733Y-64399992D01*
X151021605Y-64231036D01*
X150765723Y-64095553D01*
X150493822Y-63996051D01*
X150210932Y-63934371D01*
X150206663Y-63934035D01*
X149986309Y-63916693D01*
X149986300Y-63916693D01*
X149983852Y-63916500D01*
X149827215Y-63916500D01*
X149825079Y-63916646D01*
X149825068Y-63916646D01*
X149615412Y-63930939D01*
X149615406Y-63930940D01*
X149611135Y-63931231D01*
X149606940Y-63932100D01*
X149606938Y-63932100D01*
X149469374Y-63960588D01*
X149327614Y-63989945D01*
X149054686Y-64086594D01*
X148797399Y-64219390D01*
X148560515Y-64385874D01*
X148557370Y-64388797D01*
X148557367Y-64388799D01*
X148383261Y-64550589D01*
X148348418Y-64582967D01*
X148165031Y-64807022D01*
X148013749Y-65053892D01*
X147897371Y-65319009D01*
X147818050Y-65597468D01*
X147777254Y-65884115D01*
X147775738Y-66173647D01*
X147813530Y-66460706D01*
X147889931Y-66739980D01*
X148003526Y-67006302D01*
X148152215Y-67254742D01*
X148333245Y-67480705D01*
X148484579Y-67624315D01*
X148519591Y-67657540D01*
X148543267Y-67680008D01*
X148778395Y-67848964D01*
X149034277Y-67984447D01*
X149306178Y-68083949D01*
X149589068Y-68145629D01*
X149593337Y-68145965D01*
X149813691Y-68163307D01*
X149813700Y-68163307D01*
X149816148Y-68163500D01*
X149972785Y-68163500D01*
X149974921Y-68163354D01*
X149974932Y-68163354D01*
X150184588Y-68149061D01*
X150184594Y-68149060D01*
X150188865Y-68148769D01*
X150193060Y-68147900D01*
X150193062Y-68147900D01*
X150330626Y-68119412D01*
X150472386Y-68090055D01*
X150745314Y-67993406D01*
X151002601Y-67860610D01*
X151239485Y-67694126D01*
X151242633Y-67691201D01*
X151448439Y-67499954D01*
X151448442Y-67499951D01*
X151451582Y-67497033D01*
X151634969Y-67272978D01*
X151698067Y-67170011D01*
X151750715Y-67122380D01*
X151820756Y-67110773D01*
X151885954Y-67138876D01*
X151925608Y-67197766D01*
X151931500Y-67235846D01*
X151931500Y-95283425D01*
X151911498Y-95351546D01*
X151857842Y-95398039D01*
X151787568Y-95408143D01*
X151722988Y-95378649D01*
X151697384Y-95348132D01*
X151647785Y-95265258D01*
X151636362Y-95250999D01*
X151500432Y-95081331D01*
X151466755Y-95039295D01*
X151313107Y-94893489D01*
X151259842Y-94842942D01*
X151259839Y-94842940D01*
X151256733Y-94839992D01*
X151021605Y-94671036D01*
X150765723Y-94535553D01*
X150493822Y-94436051D01*
X150210932Y-94374371D01*
X150206663Y-94374035D01*
X149986309Y-94356693D01*
X149986300Y-94356693D01*
X149983852Y-94356500D01*
X149827215Y-94356500D01*
X149825079Y-94356646D01*
X149825068Y-94356646D01*
X149615412Y-94370939D01*
X149615406Y-94370940D01*
X149611135Y-94371231D01*
X149606940Y-94372100D01*
X149606938Y-94372100D01*
X149556255Y-94382596D01*
X149327614Y-94429945D01*
X149054686Y-94526594D01*
X148797399Y-94659390D01*
X148560515Y-94825874D01*
X148557370Y-94828797D01*
X148557367Y-94828799D01*
X148362339Y-95010031D01*
X148348418Y-95022967D01*
X148165031Y-95247022D01*
X148013749Y-95493892D01*
X147897371Y-95759009D01*
X147818050Y-96037468D01*
X147817446Y-96041710D01*
X147817445Y-96041716D01*
X147777898Y-96319588D01*
X147777254Y-96324115D01*
X147777080Y-96357361D01*
X147775880Y-96586590D01*
X147775738Y-96613647D01*
X147813530Y-96900706D01*
X147814663Y-96904846D01*
X147814663Y-96904848D01*
X147854868Y-97051811D01*
X147889931Y-97179980D01*
X148003526Y-97446302D01*
X148152215Y-97694742D01*
X148154899Y-97698093D01*
X148154901Y-97698095D01*
X148237261Y-97800897D01*
X148333245Y-97920705D01*
X148403949Y-97987800D01*
X148518885Y-98096870D01*
X148543267Y-98120008D01*
X148778395Y-98288964D01*
X149034277Y-98424447D01*
X149306178Y-98523949D01*
X149589068Y-98585629D01*
X149593337Y-98585965D01*
X149813691Y-98603307D01*
X149813700Y-98603307D01*
X149816148Y-98603500D01*
X149972785Y-98603500D01*
X149974921Y-98603354D01*
X149974932Y-98603354D01*
X150184588Y-98589061D01*
X150184594Y-98589060D01*
X150188865Y-98588769D01*
X150193060Y-98587900D01*
X150193062Y-98587900D01*
X150330626Y-98559412D01*
X150472386Y-98530055D01*
X150745314Y-98433406D01*
X151002601Y-98300610D01*
X151239485Y-98134126D01*
X151242633Y-98131201D01*
X151448439Y-97939954D01*
X151448442Y-97939951D01*
X151451582Y-97937033D01*
X151634969Y-97712978D01*
X151698067Y-97610011D01*
X151750715Y-97562380D01*
X151820756Y-97550773D01*
X151885954Y-97578876D01*
X151925608Y-97637766D01*
X151931500Y-97675846D01*
X151931500Y-139065500D01*
X151911498Y-139133621D01*
X151857842Y-139180114D01*
X151805500Y-139191500D01*
X47664500Y-139191500D01*
X47596379Y-139171498D01*
X47549886Y-139117842D01*
X47538500Y-139065500D01*
X47538500Y-134687655D01*
X51659858Y-134687655D01*
X51695104Y-134946638D01*
X51696412Y-134951124D01*
X51696412Y-134951126D01*
X51716098Y-135018664D01*
X51768243Y-135197567D01*
X51877668Y-135434928D01*
X51880231Y-135438837D01*
X52018410Y-135649596D01*
X52018414Y-135649601D01*
X52020976Y-135653509D01*
X52195018Y-135848506D01*
X52395970Y-136015637D01*
X52399973Y-136018066D01*
X52615422Y-136148804D01*
X52615426Y-136148806D01*
X52619419Y-136151229D01*
X52860455Y-136252303D01*
X53113783Y-136316641D01*
X53118434Y-136317109D01*
X53118438Y-136317110D01*
X53311308Y-136336531D01*
X53330867Y-136338500D01*
X53486354Y-136338500D01*
X53488679Y-136338327D01*
X53488685Y-136338327D01*
X53676000Y-136324407D01*
X53676004Y-136324406D01*
X53680652Y-136324061D01*
X53685200Y-136323032D01*
X53685206Y-136323031D01*
X53871601Y-136280853D01*
X53935577Y-136266377D01*
X53971769Y-136252303D01*
X54174824Y-136173340D01*
X54174827Y-136173339D01*
X54179177Y-136171647D01*
X54406098Y-136041951D01*
X54611357Y-135880138D01*
X54790443Y-135689763D01*
X54939424Y-135475009D01*
X55035299Y-135280593D01*
X55052960Y-135244781D01*
X55052961Y-135244778D01*
X55055025Y-135240593D01*
X55134707Y-134991665D01*
X55176721Y-134733693D01*
X55176800Y-134727655D01*
X145639858Y-134727655D01*
X145675104Y-134986638D01*
X145676412Y-134991124D01*
X145676412Y-134991126D01*
X145696098Y-135058664D01*
X145748243Y-135237567D01*
X145857668Y-135474928D01*
X145860231Y-135478837D01*
X145998410Y-135689596D01*
X145998414Y-135689601D01*
X146000976Y-135693509D01*
X146175018Y-135888506D01*
X146375970Y-136055637D01*
X146379973Y-136058066D01*
X146595422Y-136188804D01*
X146595426Y-136188806D01*
X146599419Y-136191229D01*
X146840455Y-136292303D01*
X147093783Y-136356641D01*
X147098434Y-136357109D01*
X147098438Y-136357110D01*
X147291308Y-136376531D01*
X147310867Y-136378500D01*
X147466354Y-136378500D01*
X147468679Y-136378327D01*
X147468685Y-136378327D01*
X147656000Y-136364407D01*
X147656004Y-136364406D01*
X147660652Y-136364061D01*
X147665200Y-136363032D01*
X147665206Y-136363031D01*
X147875308Y-136315489D01*
X147915577Y-136306377D01*
X147951769Y-136292303D01*
X148154824Y-136213340D01*
X148154827Y-136213339D01*
X148159177Y-136211647D01*
X148386098Y-136081951D01*
X148591357Y-135920138D01*
X148770443Y-135729763D01*
X148919424Y-135515009D01*
X148958916Y-135434928D01*
X149032960Y-135284781D01*
X149032961Y-135284778D01*
X149035025Y-135280593D01*
X149046489Y-135244781D01*
X149113280Y-135036123D01*
X149114707Y-135031665D01*
X149156721Y-134773693D01*
X149160142Y-134512345D01*
X149124896Y-134253362D01*
X149110473Y-134203877D01*
X149053068Y-134006932D01*
X149051757Y-134002433D01*
X148942332Y-133765072D01*
X148887310Y-133681149D01*
X148801590Y-133550404D01*
X148801586Y-133550399D01*
X148799024Y-133546491D01*
X148624982Y-133351494D01*
X148424030Y-133184363D01*
X148310926Y-133115730D01*
X148204578Y-133051196D01*
X148204574Y-133051194D01*
X148200581Y-133048771D01*
X147959545Y-132947697D01*
X147706217Y-132883359D01*
X147701566Y-132882891D01*
X147701562Y-132882890D01*
X147492271Y-132861816D01*
X147489133Y-132861500D01*
X147333646Y-132861500D01*
X147331321Y-132861673D01*
X147331315Y-132861673D01*
X147144000Y-132875593D01*
X147143996Y-132875594D01*
X147139348Y-132875939D01*
X147134800Y-132876968D01*
X147134794Y-132876969D01*
X146948399Y-132919147D01*
X146884423Y-132933623D01*
X146880071Y-132935315D01*
X146880069Y-132935316D01*
X146645176Y-133026660D01*
X146645173Y-133026661D01*
X146640823Y-133028353D01*
X146413902Y-133158049D01*
X146208643Y-133319862D01*
X146029557Y-133510237D01*
X145880576Y-133724991D01*
X145878510Y-133729181D01*
X145878508Y-133729184D01*
X145782509Y-133923852D01*
X145764975Y-133959407D01*
X145685293Y-134208335D01*
X145643279Y-134466307D01*
X145643218Y-134470980D01*
X145640382Y-134687655D01*
X145639858Y-134727655D01*
X55176800Y-134727655D01*
X55179557Y-134517022D01*
X55180081Y-134477022D01*
X55180081Y-134477019D01*
X55180142Y-134472345D01*
X55144896Y-134213362D01*
X55142132Y-134203877D01*
X55073068Y-133966932D01*
X55071757Y-133962433D01*
X54962332Y-133725072D01*
X54847815Y-133550404D01*
X54821590Y-133510404D01*
X54821586Y-133510399D01*
X54819024Y-133506491D01*
X54644982Y-133311494D01*
X54444030Y-133144363D01*
X54396844Y-133115730D01*
X54224578Y-133011196D01*
X54224574Y-133011194D01*
X54220581Y-133008771D01*
X53979545Y-132907697D01*
X53726217Y-132843359D01*
X53721566Y-132842891D01*
X53721562Y-132842890D01*
X53512271Y-132821816D01*
X53509133Y-132821500D01*
X53353646Y-132821500D01*
X53351321Y-132821673D01*
X53351315Y-132821673D01*
X53164000Y-132835593D01*
X53163996Y-132835594D01*
X53159348Y-132835939D01*
X53154800Y-132836968D01*
X53154794Y-132836969D01*
X52978023Y-132876969D01*
X52904423Y-132893623D01*
X52900071Y-132895315D01*
X52900069Y-132895316D01*
X52665176Y-132986660D01*
X52665173Y-132986661D01*
X52660823Y-132988353D01*
X52433902Y-133118049D01*
X52228643Y-133279862D01*
X52049557Y-133470237D01*
X51900576Y-133684991D01*
X51898510Y-133689181D01*
X51898508Y-133689184D01*
X51858991Y-133769318D01*
X51784975Y-133919407D01*
X51783553Y-133923850D01*
X51783552Y-133923852D01*
X51772564Y-133958179D01*
X51705293Y-134168335D01*
X51663279Y-134426307D01*
X51659858Y-134687655D01*
X47538500Y-134687655D01*
X47538500Y-119346695D01*
X72297251Y-119346695D01*
X72297548Y-119351848D01*
X72297548Y-119351851D01*
X72303011Y-119446590D01*
X72310110Y-119569715D01*
X72311247Y-119574761D01*
X72311248Y-119574767D01*
X72318462Y-119606776D01*
X72359222Y-119787639D01*
X72443266Y-119994616D01*
X72559987Y-120185088D01*
X72706250Y-120353938D01*
X72878126Y-120496632D01*
X73071000Y-120609338D01*
X73279692Y-120689030D01*
X73284760Y-120690061D01*
X73284763Y-120690062D01*
X73392017Y-120711883D01*
X73498597Y-120733567D01*
X73503772Y-120733757D01*
X73503774Y-120733757D01*
X73716673Y-120741564D01*
X73716677Y-120741564D01*
X73721837Y-120741753D01*
X73726957Y-120741097D01*
X73726959Y-120741097D01*
X73938288Y-120714025D01*
X73938289Y-120714025D01*
X73943416Y-120713368D01*
X73948366Y-120711883D01*
X74152429Y-120650661D01*
X74152434Y-120650659D01*
X74157384Y-120649174D01*
X74357994Y-120550896D01*
X74539860Y-120421173D01*
X74698096Y-120263489D01*
X74757594Y-120180689D01*
X74825435Y-120086277D01*
X74828453Y-120082077D01*
X74858054Y-120022185D01*
X74925136Y-119886453D01*
X74925137Y-119886451D01*
X74927430Y-119881811D01*
X74992370Y-119668069D01*
X75021529Y-119446590D01*
X75023156Y-119380000D01*
X82544647Y-119380000D01*
X82564022Y-119601463D01*
X82565446Y-119606776D01*
X82615191Y-119792425D01*
X82621560Y-119816196D01*
X82623882Y-119821177D01*
X82623883Y-119821178D01*
X82713186Y-120012689D01*
X82713189Y-120012694D01*
X82715512Y-120017676D01*
X82718668Y-120022183D01*
X82718669Y-120022185D01*
X82829655Y-120180689D01*
X82843023Y-120199781D01*
X83000219Y-120356977D01*
X83004727Y-120360134D01*
X83004730Y-120360136D01*
X83080495Y-120413187D01*
X83182323Y-120484488D01*
X83187305Y-120486811D01*
X83187310Y-120486814D01*
X83378822Y-120576117D01*
X83383804Y-120578440D01*
X83389112Y-120579862D01*
X83389114Y-120579863D01*
X83454949Y-120597503D01*
X83598537Y-120635978D01*
X83820000Y-120655353D01*
X84041463Y-120635978D01*
X84185051Y-120597503D01*
X84250886Y-120579863D01*
X84250888Y-120579862D01*
X84256196Y-120578440D01*
X84261178Y-120576117D01*
X84452690Y-120486814D01*
X84452695Y-120486811D01*
X84457677Y-120484488D01*
X84559505Y-120413187D01*
X84635270Y-120360136D01*
X84635273Y-120360134D01*
X84639781Y-120356977D01*
X84796977Y-120199781D01*
X84810346Y-120180689D01*
X84921331Y-120022185D01*
X84921332Y-120022183D01*
X84924488Y-120017676D01*
X84926811Y-120012694D01*
X84926814Y-120012689D01*
X85016117Y-119821178D01*
X85016118Y-119821177D01*
X85018440Y-119816196D01*
X85024810Y-119792425D01*
X85074554Y-119606776D01*
X85075978Y-119601463D01*
X85095353Y-119380000D01*
X107944647Y-119380000D01*
X107964022Y-119601463D01*
X107965446Y-119606776D01*
X108015191Y-119792425D01*
X108021560Y-119816196D01*
X108023882Y-119821177D01*
X108023883Y-119821178D01*
X108113186Y-120012689D01*
X108113189Y-120012694D01*
X108115512Y-120017676D01*
X108118668Y-120022183D01*
X108118669Y-120022185D01*
X108229655Y-120180689D01*
X108243023Y-120199781D01*
X108400219Y-120356977D01*
X108404727Y-120360134D01*
X108404730Y-120360136D01*
X108480495Y-120413187D01*
X108582323Y-120484488D01*
X108587305Y-120486811D01*
X108587310Y-120486814D01*
X108778822Y-120576117D01*
X108783804Y-120578440D01*
X108789112Y-120579862D01*
X108789114Y-120579863D01*
X108854949Y-120597503D01*
X108998537Y-120635978D01*
X109220000Y-120655353D01*
X109441463Y-120635978D01*
X109585051Y-120597503D01*
X109650886Y-120579863D01*
X109650888Y-120579862D01*
X109656196Y-120578440D01*
X109661178Y-120576117D01*
X109852690Y-120486814D01*
X109852695Y-120486811D01*
X109857677Y-120484488D01*
X109959505Y-120413187D01*
X110035270Y-120360136D01*
X110035273Y-120360134D01*
X110039781Y-120356977D01*
X110196977Y-120199781D01*
X110210346Y-120180689D01*
X110321331Y-120022185D01*
X110321332Y-120022183D01*
X110324488Y-120017676D01*
X110326811Y-120012694D01*
X110326814Y-120012689D01*
X110416117Y-119821178D01*
X110416118Y-119821177D01*
X110418440Y-119816196D01*
X110424810Y-119792425D01*
X110474554Y-119606776D01*
X110475978Y-119601463D01*
X110495353Y-119380000D01*
X110492439Y-119346695D01*
X118017251Y-119346695D01*
X118017548Y-119351848D01*
X118017548Y-119351851D01*
X118023011Y-119446590D01*
X118030110Y-119569715D01*
X118031247Y-119574761D01*
X118031248Y-119574767D01*
X118038462Y-119606776D01*
X118079222Y-119787639D01*
X118163266Y-119994616D01*
X118279987Y-120185088D01*
X118426250Y-120353938D01*
X118598126Y-120496632D01*
X118791000Y-120609338D01*
X118999692Y-120689030D01*
X119004760Y-120690061D01*
X119004763Y-120690062D01*
X119112017Y-120711883D01*
X119218597Y-120733567D01*
X119223772Y-120733757D01*
X119223774Y-120733757D01*
X119436673Y-120741564D01*
X119436677Y-120741564D01*
X119441837Y-120741753D01*
X119446957Y-120741097D01*
X119446959Y-120741097D01*
X119658288Y-120714025D01*
X119658289Y-120714025D01*
X119663416Y-120713368D01*
X119668366Y-120711883D01*
X119872429Y-120650661D01*
X119872434Y-120650659D01*
X119877384Y-120649174D01*
X120077994Y-120550896D01*
X120259860Y-120421173D01*
X120418096Y-120263489D01*
X120477594Y-120180689D01*
X120545435Y-120086277D01*
X120548453Y-120082077D01*
X120578054Y-120022185D01*
X120645136Y-119886453D01*
X120645137Y-119886451D01*
X120647430Y-119881811D01*
X120712370Y-119668069D01*
X120741529Y-119446590D01*
X120743156Y-119380000D01*
X120724852Y-119157361D01*
X120670431Y-118940702D01*
X120581354Y-118735840D01*
X120460014Y-118548277D01*
X120309670Y-118383051D01*
X120305619Y-118379852D01*
X120305615Y-118379848D01*
X120138414Y-118247800D01*
X120138410Y-118247798D01*
X120134359Y-118244598D01*
X120092569Y-118221529D01*
X120042598Y-118171097D01*
X120027826Y-118101654D01*
X120052942Y-118035248D01*
X120080294Y-118008641D01*
X120255328Y-117883792D01*
X120263200Y-117877139D01*
X120414052Y-117726812D01*
X120420730Y-117718965D01*
X120545003Y-117546020D01*
X120550313Y-117537183D01*
X120644670Y-117346267D01*
X120648469Y-117336672D01*
X120710377Y-117132910D01*
X120712555Y-117122837D01*
X120713986Y-117111962D01*
X120711775Y-117097778D01*
X120698617Y-117094000D01*
X118063225Y-117094000D01*
X118049694Y-117097973D01*
X118048257Y-117107966D01*
X118078565Y-117242446D01*
X118081645Y-117252275D01*
X118161770Y-117449603D01*
X118166413Y-117458794D01*
X118277694Y-117640388D01*
X118283777Y-117648699D01*
X118423213Y-117809667D01*
X118430580Y-117816883D01*
X118594434Y-117952916D01*
X118602881Y-117958831D01*
X118671969Y-117999203D01*
X118720693Y-118050842D01*
X118733764Y-118120625D01*
X118707033Y-118186396D01*
X118666584Y-118219752D01*
X118653607Y-118226507D01*
X118649474Y-118229610D01*
X118649471Y-118229612D01*
X118479100Y-118357530D01*
X118474965Y-118360635D01*
X118320629Y-118522138D01*
X118194743Y-118706680D01*
X118100688Y-118909305D01*
X118040989Y-119124570D01*
X118017251Y-119346695D01*
X110492439Y-119346695D01*
X110475978Y-119158537D01*
X110418440Y-118943804D01*
X110416117Y-118938822D01*
X110326814Y-118747311D01*
X110326811Y-118747306D01*
X110324488Y-118742324D01*
X110319948Y-118735840D01*
X110200136Y-118564730D01*
X110200134Y-118564727D01*
X110196977Y-118560219D01*
X110039781Y-118403023D01*
X110035273Y-118399866D01*
X110035270Y-118399864D01*
X109959505Y-118346813D01*
X109857677Y-118275512D01*
X109852695Y-118273189D01*
X109852690Y-118273186D01*
X109747035Y-118223919D01*
X109693750Y-118177002D01*
X109674289Y-118108725D01*
X109694831Y-118040765D01*
X109747035Y-117995529D01*
X109852445Y-117946376D01*
X109861931Y-117940898D01*
X109905764Y-117910207D01*
X109914139Y-117899729D01*
X109907071Y-117886281D01*
X109232812Y-117212022D01*
X109218868Y-117204408D01*
X109217035Y-117204539D01*
X109210420Y-117208790D01*
X108532207Y-117887003D01*
X108525777Y-117898777D01*
X108535074Y-117910793D01*
X108578069Y-117940898D01*
X108587555Y-117946376D01*
X108692965Y-117995529D01*
X108746250Y-118042446D01*
X108765711Y-118110723D01*
X108745169Y-118178683D01*
X108692965Y-118223919D01*
X108587311Y-118273186D01*
X108587306Y-118273189D01*
X108582324Y-118275512D01*
X108577817Y-118278668D01*
X108577815Y-118278669D01*
X108404730Y-118399864D01*
X108404727Y-118399866D01*
X108400219Y-118403023D01*
X108243023Y-118560219D01*
X108239866Y-118564727D01*
X108239864Y-118564730D01*
X108120052Y-118735840D01*
X108115512Y-118742324D01*
X108113189Y-118747306D01*
X108113186Y-118747311D01*
X108023883Y-118938822D01*
X108021560Y-118943804D01*
X107964022Y-119158537D01*
X107944647Y-119380000D01*
X85095353Y-119380000D01*
X85075978Y-119158537D01*
X85018440Y-118943804D01*
X85016117Y-118938822D01*
X84926814Y-118747311D01*
X84926811Y-118747306D01*
X84924488Y-118742324D01*
X84919948Y-118735840D01*
X84800136Y-118564730D01*
X84800134Y-118564727D01*
X84796977Y-118560219D01*
X84639781Y-118403023D01*
X84635273Y-118399866D01*
X84635270Y-118399864D01*
X84559505Y-118346813D01*
X84457677Y-118275512D01*
X84452695Y-118273189D01*
X84452690Y-118273186D01*
X84347035Y-118223919D01*
X84293750Y-118177002D01*
X84274289Y-118108725D01*
X84294831Y-118040765D01*
X84347035Y-117995529D01*
X84452445Y-117946376D01*
X84461931Y-117940898D01*
X84505764Y-117910207D01*
X84514139Y-117899729D01*
X84507071Y-117886281D01*
X83832812Y-117212022D01*
X83818868Y-117204408D01*
X83817035Y-117204539D01*
X83810420Y-117208790D01*
X83132207Y-117887003D01*
X83125777Y-117898777D01*
X83135074Y-117910793D01*
X83178069Y-117940898D01*
X83187555Y-117946376D01*
X83292965Y-117995529D01*
X83346250Y-118042446D01*
X83365711Y-118110723D01*
X83345169Y-118178683D01*
X83292965Y-118223919D01*
X83187311Y-118273186D01*
X83187306Y-118273189D01*
X83182324Y-118275512D01*
X83177817Y-118278668D01*
X83177815Y-118278669D01*
X83004730Y-118399864D01*
X83004727Y-118399866D01*
X83000219Y-118403023D01*
X82843023Y-118560219D01*
X82839866Y-118564727D01*
X82839864Y-118564730D01*
X82720052Y-118735840D01*
X82715512Y-118742324D01*
X82713189Y-118747306D01*
X82713186Y-118747311D01*
X82623883Y-118938822D01*
X82621560Y-118943804D01*
X82564022Y-119158537D01*
X82544647Y-119380000D01*
X75023156Y-119380000D01*
X75004852Y-119157361D01*
X74950431Y-118940702D01*
X74861354Y-118735840D01*
X74740014Y-118548277D01*
X74589670Y-118383051D01*
X74585619Y-118379852D01*
X74585615Y-118379848D01*
X74418414Y-118247800D01*
X74418410Y-118247798D01*
X74414359Y-118244598D01*
X74372569Y-118221529D01*
X74322598Y-118171097D01*
X74307826Y-118101654D01*
X74332942Y-118035248D01*
X74360294Y-118008641D01*
X74535328Y-117883792D01*
X74543200Y-117877139D01*
X74694052Y-117726812D01*
X74700730Y-117718965D01*
X74825003Y-117546020D01*
X74830313Y-117537183D01*
X74924670Y-117346267D01*
X74928469Y-117336672D01*
X74990377Y-117132910D01*
X74992555Y-117122837D01*
X74993986Y-117111962D01*
X74991775Y-117097778D01*
X74978617Y-117094000D01*
X72343225Y-117094000D01*
X72329694Y-117097973D01*
X72328257Y-117107966D01*
X72358565Y-117242446D01*
X72361645Y-117252275D01*
X72441770Y-117449603D01*
X72446413Y-117458794D01*
X72557694Y-117640388D01*
X72563777Y-117648699D01*
X72703213Y-117809667D01*
X72710580Y-117816883D01*
X72874434Y-117952916D01*
X72882881Y-117958831D01*
X72951969Y-117999203D01*
X73000693Y-118050842D01*
X73013764Y-118120625D01*
X72987033Y-118186396D01*
X72946584Y-118219752D01*
X72933607Y-118226507D01*
X72929474Y-118229610D01*
X72929471Y-118229612D01*
X72759100Y-118357530D01*
X72754965Y-118360635D01*
X72600629Y-118522138D01*
X72474743Y-118706680D01*
X72380688Y-118909305D01*
X72320989Y-119124570D01*
X72297251Y-119346695D01*
X47538500Y-119346695D01*
X47538500Y-116845475D01*
X82545628Y-116845475D01*
X82564038Y-117055896D01*
X82565941Y-117066691D01*
X82620609Y-117270715D01*
X82624355Y-117281007D01*
X82713623Y-117472441D01*
X82719103Y-117481932D01*
X82749794Y-117525765D01*
X82760271Y-117534140D01*
X82773718Y-117527072D01*
X83447978Y-116852812D01*
X83454356Y-116841132D01*
X84184408Y-116841132D01*
X84184539Y-116842965D01*
X84188790Y-116849580D01*
X84867003Y-117527793D01*
X84878777Y-117534223D01*
X84890793Y-117524926D01*
X84920897Y-117481932D01*
X84926377Y-117472441D01*
X85015645Y-117281007D01*
X85019391Y-117270715D01*
X85074059Y-117066691D01*
X85075962Y-117055896D01*
X85094372Y-116845475D01*
X107945628Y-116845475D01*
X107964038Y-117055896D01*
X107965941Y-117066691D01*
X108020609Y-117270715D01*
X108024355Y-117281007D01*
X108113623Y-117472441D01*
X108119103Y-117481932D01*
X108149794Y-117525765D01*
X108160271Y-117534140D01*
X108173718Y-117527072D01*
X108847978Y-116852812D01*
X108854356Y-116841132D01*
X109584408Y-116841132D01*
X109584539Y-116842965D01*
X109588790Y-116849580D01*
X110267003Y-117527793D01*
X110278777Y-117534223D01*
X110290793Y-117524926D01*
X110320897Y-117481932D01*
X110326377Y-117472441D01*
X110415645Y-117281007D01*
X110419391Y-117270715D01*
X110474059Y-117066691D01*
X110475962Y-117055896D01*
X110494372Y-116845475D01*
X110494372Y-116834525D01*
X110475962Y-116624104D01*
X110474059Y-116613309D01*
X110419391Y-116409285D01*
X110415645Y-116398993D01*
X110326377Y-116207559D01*
X110320897Y-116198068D01*
X110290206Y-116154235D01*
X110279729Y-116145860D01*
X110266282Y-116152928D01*
X109592022Y-116827188D01*
X109584408Y-116841132D01*
X108854356Y-116841132D01*
X108855592Y-116838868D01*
X108855461Y-116837035D01*
X108851210Y-116830420D01*
X108172997Y-116152207D01*
X108161223Y-116145777D01*
X108149207Y-116155074D01*
X108119103Y-116198068D01*
X108113623Y-116207559D01*
X108024355Y-116398993D01*
X108020609Y-116409285D01*
X107965941Y-116613309D01*
X107964038Y-116624104D01*
X107945628Y-116834525D01*
X107945628Y-116845475D01*
X85094372Y-116845475D01*
X85094372Y-116834525D01*
X85075962Y-116624104D01*
X85074059Y-116613309D01*
X85019391Y-116409285D01*
X85015645Y-116398993D01*
X84926377Y-116207559D01*
X84920897Y-116198068D01*
X84890206Y-116154235D01*
X84879729Y-116145860D01*
X84866282Y-116152928D01*
X84192022Y-116827188D01*
X84184408Y-116841132D01*
X83454356Y-116841132D01*
X83455592Y-116838868D01*
X83455461Y-116837035D01*
X83451210Y-116830420D01*
X82772997Y-116152207D01*
X82761223Y-116145777D01*
X82749207Y-116155074D01*
X82719103Y-116198068D01*
X82713623Y-116207559D01*
X82624355Y-116398993D01*
X82620609Y-116409285D01*
X82565941Y-116613309D01*
X82564038Y-116624104D01*
X82545628Y-116834525D01*
X82545628Y-116845475D01*
X47538500Y-116845475D01*
X47538500Y-114266695D01*
X72297251Y-114266695D01*
X72297548Y-114271848D01*
X72297548Y-114271851D01*
X72303011Y-114366590D01*
X72310110Y-114489715D01*
X72311247Y-114494761D01*
X72311248Y-114494767D01*
X72318462Y-114526776D01*
X72359222Y-114707639D01*
X72443266Y-114914616D01*
X72559987Y-115105088D01*
X72706250Y-115273938D01*
X72878126Y-115416632D01*
X72945635Y-115456081D01*
X72951955Y-115459774D01*
X73000679Y-115511412D01*
X73013750Y-115581195D01*
X72987019Y-115646967D01*
X72946562Y-115680327D01*
X72938457Y-115684546D01*
X72929738Y-115690036D01*
X72759433Y-115817905D01*
X72751726Y-115824748D01*
X72604590Y-115978717D01*
X72598104Y-115986727D01*
X72478098Y-116162649D01*
X72473000Y-116171623D01*
X72383338Y-116364783D01*
X72379775Y-116374470D01*
X72324389Y-116574183D01*
X72325912Y-116582607D01*
X72338292Y-116586000D01*
X74978344Y-116586000D01*
X74991875Y-116582027D01*
X74993180Y-116572947D01*
X74951214Y-116405875D01*
X74947894Y-116396124D01*
X74862972Y-116200814D01*
X74858105Y-116191739D01*
X74742426Y-116012926D01*
X74736136Y-116004757D01*
X74592806Y-115847240D01*
X74585273Y-115840215D01*
X74418139Y-115708222D01*
X74409556Y-115702520D01*
X74372602Y-115682120D01*
X74322631Y-115631687D01*
X74307859Y-115562245D01*
X74332975Y-115495839D01*
X74360327Y-115469232D01*
X74383797Y-115452491D01*
X74539860Y-115341173D01*
X74698096Y-115183489D01*
X74757594Y-115100689D01*
X74825435Y-115006277D01*
X74828453Y-115002077D01*
X74858054Y-114942185D01*
X74925136Y-114806453D01*
X74925137Y-114806451D01*
X74927430Y-114801811D01*
X74992370Y-114588069D01*
X75021529Y-114366590D01*
X75023156Y-114300000D01*
X82544647Y-114300000D01*
X82564022Y-114521463D01*
X82565446Y-114526776D01*
X82615191Y-114712425D01*
X82621560Y-114736196D01*
X82623882Y-114741177D01*
X82623883Y-114741178D01*
X82713186Y-114932689D01*
X82713189Y-114932694D01*
X82715512Y-114937676D01*
X82718668Y-114942183D01*
X82718669Y-114942185D01*
X82829655Y-115100689D01*
X82843023Y-115119781D01*
X83000219Y-115276977D01*
X83004727Y-115280134D01*
X83004730Y-115280136D01*
X83080495Y-115333187D01*
X83182323Y-115404488D01*
X83187305Y-115406811D01*
X83187310Y-115406814D01*
X83292965Y-115456081D01*
X83346250Y-115502998D01*
X83365711Y-115571275D01*
X83345169Y-115639235D01*
X83292965Y-115684471D01*
X83187559Y-115733623D01*
X83178068Y-115739103D01*
X83134235Y-115769794D01*
X83125860Y-115780271D01*
X83132928Y-115793718D01*
X83807188Y-116467978D01*
X83821132Y-116475592D01*
X83822965Y-116475461D01*
X83829580Y-116471210D01*
X84507793Y-115792997D01*
X84514223Y-115781223D01*
X84504926Y-115769207D01*
X84461931Y-115739102D01*
X84452445Y-115733624D01*
X84347035Y-115684471D01*
X84293750Y-115637554D01*
X84274289Y-115569277D01*
X84294831Y-115501317D01*
X84347035Y-115456081D01*
X84452690Y-115406814D01*
X84452695Y-115406811D01*
X84457677Y-115404488D01*
X84559505Y-115333187D01*
X84635270Y-115280136D01*
X84635273Y-115280134D01*
X84639781Y-115276977D01*
X84796977Y-115119781D01*
X84810346Y-115100689D01*
X84921331Y-114942185D01*
X84921332Y-114942183D01*
X84924488Y-114937676D01*
X84926811Y-114932694D01*
X84926814Y-114932689D01*
X85016117Y-114741178D01*
X85016118Y-114741177D01*
X85018440Y-114736196D01*
X85024810Y-114712425D01*
X85074554Y-114526776D01*
X85075978Y-114521463D01*
X85095353Y-114300000D01*
X107944647Y-114300000D01*
X107964022Y-114521463D01*
X107965446Y-114526776D01*
X108015191Y-114712425D01*
X108021560Y-114736196D01*
X108023882Y-114741177D01*
X108023883Y-114741178D01*
X108113186Y-114932689D01*
X108113189Y-114932694D01*
X108115512Y-114937676D01*
X108118668Y-114942183D01*
X108118669Y-114942185D01*
X108229655Y-115100689D01*
X108243023Y-115119781D01*
X108400219Y-115276977D01*
X108404727Y-115280134D01*
X108404730Y-115280136D01*
X108480495Y-115333187D01*
X108582323Y-115404488D01*
X108587305Y-115406811D01*
X108587310Y-115406814D01*
X108692965Y-115456081D01*
X108746250Y-115502998D01*
X108765711Y-115571275D01*
X108745169Y-115639235D01*
X108692965Y-115684471D01*
X108587559Y-115733623D01*
X108578068Y-115739103D01*
X108534235Y-115769794D01*
X108525860Y-115780271D01*
X108532928Y-115793718D01*
X109207188Y-116467978D01*
X109221132Y-116475592D01*
X109222965Y-116475461D01*
X109229580Y-116471210D01*
X109907793Y-115792997D01*
X109914223Y-115781223D01*
X109904926Y-115769207D01*
X109861931Y-115739102D01*
X109852445Y-115733624D01*
X109747035Y-115684471D01*
X109693750Y-115637554D01*
X109674289Y-115569277D01*
X109694831Y-115501317D01*
X109747035Y-115456081D01*
X109852690Y-115406814D01*
X109852695Y-115406811D01*
X109857677Y-115404488D01*
X109959505Y-115333187D01*
X110035270Y-115280136D01*
X110035273Y-115280134D01*
X110039781Y-115276977D01*
X110196977Y-115119781D01*
X110210346Y-115100689D01*
X110321331Y-114942185D01*
X110321332Y-114942183D01*
X110324488Y-114937676D01*
X110326811Y-114932694D01*
X110326814Y-114932689D01*
X110416117Y-114741178D01*
X110416118Y-114741177D01*
X110418440Y-114736196D01*
X110424810Y-114712425D01*
X110474554Y-114526776D01*
X110475978Y-114521463D01*
X110495353Y-114300000D01*
X110492439Y-114266695D01*
X118017251Y-114266695D01*
X118017548Y-114271848D01*
X118017548Y-114271851D01*
X118023011Y-114366590D01*
X118030110Y-114489715D01*
X118031247Y-114494761D01*
X118031248Y-114494767D01*
X118038462Y-114526776D01*
X118079222Y-114707639D01*
X118163266Y-114914616D01*
X118279987Y-115105088D01*
X118426250Y-115273938D01*
X118598126Y-115416632D01*
X118665635Y-115456081D01*
X118671955Y-115459774D01*
X118720679Y-115511412D01*
X118733750Y-115581195D01*
X118707019Y-115646967D01*
X118666562Y-115680327D01*
X118658457Y-115684546D01*
X118649738Y-115690036D01*
X118479433Y-115817905D01*
X118471726Y-115824748D01*
X118324590Y-115978717D01*
X118318104Y-115986727D01*
X118198098Y-116162649D01*
X118193000Y-116171623D01*
X118103338Y-116364783D01*
X118099775Y-116374470D01*
X118044389Y-116574183D01*
X118045912Y-116582607D01*
X118058292Y-116586000D01*
X120698344Y-116586000D01*
X120711875Y-116582027D01*
X120713180Y-116572947D01*
X120671214Y-116405875D01*
X120667894Y-116396124D01*
X120582972Y-116200814D01*
X120578105Y-116191739D01*
X120462426Y-116012926D01*
X120456136Y-116004757D01*
X120312806Y-115847240D01*
X120305273Y-115840215D01*
X120138139Y-115708222D01*
X120129556Y-115702520D01*
X120092602Y-115682120D01*
X120042631Y-115631687D01*
X120027859Y-115562245D01*
X120052975Y-115495839D01*
X120080327Y-115469232D01*
X120103797Y-115452491D01*
X120259860Y-115341173D01*
X120418096Y-115183489D01*
X120477594Y-115100689D01*
X120545435Y-115006277D01*
X120548453Y-115002077D01*
X120578054Y-114942185D01*
X120645136Y-114806453D01*
X120645137Y-114806451D01*
X120647430Y-114801811D01*
X120712370Y-114588069D01*
X120741529Y-114366590D01*
X120743156Y-114300000D01*
X120724852Y-114077361D01*
X120670431Y-113860702D01*
X120581354Y-113655840D01*
X120460014Y-113468277D01*
X120309670Y-113303051D01*
X120305619Y-113299852D01*
X120305615Y-113299848D01*
X120138414Y-113167800D01*
X120138410Y-113167798D01*
X120134359Y-113164598D01*
X120093053Y-113141796D01*
X120043084Y-113091364D01*
X120028312Y-113021921D01*
X120053428Y-112955516D01*
X120080780Y-112928909D01*
X120124603Y-112897650D01*
X120259860Y-112801173D01*
X120418096Y-112643489D01*
X120477594Y-112560689D01*
X120545435Y-112466277D01*
X120548453Y-112462077D01*
X120578054Y-112402185D01*
X120645136Y-112266453D01*
X120645137Y-112266451D01*
X120647430Y-112261811D01*
X120712370Y-112048069D01*
X120741529Y-111826590D01*
X120743156Y-111760000D01*
X120724852Y-111537361D01*
X120670431Y-111320702D01*
X120581354Y-111115840D01*
X120460014Y-110928277D01*
X120309670Y-110763051D01*
X120305619Y-110759852D01*
X120305615Y-110759848D01*
X120138414Y-110627800D01*
X120138410Y-110627798D01*
X120134359Y-110624598D01*
X120093053Y-110601796D01*
X120043084Y-110551364D01*
X120028312Y-110481921D01*
X120053428Y-110415516D01*
X120080780Y-110388909D01*
X120124603Y-110357650D01*
X120259860Y-110261173D01*
X120418096Y-110103489D01*
X120477594Y-110020689D01*
X120545435Y-109926277D01*
X120548453Y-109922077D01*
X120578054Y-109862185D01*
X120645136Y-109726453D01*
X120645137Y-109726451D01*
X120647430Y-109721811D01*
X120712370Y-109508069D01*
X120741529Y-109286590D01*
X120743156Y-109220000D01*
X120724852Y-108997361D01*
X120670431Y-108780702D01*
X120581354Y-108575840D01*
X120460014Y-108388277D01*
X120309670Y-108223051D01*
X120305619Y-108219852D01*
X120305615Y-108219848D01*
X120138414Y-108087800D01*
X120138410Y-108087798D01*
X120134359Y-108084598D01*
X120093053Y-108061796D01*
X120043084Y-108011364D01*
X120028312Y-107941921D01*
X120053428Y-107875516D01*
X120080780Y-107848909D01*
X120124603Y-107817650D01*
X120259860Y-107721173D01*
X120267121Y-107713938D01*
X120414435Y-107567137D01*
X120418096Y-107563489D01*
X120431319Y-107545088D01*
X120545435Y-107386277D01*
X120548453Y-107382077D01*
X120559849Y-107359020D01*
X120645136Y-107186453D01*
X120645137Y-107186451D01*
X120647430Y-107181811D01*
X120712370Y-106968069D01*
X120741529Y-106746590D01*
X120743156Y-106680000D01*
X120724852Y-106457361D01*
X120670431Y-106240702D01*
X120581354Y-106035840D01*
X120541906Y-105974862D01*
X120462822Y-105852617D01*
X120462820Y-105852614D01*
X120460014Y-105848277D01*
X120309670Y-105683051D01*
X120305619Y-105679852D01*
X120305615Y-105679848D01*
X120138414Y-105547800D01*
X120138410Y-105547798D01*
X120134359Y-105544598D01*
X120093053Y-105521796D01*
X120043084Y-105471364D01*
X120028312Y-105401921D01*
X120053428Y-105335516D01*
X120080780Y-105308909D01*
X120124603Y-105277650D01*
X120259860Y-105181173D01*
X120418096Y-105023489D01*
X120452876Y-104975088D01*
X120545435Y-104846277D01*
X120548453Y-104842077D01*
X120578054Y-104782185D01*
X120645136Y-104646453D01*
X120645137Y-104646451D01*
X120647430Y-104641811D01*
X120703255Y-104458069D01*
X120710865Y-104433023D01*
X120710865Y-104433021D01*
X120712370Y-104428069D01*
X120741529Y-104206590D01*
X120743156Y-104140000D01*
X120742884Y-104136695D01*
X133282251Y-104136695D01*
X133282548Y-104141848D01*
X133282548Y-104141851D01*
X133294812Y-104354547D01*
X133295110Y-104359715D01*
X133296247Y-104364761D01*
X133296248Y-104364767D01*
X133296701Y-104366776D01*
X133344222Y-104577639D01*
X133382461Y-104671811D01*
X133417873Y-104759020D01*
X133428266Y-104784616D01*
X133430965Y-104789020D01*
X133532843Y-104955270D01*
X133544987Y-104975088D01*
X133691250Y-105143938D01*
X133863126Y-105286632D01*
X134056000Y-105399338D01*
X134264692Y-105479030D01*
X134269760Y-105480061D01*
X134269763Y-105480062D01*
X134377017Y-105501883D01*
X134483597Y-105523567D01*
X134488772Y-105523757D01*
X134488774Y-105523757D01*
X134701673Y-105531564D01*
X134701677Y-105531564D01*
X134706837Y-105531753D01*
X134711957Y-105531097D01*
X134711959Y-105531097D01*
X134923288Y-105504025D01*
X134923289Y-105504025D01*
X134928416Y-105503368D01*
X134950848Y-105496638D01*
X135137429Y-105440661D01*
X135137434Y-105440659D01*
X135142384Y-105439174D01*
X135342994Y-105340896D01*
X135524860Y-105211173D01*
X135683096Y-105053489D01*
X135742594Y-104970689D01*
X135810435Y-104876277D01*
X135813453Y-104872077D01*
X135844330Y-104809603D01*
X135910136Y-104676453D01*
X135910137Y-104676451D01*
X135912430Y-104671811D01*
X135951689Y-104542596D01*
X135975865Y-104463023D01*
X135975865Y-104463021D01*
X135977370Y-104458069D01*
X136006529Y-104236590D01*
X136008156Y-104170000D01*
X135989852Y-103947361D01*
X135935431Y-103730702D01*
X135846354Y-103525840D01*
X135805313Y-103462401D01*
X135727822Y-103342617D01*
X135727820Y-103342614D01*
X135725014Y-103338277D01*
X135574670Y-103173051D01*
X135570619Y-103169852D01*
X135570615Y-103169848D01*
X135403414Y-103037800D01*
X135403410Y-103037798D01*
X135399359Y-103034598D01*
X135357569Y-103011529D01*
X135307598Y-102961097D01*
X135292826Y-102891654D01*
X135317942Y-102825248D01*
X135345294Y-102798641D01*
X135520328Y-102673792D01*
X135528200Y-102667139D01*
X135679052Y-102516812D01*
X135685730Y-102508965D01*
X135810003Y-102336020D01*
X135815313Y-102327183D01*
X135909670Y-102136267D01*
X135913469Y-102126672D01*
X135975377Y-101922910D01*
X135977555Y-101912837D01*
X135978986Y-101901962D01*
X135976775Y-101887778D01*
X135963617Y-101884000D01*
X133328225Y-101884000D01*
X133314694Y-101887973D01*
X133313257Y-101897966D01*
X133343565Y-102032446D01*
X133346645Y-102042275D01*
X133426770Y-102239603D01*
X133431413Y-102248794D01*
X133542694Y-102430388D01*
X133548777Y-102438699D01*
X133688213Y-102599667D01*
X133695580Y-102606883D01*
X133859434Y-102742916D01*
X133867881Y-102748831D01*
X133936969Y-102789203D01*
X133985693Y-102840842D01*
X133998764Y-102910625D01*
X133972033Y-102976396D01*
X133931584Y-103009752D01*
X133918607Y-103016507D01*
X133914474Y-103019610D01*
X133914471Y-103019612D01*
X133744100Y-103147530D01*
X133739965Y-103150635D01*
X133736393Y-103154373D01*
X133589319Y-103308277D01*
X133585629Y-103312138D01*
X133582715Y-103316410D01*
X133582714Y-103316411D01*
X133577039Y-103324730D01*
X133459743Y-103496680D01*
X133365688Y-103699305D01*
X133305989Y-103914570D01*
X133282251Y-104136695D01*
X120742884Y-104136695D01*
X120724852Y-103917361D01*
X120670431Y-103700702D01*
X120581354Y-103495840D01*
X120496553Y-103364757D01*
X120462822Y-103312617D01*
X120462820Y-103312614D01*
X120460014Y-103308277D01*
X120309670Y-103143051D01*
X120305619Y-103139852D01*
X120305615Y-103139848D01*
X120138414Y-103007800D01*
X120138410Y-103007798D01*
X120134359Y-103004598D01*
X120093053Y-102981796D01*
X120043084Y-102931364D01*
X120028312Y-102861921D01*
X120053428Y-102795516D01*
X120080780Y-102768909D01*
X120124603Y-102737650D01*
X120259860Y-102641173D01*
X120267121Y-102633938D01*
X120414435Y-102487137D01*
X120418096Y-102483489D01*
X120431319Y-102465088D01*
X120545435Y-102306277D01*
X120548453Y-102302077D01*
X120559849Y-102279020D01*
X120645136Y-102106453D01*
X120645137Y-102106451D01*
X120647430Y-102101811D01*
X120695699Y-101942939D01*
X120710865Y-101893023D01*
X120710865Y-101893021D01*
X120712370Y-101888069D01*
X120741529Y-101666590D01*
X120743156Y-101600000D01*
X120724852Y-101377361D01*
X120670431Y-101160702D01*
X120581354Y-100955840D01*
X120541906Y-100894862D01*
X120462822Y-100772617D01*
X120462820Y-100772614D01*
X120460014Y-100768277D01*
X120309670Y-100603051D01*
X120305619Y-100599852D01*
X120305615Y-100599848D01*
X120138414Y-100467800D01*
X120138410Y-100467798D01*
X120134359Y-100464598D01*
X120093053Y-100441796D01*
X120043084Y-100391364D01*
X120028312Y-100321921D01*
X120053428Y-100255516D01*
X120080780Y-100228909D01*
X120124603Y-100197650D01*
X120259860Y-100101173D01*
X120267121Y-100093938D01*
X120414435Y-99947137D01*
X120418096Y-99943489D01*
X120431319Y-99925088D01*
X120545435Y-99766277D01*
X120548453Y-99762077D01*
X120559849Y-99739020D01*
X120645136Y-99566453D01*
X120645137Y-99566451D01*
X120647430Y-99561811D01*
X120712370Y-99348069D01*
X120741529Y-99126590D01*
X120743156Y-99060000D01*
X120742884Y-99056695D01*
X133282251Y-99056695D01*
X133282548Y-99061848D01*
X133282548Y-99061851D01*
X133294812Y-99274547D01*
X133295110Y-99279715D01*
X133296247Y-99284761D01*
X133296248Y-99284767D01*
X133303009Y-99314767D01*
X133344222Y-99497639D01*
X133382461Y-99591811D01*
X133417873Y-99679020D01*
X133428266Y-99704616D01*
X133446650Y-99734616D01*
X133532843Y-99875270D01*
X133544987Y-99895088D01*
X133691250Y-100063938D01*
X133863126Y-100206632D01*
X133878824Y-100215805D01*
X133936955Y-100249774D01*
X133985679Y-100301412D01*
X133998750Y-100371195D01*
X133972019Y-100436967D01*
X133931562Y-100470327D01*
X133923457Y-100474546D01*
X133914738Y-100480036D01*
X133744433Y-100607905D01*
X133736726Y-100614748D01*
X133589590Y-100768717D01*
X133583104Y-100776727D01*
X133463098Y-100952649D01*
X133458000Y-100961623D01*
X133368338Y-101154783D01*
X133364775Y-101164470D01*
X133309389Y-101364183D01*
X133310912Y-101372607D01*
X133323292Y-101376000D01*
X135963344Y-101376000D01*
X135976875Y-101372027D01*
X135978180Y-101362947D01*
X135936214Y-101195875D01*
X135932894Y-101186124D01*
X135847972Y-100990814D01*
X135843105Y-100981739D01*
X135727426Y-100802926D01*
X135721136Y-100794757D01*
X135577806Y-100637240D01*
X135570273Y-100630215D01*
X135403139Y-100498222D01*
X135394556Y-100492520D01*
X135357602Y-100472120D01*
X135307631Y-100421687D01*
X135292859Y-100352245D01*
X135317975Y-100285839D01*
X135345327Y-100259232D01*
X135377011Y-100236632D01*
X135524860Y-100131173D01*
X135683096Y-99973489D01*
X135717876Y-99925088D01*
X135810435Y-99796277D01*
X135813453Y-99792077D01*
X135862574Y-99692689D01*
X135910136Y-99596453D01*
X135910137Y-99596451D01*
X135912430Y-99591811D01*
X135977370Y-99378069D01*
X136006529Y-99156590D01*
X136008156Y-99090000D01*
X135989852Y-98867361D01*
X135935431Y-98650702D01*
X135846354Y-98445840D01*
X135753674Y-98302578D01*
X135727822Y-98262617D01*
X135727820Y-98262614D01*
X135725014Y-98258277D01*
X135574670Y-98093051D01*
X135570619Y-98089852D01*
X135570615Y-98089848D01*
X135403414Y-97957800D01*
X135403410Y-97957798D01*
X135399359Y-97954598D01*
X135358053Y-97931796D01*
X135308084Y-97881364D01*
X135293312Y-97811921D01*
X135318428Y-97745516D01*
X135345780Y-97718909D01*
X135406210Y-97675805D01*
X135524860Y-97591173D01*
X135565402Y-97550773D01*
X135679435Y-97437137D01*
X135683096Y-97433489D01*
X135717876Y-97385088D01*
X135810435Y-97256277D01*
X135813453Y-97252077D01*
X135849086Y-97179980D01*
X135910136Y-97056453D01*
X135910137Y-97056451D01*
X135912430Y-97051811D01*
X135958339Y-96900706D01*
X135975865Y-96843023D01*
X135975865Y-96843021D01*
X135977370Y-96838069D01*
X136006529Y-96616590D01*
X136008156Y-96550000D01*
X135989852Y-96327361D01*
X135935431Y-96110702D01*
X135846354Y-95905840D01*
X135805313Y-95842401D01*
X135727822Y-95722617D01*
X135727820Y-95722614D01*
X135725014Y-95718277D01*
X135574670Y-95553051D01*
X135570619Y-95549852D01*
X135570615Y-95549848D01*
X135403414Y-95417800D01*
X135403410Y-95417798D01*
X135399359Y-95414598D01*
X135358053Y-95391796D01*
X135308084Y-95341364D01*
X135293312Y-95271921D01*
X135318428Y-95205516D01*
X135345780Y-95178909D01*
X135406210Y-95135805D01*
X135524860Y-95051173D01*
X135683096Y-94893489D01*
X135717876Y-94845088D01*
X135810435Y-94716277D01*
X135813453Y-94712077D01*
X135839493Y-94659390D01*
X135910136Y-94516453D01*
X135910137Y-94516451D01*
X135912430Y-94511811D01*
X135977370Y-94298069D01*
X136006529Y-94076590D01*
X136008156Y-94010000D01*
X135989852Y-93787361D01*
X135935431Y-93570702D01*
X135846354Y-93365840D01*
X135725014Y-93178277D01*
X135574670Y-93013051D01*
X135570619Y-93009852D01*
X135570615Y-93009848D01*
X135403414Y-92877800D01*
X135403410Y-92877798D01*
X135399359Y-92874598D01*
X135358053Y-92851796D01*
X135308084Y-92801364D01*
X135293312Y-92731921D01*
X135318428Y-92665516D01*
X135345780Y-92638909D01*
X135406210Y-92595805D01*
X135524860Y-92511173D01*
X135683096Y-92353489D01*
X135717876Y-92305088D01*
X135810435Y-92176277D01*
X135813453Y-92172077D01*
X135862574Y-92072689D01*
X135910136Y-91976453D01*
X135910137Y-91976451D01*
X135912430Y-91971811D01*
X135977370Y-91758069D01*
X136006529Y-91536590D01*
X136008156Y-91470000D01*
X135989852Y-91247361D01*
X135935431Y-91030702D01*
X135846354Y-90825840D01*
X135725014Y-90638277D01*
X135574670Y-90473051D01*
X135570619Y-90469852D01*
X135570615Y-90469848D01*
X135403414Y-90337800D01*
X135403410Y-90337798D01*
X135399359Y-90334598D01*
X135358053Y-90311796D01*
X135308084Y-90261364D01*
X135293312Y-90191921D01*
X135318428Y-90125516D01*
X135345780Y-90098909D01*
X135406210Y-90055805D01*
X135524860Y-89971173D01*
X135683096Y-89813489D01*
X135717876Y-89765088D01*
X135810435Y-89636277D01*
X135813453Y-89632077D01*
X135862574Y-89532689D01*
X135910136Y-89436453D01*
X135910137Y-89436451D01*
X135912430Y-89431811D01*
X135977370Y-89218069D01*
X136006529Y-88996590D01*
X136008156Y-88930000D01*
X135989852Y-88707361D01*
X135935431Y-88490702D01*
X135846354Y-88285840D01*
X135725014Y-88098277D01*
X135574670Y-87933051D01*
X135570619Y-87929852D01*
X135570615Y-87929848D01*
X135403414Y-87797800D01*
X135403410Y-87797798D01*
X135399359Y-87794598D01*
X135358053Y-87771796D01*
X135308084Y-87721364D01*
X135293312Y-87651921D01*
X135318428Y-87585516D01*
X135345780Y-87558909D01*
X135406210Y-87515805D01*
X135524860Y-87431173D01*
X135683096Y-87273489D01*
X135717876Y-87225088D01*
X135810435Y-87096277D01*
X135813453Y-87092077D01*
X135862574Y-86992689D01*
X135910136Y-86896453D01*
X135910137Y-86896451D01*
X135912430Y-86891811D01*
X135977370Y-86678069D01*
X136006529Y-86456590D01*
X136008156Y-86390000D01*
X135989852Y-86167361D01*
X135935431Y-85950702D01*
X135846354Y-85745840D01*
X135725014Y-85558277D01*
X135574670Y-85393051D01*
X135570619Y-85389852D01*
X135570615Y-85389848D01*
X135403414Y-85257800D01*
X135403410Y-85257798D01*
X135399359Y-85254598D01*
X135358053Y-85231796D01*
X135308084Y-85181364D01*
X135293312Y-85111921D01*
X135318428Y-85045516D01*
X135345780Y-85018909D01*
X135406210Y-84975805D01*
X135524860Y-84891173D01*
X135683096Y-84733489D01*
X135717876Y-84685088D01*
X135810435Y-84556277D01*
X135813453Y-84552077D01*
X135862574Y-84452689D01*
X135910136Y-84356453D01*
X135910137Y-84356451D01*
X135912430Y-84351811D01*
X135977370Y-84138069D01*
X136006529Y-83916590D01*
X136008156Y-83850000D01*
X135989852Y-83627361D01*
X135935431Y-83410702D01*
X135846354Y-83205840D01*
X135725014Y-83018277D01*
X135574670Y-82853051D01*
X135570619Y-82849852D01*
X135570615Y-82849848D01*
X135403414Y-82717800D01*
X135403410Y-82717798D01*
X135399359Y-82714598D01*
X135358053Y-82691796D01*
X135308084Y-82641364D01*
X135293312Y-82571921D01*
X135318428Y-82505516D01*
X135345780Y-82478909D01*
X135389603Y-82447650D01*
X135524860Y-82351173D01*
X135683096Y-82193489D01*
X135717876Y-82145088D01*
X135810435Y-82016277D01*
X135813453Y-82012077D01*
X135912430Y-81811811D01*
X135977370Y-81598069D01*
X136006529Y-81376590D01*
X136008156Y-81310000D01*
X135989852Y-81087361D01*
X135935431Y-80870702D01*
X135846354Y-80665840D01*
X135725014Y-80478277D01*
X135574670Y-80313051D01*
X135570619Y-80309852D01*
X135570615Y-80309848D01*
X135403414Y-80177800D01*
X135403410Y-80177798D01*
X135399359Y-80174598D01*
X135358053Y-80151796D01*
X135308084Y-80101364D01*
X135293312Y-80031921D01*
X135318428Y-79965516D01*
X135345780Y-79938909D01*
X135389603Y-79907650D01*
X135524860Y-79811173D01*
X135683096Y-79653489D01*
X135717876Y-79605088D01*
X135810435Y-79476277D01*
X135813453Y-79472077D01*
X135912430Y-79271811D01*
X135977370Y-79058069D01*
X136006529Y-78836590D01*
X136008156Y-78770000D01*
X135989852Y-78547361D01*
X135935431Y-78330702D01*
X135846354Y-78125840D01*
X135725014Y-77938277D01*
X135574670Y-77773051D01*
X135570619Y-77769852D01*
X135570615Y-77769848D01*
X135403414Y-77637800D01*
X135403410Y-77637798D01*
X135399359Y-77634598D01*
X135358053Y-77611796D01*
X135308084Y-77561364D01*
X135293312Y-77491921D01*
X135318428Y-77425516D01*
X135345780Y-77398909D01*
X135389603Y-77367650D01*
X135524860Y-77271173D01*
X135683096Y-77113489D01*
X135717876Y-77065088D01*
X135810435Y-76936277D01*
X135813453Y-76932077D01*
X135912430Y-76731811D01*
X135977370Y-76518069D01*
X136006529Y-76296590D01*
X136008156Y-76230000D01*
X135989852Y-76007361D01*
X135935431Y-75790702D01*
X135846354Y-75585840D01*
X135725014Y-75398277D01*
X135574670Y-75233051D01*
X135570619Y-75229852D01*
X135570615Y-75229848D01*
X135403414Y-75097800D01*
X135403410Y-75097798D01*
X135399359Y-75094598D01*
X135358053Y-75071796D01*
X135308084Y-75021364D01*
X135293312Y-74951921D01*
X135318428Y-74885516D01*
X135345780Y-74858909D01*
X135389603Y-74827650D01*
X135524860Y-74731173D01*
X135683096Y-74573489D01*
X135717876Y-74525088D01*
X135810435Y-74396277D01*
X135813453Y-74392077D01*
X135823262Y-74372231D01*
X135910136Y-74196453D01*
X135910137Y-74196451D01*
X135912430Y-74191811D01*
X135977370Y-73978069D01*
X136006529Y-73756590D01*
X136008156Y-73690000D01*
X135989852Y-73467361D01*
X135935431Y-73250702D01*
X135846354Y-73045840D01*
X135725014Y-72858277D01*
X135574670Y-72693051D01*
X135570619Y-72689852D01*
X135570615Y-72689848D01*
X135403414Y-72557800D01*
X135403410Y-72557798D01*
X135399359Y-72554598D01*
X135358053Y-72531796D01*
X135308084Y-72481364D01*
X135293312Y-72411921D01*
X135318428Y-72345516D01*
X135345780Y-72318909D01*
X135413275Y-72270765D01*
X135524860Y-72191173D01*
X135683096Y-72033489D01*
X135742594Y-71950689D01*
X135810435Y-71856277D01*
X135813453Y-71852077D01*
X135844591Y-71789075D01*
X135910136Y-71656453D01*
X135910137Y-71656451D01*
X135912430Y-71651811D01*
X135977370Y-71438069D01*
X136006529Y-71216590D01*
X136008156Y-71150000D01*
X135989852Y-70927361D01*
X135935431Y-70710702D01*
X135846354Y-70505840D01*
X135725014Y-70318277D01*
X135721532Y-70314450D01*
X135577798Y-70156488D01*
X135546746Y-70092642D01*
X135555141Y-70022143D01*
X135600317Y-69967375D01*
X135626761Y-69953706D01*
X135733297Y-69913767D01*
X135741705Y-69910615D01*
X135858261Y-69823261D01*
X135945615Y-69706705D01*
X135996745Y-69570316D01*
X136003500Y-69508134D01*
X136003500Y-67711866D01*
X135996745Y-67649684D01*
X135945615Y-67513295D01*
X135858261Y-67396739D01*
X135741705Y-67309385D01*
X135605316Y-67258255D01*
X135543134Y-67251500D01*
X133746866Y-67251500D01*
X133684684Y-67258255D01*
X133548295Y-67309385D01*
X133431739Y-67396739D01*
X133344385Y-67513295D01*
X133293255Y-67649684D01*
X133286500Y-67711866D01*
X133286500Y-69508134D01*
X133293255Y-69570316D01*
X133344385Y-69706705D01*
X133431739Y-69823261D01*
X133548295Y-69910615D01*
X133556704Y-69913767D01*
X133556705Y-69913768D01*
X133665451Y-69954535D01*
X133722216Y-69997176D01*
X133746916Y-70063738D01*
X133731709Y-70133087D01*
X133712316Y-70159568D01*
X133585629Y-70292138D01*
X133459743Y-70476680D01*
X133365688Y-70679305D01*
X133305989Y-70894570D01*
X133282251Y-71116695D01*
X133282548Y-71121848D01*
X133282548Y-71121851D01*
X133288011Y-71216590D01*
X133295110Y-71339715D01*
X133296247Y-71344761D01*
X133296248Y-71344767D01*
X133307296Y-71393789D01*
X133344222Y-71557639D01*
X133428266Y-71764616D01*
X133544987Y-71955088D01*
X133691250Y-72123938D01*
X133863126Y-72266632D01*
X133933595Y-72307811D01*
X133936445Y-72309476D01*
X133985169Y-72361114D01*
X133998240Y-72430897D01*
X133971509Y-72496669D01*
X133931055Y-72530027D01*
X133918607Y-72536507D01*
X133914474Y-72539610D01*
X133914471Y-72539612D01*
X133744100Y-72667530D01*
X133739965Y-72670635D01*
X133585629Y-72832138D01*
X133582715Y-72836410D01*
X133582714Y-72836411D01*
X133544373Y-72892617D01*
X133459743Y-73016680D01*
X133365688Y-73219305D01*
X133305989Y-73434570D01*
X133282251Y-73656695D01*
X133282548Y-73661848D01*
X133282548Y-73661851D01*
X133289932Y-73789908D01*
X133295110Y-73879715D01*
X133296247Y-73884761D01*
X133296248Y-73884767D01*
X133303009Y-73914767D01*
X133344222Y-74097639D01*
X133428266Y-74304616D01*
X133544987Y-74495088D01*
X133691250Y-74663938D01*
X133863126Y-74806632D01*
X133908809Y-74833327D01*
X133936445Y-74849476D01*
X133985169Y-74901114D01*
X133998240Y-74970897D01*
X133971509Y-75036669D01*
X133931055Y-75070027D01*
X133918607Y-75076507D01*
X133914474Y-75079610D01*
X133914471Y-75079612D01*
X133850291Y-75127800D01*
X133739965Y-75210635D01*
X133585629Y-75372138D01*
X133582715Y-75376410D01*
X133582714Y-75376411D01*
X133544373Y-75432617D01*
X133459743Y-75556680D01*
X133365688Y-75759305D01*
X133305989Y-75974570D01*
X133282251Y-76196695D01*
X133282548Y-76201848D01*
X133282548Y-76201851D01*
X133289932Y-76329908D01*
X133295110Y-76419715D01*
X133296247Y-76424761D01*
X133296248Y-76424767D01*
X133303009Y-76454767D01*
X133344222Y-76637639D01*
X133428266Y-76844616D01*
X133544987Y-77035088D01*
X133691250Y-77203938D01*
X133863126Y-77346632D01*
X133908809Y-77373327D01*
X133936445Y-77389476D01*
X133985169Y-77441114D01*
X133998240Y-77510897D01*
X133971509Y-77576669D01*
X133931055Y-77610027D01*
X133918607Y-77616507D01*
X133914474Y-77619610D01*
X133914471Y-77619612D01*
X133850291Y-77667800D01*
X133739965Y-77750635D01*
X133585629Y-77912138D01*
X133582715Y-77916410D01*
X133582714Y-77916411D01*
X133544373Y-77972617D01*
X133459743Y-78096680D01*
X133365688Y-78299305D01*
X133305989Y-78514570D01*
X133282251Y-78736695D01*
X133282548Y-78741848D01*
X133282548Y-78741851D01*
X133289932Y-78869908D01*
X133295110Y-78959715D01*
X133296247Y-78964761D01*
X133296248Y-78964767D01*
X133303009Y-78994767D01*
X133344222Y-79177639D01*
X133428266Y-79384616D01*
X133544987Y-79575088D01*
X133691250Y-79743938D01*
X133863126Y-79886632D01*
X133908809Y-79913327D01*
X133936445Y-79929476D01*
X133985169Y-79981114D01*
X133998240Y-80050897D01*
X133971509Y-80116669D01*
X133931055Y-80150027D01*
X133918607Y-80156507D01*
X133914474Y-80159610D01*
X133914471Y-80159612D01*
X133850291Y-80207800D01*
X133739965Y-80290635D01*
X133585629Y-80452138D01*
X133582715Y-80456410D01*
X133582714Y-80456411D01*
X133544373Y-80512617D01*
X133459743Y-80636680D01*
X133365688Y-80839305D01*
X133305989Y-81054570D01*
X133282251Y-81276695D01*
X133282548Y-81281848D01*
X133282548Y-81281851D01*
X133289932Y-81409908D01*
X133295110Y-81499715D01*
X133296247Y-81504761D01*
X133296248Y-81504767D01*
X133303009Y-81534767D01*
X133344222Y-81717639D01*
X133428266Y-81924616D01*
X133544987Y-82115088D01*
X133691250Y-82283938D01*
X133863126Y-82426632D01*
X133908809Y-82453327D01*
X133936445Y-82469476D01*
X133985169Y-82521114D01*
X133998240Y-82590897D01*
X133971509Y-82656669D01*
X133931055Y-82690027D01*
X133918607Y-82696507D01*
X133914474Y-82699610D01*
X133914471Y-82699612D01*
X133754525Y-82819703D01*
X133739965Y-82830635D01*
X133585629Y-82992138D01*
X133582715Y-82996410D01*
X133582714Y-82996411D01*
X133544373Y-83052617D01*
X133459743Y-83176680D01*
X133365688Y-83379305D01*
X133305989Y-83594570D01*
X133282251Y-83816695D01*
X133282548Y-83821848D01*
X133282548Y-83821851D01*
X133289932Y-83949908D01*
X133295110Y-84039715D01*
X133296247Y-84044761D01*
X133296248Y-84044767D01*
X133303009Y-84074767D01*
X133344222Y-84257639D01*
X133428266Y-84464616D01*
X133446650Y-84494616D01*
X133532843Y-84635270D01*
X133544987Y-84655088D01*
X133691250Y-84823938D01*
X133863126Y-84966632D01*
X133878824Y-84975805D01*
X133936445Y-85009476D01*
X133985169Y-85061114D01*
X133998240Y-85130897D01*
X133971509Y-85196669D01*
X133931055Y-85230027D01*
X133918607Y-85236507D01*
X133914474Y-85239610D01*
X133914471Y-85239612D01*
X133745488Y-85366488D01*
X133739965Y-85370635D01*
X133736393Y-85374373D01*
X133589319Y-85528277D01*
X133585629Y-85532138D01*
X133582715Y-85536410D01*
X133582714Y-85536411D01*
X133544373Y-85592617D01*
X133459743Y-85716680D01*
X133365688Y-85919305D01*
X133305989Y-86134570D01*
X133282251Y-86356695D01*
X133282548Y-86361848D01*
X133282548Y-86361851D01*
X133294812Y-86574547D01*
X133295110Y-86579715D01*
X133296247Y-86584761D01*
X133296248Y-86584767D01*
X133303009Y-86614767D01*
X133344222Y-86797639D01*
X133382461Y-86891811D01*
X133417873Y-86979020D01*
X133428266Y-87004616D01*
X133446650Y-87034616D01*
X133532843Y-87175270D01*
X133544987Y-87195088D01*
X133691250Y-87363938D01*
X133863126Y-87506632D01*
X133878824Y-87515805D01*
X133936445Y-87549476D01*
X133985169Y-87601114D01*
X133998240Y-87670897D01*
X133971509Y-87736669D01*
X133931055Y-87770027D01*
X133918607Y-87776507D01*
X133914474Y-87779610D01*
X133914471Y-87779612D01*
X133744100Y-87907530D01*
X133739965Y-87910635D01*
X133736393Y-87914373D01*
X133589319Y-88068277D01*
X133585629Y-88072138D01*
X133582715Y-88076410D01*
X133582714Y-88076411D01*
X133544373Y-88132617D01*
X133459743Y-88256680D01*
X133365688Y-88459305D01*
X133305989Y-88674570D01*
X133282251Y-88896695D01*
X133282548Y-88901848D01*
X133282548Y-88901851D01*
X133294812Y-89114547D01*
X133295110Y-89119715D01*
X133296247Y-89124761D01*
X133296248Y-89124767D01*
X133303009Y-89154767D01*
X133344222Y-89337639D01*
X133382461Y-89431811D01*
X133417873Y-89519020D01*
X133428266Y-89544616D01*
X133446650Y-89574616D01*
X133532843Y-89715270D01*
X133544987Y-89735088D01*
X133691250Y-89903938D01*
X133863126Y-90046632D01*
X133878824Y-90055805D01*
X133936445Y-90089476D01*
X133985169Y-90141114D01*
X133998240Y-90210897D01*
X133971509Y-90276669D01*
X133931055Y-90310027D01*
X133918607Y-90316507D01*
X133914474Y-90319610D01*
X133914471Y-90319612D01*
X133744100Y-90447530D01*
X133739965Y-90450635D01*
X133736393Y-90454373D01*
X133589319Y-90608277D01*
X133585629Y-90612138D01*
X133582715Y-90616410D01*
X133582714Y-90616411D01*
X133544373Y-90672617D01*
X133459743Y-90796680D01*
X133365688Y-90999305D01*
X133305989Y-91214570D01*
X133282251Y-91436695D01*
X133282548Y-91441848D01*
X133282548Y-91441851D01*
X133294812Y-91654547D01*
X133295110Y-91659715D01*
X133296247Y-91664761D01*
X133296248Y-91664767D01*
X133303009Y-91694767D01*
X133344222Y-91877639D01*
X133382461Y-91971811D01*
X133417873Y-92059020D01*
X133428266Y-92084616D01*
X133446650Y-92114616D01*
X133532843Y-92255270D01*
X133544987Y-92275088D01*
X133691250Y-92443938D01*
X133863126Y-92586632D01*
X133878824Y-92595805D01*
X133936445Y-92629476D01*
X133985169Y-92681114D01*
X133998240Y-92750897D01*
X133971509Y-92816669D01*
X133931055Y-92850027D01*
X133918607Y-92856507D01*
X133914474Y-92859610D01*
X133914471Y-92859612D01*
X133744100Y-92987530D01*
X133739965Y-92990635D01*
X133736393Y-92994373D01*
X133589319Y-93148277D01*
X133585629Y-93152138D01*
X133582715Y-93156410D01*
X133582714Y-93156411D01*
X133544373Y-93212617D01*
X133459743Y-93336680D01*
X133365688Y-93539305D01*
X133305989Y-93754570D01*
X133282251Y-93976695D01*
X133282548Y-93981848D01*
X133282548Y-93981851D01*
X133294812Y-94194547D01*
X133295110Y-94199715D01*
X133296247Y-94204761D01*
X133296248Y-94204767D01*
X133303009Y-94234767D01*
X133344222Y-94417639D01*
X133382461Y-94511811D01*
X133417873Y-94599020D01*
X133428266Y-94624616D01*
X133451089Y-94661860D01*
X133532843Y-94795270D01*
X133544987Y-94815088D01*
X133691250Y-94983938D01*
X133863126Y-95126632D01*
X133878824Y-95135805D01*
X133936445Y-95169476D01*
X133985169Y-95221114D01*
X133998240Y-95290897D01*
X133971509Y-95356669D01*
X133931055Y-95390027D01*
X133918607Y-95396507D01*
X133914474Y-95399610D01*
X133914471Y-95399612D01*
X133744100Y-95527530D01*
X133739965Y-95530635D01*
X133736393Y-95534373D01*
X133589319Y-95688277D01*
X133585629Y-95692138D01*
X133582715Y-95696410D01*
X133582714Y-95696411D01*
X133544373Y-95752617D01*
X133459743Y-95876680D01*
X133365688Y-96079305D01*
X133305989Y-96294570D01*
X133282251Y-96516695D01*
X133282548Y-96521848D01*
X133282548Y-96521851D01*
X133294812Y-96734547D01*
X133295110Y-96739715D01*
X133296247Y-96744761D01*
X133296248Y-96744767D01*
X133303009Y-96774767D01*
X133344222Y-96957639D01*
X133382461Y-97051811D01*
X133417873Y-97139020D01*
X133428266Y-97164616D01*
X133446650Y-97194616D01*
X133532843Y-97335270D01*
X133544987Y-97355088D01*
X133691250Y-97523938D01*
X133863126Y-97666632D01*
X133878824Y-97675805D01*
X133936445Y-97709476D01*
X133985169Y-97761114D01*
X133998240Y-97830897D01*
X133971509Y-97896669D01*
X133931055Y-97930027D01*
X133918607Y-97936507D01*
X133914474Y-97939610D01*
X133914471Y-97939612D01*
X133744100Y-98067530D01*
X133739965Y-98070635D01*
X133736393Y-98074373D01*
X133589319Y-98228277D01*
X133585629Y-98232138D01*
X133582715Y-98236410D01*
X133582714Y-98236411D01*
X133537578Y-98302578D01*
X133459743Y-98416680D01*
X133445818Y-98446680D01*
X133379727Y-98589061D01*
X133365688Y-98619305D01*
X133305989Y-98834570D01*
X133282251Y-99056695D01*
X120742884Y-99056695D01*
X120724852Y-98837361D01*
X120670431Y-98620702D01*
X120581354Y-98415840D01*
X120541906Y-98354862D01*
X120462822Y-98232617D01*
X120462820Y-98232614D01*
X120460014Y-98228277D01*
X120309670Y-98063051D01*
X120305619Y-98059852D01*
X120305615Y-98059848D01*
X120138414Y-97927800D01*
X120138410Y-97927798D01*
X120134359Y-97924598D01*
X120093053Y-97901796D01*
X120043084Y-97851364D01*
X120028312Y-97781921D01*
X120053428Y-97715516D01*
X120080780Y-97688909D01*
X120124603Y-97657650D01*
X120259860Y-97561173D01*
X120267121Y-97553938D01*
X120414435Y-97407137D01*
X120418096Y-97403489D01*
X120431319Y-97385088D01*
X120545435Y-97226277D01*
X120548453Y-97222077D01*
X120558875Y-97200991D01*
X120645136Y-97026453D01*
X120645137Y-97026451D01*
X120647430Y-97021811D01*
X120712370Y-96808069D01*
X120741529Y-96586590D01*
X120743156Y-96520000D01*
X120724852Y-96297361D01*
X120670431Y-96080702D01*
X120581354Y-95875840D01*
X120503231Y-95755080D01*
X120462822Y-95692617D01*
X120462820Y-95692614D01*
X120460014Y-95688277D01*
X120309670Y-95523051D01*
X120305619Y-95519852D01*
X120305615Y-95519848D01*
X120138414Y-95387800D01*
X120138410Y-95387798D01*
X120134359Y-95384598D01*
X120093053Y-95361796D01*
X120043084Y-95311364D01*
X120028312Y-95241921D01*
X120053428Y-95175516D01*
X120080780Y-95148909D01*
X120124603Y-95117650D01*
X120259860Y-95021173D01*
X120267121Y-95013938D01*
X120414435Y-94867137D01*
X120418096Y-94863489D01*
X120431319Y-94845088D01*
X120545435Y-94686277D01*
X120548453Y-94682077D01*
X120552671Y-94673544D01*
X120645136Y-94486453D01*
X120645137Y-94486451D01*
X120647430Y-94481811D01*
X120712370Y-94268069D01*
X120741529Y-94046590D01*
X120743156Y-93980000D01*
X120724852Y-93757361D01*
X120670431Y-93540702D01*
X120581354Y-93335840D01*
X120541906Y-93274862D01*
X120462822Y-93152617D01*
X120462820Y-93152614D01*
X120460014Y-93148277D01*
X120309670Y-92983051D01*
X120305619Y-92979852D01*
X120305615Y-92979848D01*
X120138414Y-92847800D01*
X120138410Y-92847798D01*
X120134359Y-92844598D01*
X120093053Y-92821796D01*
X120043084Y-92771364D01*
X120028312Y-92701921D01*
X120053428Y-92635516D01*
X120080780Y-92608909D01*
X120124603Y-92577650D01*
X120259860Y-92481173D01*
X120267121Y-92473938D01*
X120414435Y-92327137D01*
X120418096Y-92323489D01*
X120431319Y-92305088D01*
X120545435Y-92146277D01*
X120548453Y-92142077D01*
X120559849Y-92119020D01*
X120645136Y-91946453D01*
X120645137Y-91946451D01*
X120647430Y-91941811D01*
X120712370Y-91728069D01*
X120741529Y-91506590D01*
X120743156Y-91440000D01*
X120724852Y-91217361D01*
X120670431Y-91000702D01*
X120581354Y-90795840D01*
X120541906Y-90734862D01*
X120462822Y-90612617D01*
X120462820Y-90612614D01*
X120460014Y-90608277D01*
X120309670Y-90443051D01*
X120305619Y-90439852D01*
X120305615Y-90439848D01*
X120138414Y-90307800D01*
X120138410Y-90307798D01*
X120134359Y-90304598D01*
X120093053Y-90281796D01*
X120043084Y-90231364D01*
X120028312Y-90161921D01*
X120053428Y-90095516D01*
X120080780Y-90068909D01*
X120124603Y-90037650D01*
X120259860Y-89941173D01*
X120267121Y-89933938D01*
X120414435Y-89787137D01*
X120418096Y-89783489D01*
X120431319Y-89765088D01*
X120545435Y-89606277D01*
X120548453Y-89602077D01*
X120559849Y-89579020D01*
X120645136Y-89406453D01*
X120645137Y-89406451D01*
X120647430Y-89401811D01*
X120712370Y-89188069D01*
X120741529Y-88966590D01*
X120743156Y-88900000D01*
X120724852Y-88677361D01*
X120670431Y-88460702D01*
X120581354Y-88255840D01*
X120541906Y-88194862D01*
X120462822Y-88072617D01*
X120462820Y-88072614D01*
X120460014Y-88068277D01*
X120309670Y-87903051D01*
X120305619Y-87899852D01*
X120305615Y-87899848D01*
X120138414Y-87767800D01*
X120138410Y-87767798D01*
X120134359Y-87764598D01*
X120093053Y-87741796D01*
X120043084Y-87691364D01*
X120028312Y-87621921D01*
X120053428Y-87555516D01*
X120080780Y-87528909D01*
X120124603Y-87497650D01*
X120259860Y-87401173D01*
X120267121Y-87393938D01*
X120414435Y-87247137D01*
X120418096Y-87243489D01*
X120431319Y-87225088D01*
X120545435Y-87066277D01*
X120548453Y-87062077D01*
X120559849Y-87039020D01*
X120645136Y-86866453D01*
X120645137Y-86866451D01*
X120647430Y-86861811D01*
X120712370Y-86648069D01*
X120741529Y-86426590D01*
X120743156Y-86360000D01*
X120724852Y-86137361D01*
X120670431Y-85920702D01*
X120581354Y-85715840D01*
X120541906Y-85654862D01*
X120462822Y-85532617D01*
X120462820Y-85532614D01*
X120460014Y-85528277D01*
X120456532Y-85524450D01*
X120312798Y-85366488D01*
X120281746Y-85302642D01*
X120290141Y-85232143D01*
X120335317Y-85177375D01*
X120361761Y-85163706D01*
X120468297Y-85123767D01*
X120476705Y-85120615D01*
X120593261Y-85033261D01*
X120680615Y-84916705D01*
X120731745Y-84780316D01*
X120738500Y-84718134D01*
X120738500Y-82921866D01*
X120731745Y-82859684D01*
X120680615Y-82723295D01*
X120593261Y-82606739D01*
X120476705Y-82519385D01*
X120340316Y-82468255D01*
X120278134Y-82461500D01*
X118481866Y-82461500D01*
X118419684Y-82468255D01*
X118283295Y-82519385D01*
X118166739Y-82606739D01*
X118079385Y-82723295D01*
X118028255Y-82859684D01*
X118021500Y-82921866D01*
X118021500Y-84718134D01*
X118028255Y-84780316D01*
X118079385Y-84916705D01*
X118166739Y-85033261D01*
X118283295Y-85120615D01*
X118291704Y-85123767D01*
X118291705Y-85123768D01*
X118400451Y-85164535D01*
X118457216Y-85207176D01*
X118481916Y-85273738D01*
X118466709Y-85343087D01*
X118447316Y-85369568D01*
X118320629Y-85502138D01*
X118317715Y-85506410D01*
X118317714Y-85506411D01*
X118282249Y-85558401D01*
X118194743Y-85686680D01*
X118100688Y-85889305D01*
X118040989Y-86104570D01*
X118017251Y-86326695D01*
X118017548Y-86331848D01*
X118017548Y-86331851D01*
X118024932Y-86459908D01*
X118030110Y-86549715D01*
X118031247Y-86554761D01*
X118031248Y-86554767D01*
X118038009Y-86584767D01*
X118079222Y-86767639D01*
X118163266Y-86974616D01*
X118200034Y-87034616D01*
X118256204Y-87126277D01*
X118279987Y-87165088D01*
X118426250Y-87333938D01*
X118573610Y-87456279D01*
X118579506Y-87461173D01*
X118598126Y-87476632D01*
X118643809Y-87503327D01*
X118671445Y-87519476D01*
X118720169Y-87571114D01*
X118733240Y-87640897D01*
X118706509Y-87706669D01*
X118666055Y-87740027D01*
X118653607Y-87746507D01*
X118649474Y-87749610D01*
X118649471Y-87749612D01*
X118479100Y-87877530D01*
X118474965Y-87880635D01*
X118320629Y-88042138D01*
X118317715Y-88046410D01*
X118317714Y-88046411D01*
X118282249Y-88098401D01*
X118194743Y-88226680D01*
X118100688Y-88429305D01*
X118040989Y-88644570D01*
X118017251Y-88866695D01*
X118017548Y-88871848D01*
X118017548Y-88871851D01*
X118024932Y-88999908D01*
X118030110Y-89089715D01*
X118031247Y-89094761D01*
X118031248Y-89094767D01*
X118038009Y-89124767D01*
X118079222Y-89307639D01*
X118163266Y-89514616D01*
X118200034Y-89574616D01*
X118256204Y-89666277D01*
X118279987Y-89705088D01*
X118426250Y-89873938D01*
X118573610Y-89996279D01*
X118579506Y-90001173D01*
X118598126Y-90016632D01*
X118643809Y-90043327D01*
X118671445Y-90059476D01*
X118720169Y-90111114D01*
X118733240Y-90180897D01*
X118706509Y-90246669D01*
X118666055Y-90280027D01*
X118653607Y-90286507D01*
X118649474Y-90289610D01*
X118649471Y-90289612D01*
X118479100Y-90417530D01*
X118474965Y-90420635D01*
X118320629Y-90582138D01*
X118317715Y-90586410D01*
X118317714Y-90586411D01*
X118282249Y-90638401D01*
X118194743Y-90766680D01*
X118100688Y-90969305D01*
X118040989Y-91184570D01*
X118017251Y-91406695D01*
X118017548Y-91411848D01*
X118017548Y-91411851D01*
X118024932Y-91539908D01*
X118030110Y-91629715D01*
X118031247Y-91634761D01*
X118031248Y-91634767D01*
X118038009Y-91664767D01*
X118079222Y-91847639D01*
X118163266Y-92054616D01*
X118200034Y-92114616D01*
X118256204Y-92206277D01*
X118279987Y-92245088D01*
X118426250Y-92413938D01*
X118573610Y-92536279D01*
X118579506Y-92541173D01*
X118598126Y-92556632D01*
X118643809Y-92583327D01*
X118671445Y-92599476D01*
X118720169Y-92651114D01*
X118733240Y-92720897D01*
X118706509Y-92786669D01*
X118666055Y-92820027D01*
X118653607Y-92826507D01*
X118649474Y-92829610D01*
X118649471Y-92829612D01*
X118479100Y-92957530D01*
X118474965Y-92960635D01*
X118320629Y-93122138D01*
X118317715Y-93126410D01*
X118317714Y-93126411D01*
X118282249Y-93178401D01*
X118194743Y-93306680D01*
X118100688Y-93509305D01*
X118040989Y-93724570D01*
X118017251Y-93946695D01*
X118017548Y-93951848D01*
X118017548Y-93951851D01*
X118024932Y-94079908D01*
X118030110Y-94169715D01*
X118031247Y-94174761D01*
X118031248Y-94174767D01*
X118038009Y-94204767D01*
X118079222Y-94387639D01*
X118163266Y-94594616D01*
X118202733Y-94659020D01*
X118256204Y-94746277D01*
X118279987Y-94785088D01*
X118426250Y-94953938D01*
X118573610Y-95076279D01*
X118579506Y-95081173D01*
X118598126Y-95096632D01*
X118643809Y-95123327D01*
X118671445Y-95139476D01*
X118720169Y-95191114D01*
X118733240Y-95260897D01*
X118706509Y-95326669D01*
X118666055Y-95360027D01*
X118653607Y-95366507D01*
X118649474Y-95369610D01*
X118649471Y-95369612D01*
X118479100Y-95497530D01*
X118474965Y-95500635D01*
X118320629Y-95662138D01*
X118317715Y-95666410D01*
X118317714Y-95666411D01*
X118282249Y-95718401D01*
X118194743Y-95846680D01*
X118151152Y-95940590D01*
X118104211Y-96041716D01*
X118100688Y-96049305D01*
X118040989Y-96264570D01*
X118017251Y-96486695D01*
X118017548Y-96491848D01*
X118017548Y-96491851D01*
X118024816Y-96617895D01*
X118030110Y-96709715D01*
X118031247Y-96714761D01*
X118031248Y-96714767D01*
X118038009Y-96744767D01*
X118079222Y-96927639D01*
X118163266Y-97134616D01*
X118200034Y-97194616D01*
X118256204Y-97286277D01*
X118279987Y-97325088D01*
X118426250Y-97493938D01*
X118566061Y-97610011D01*
X118579506Y-97621173D01*
X118598126Y-97636632D01*
X118643809Y-97663327D01*
X118671445Y-97679476D01*
X118720169Y-97731114D01*
X118733240Y-97800897D01*
X118706509Y-97866669D01*
X118666055Y-97900027D01*
X118653607Y-97906507D01*
X118649474Y-97909610D01*
X118649471Y-97909612D01*
X118479100Y-98037530D01*
X118474965Y-98040635D01*
X118320629Y-98202138D01*
X118317715Y-98206410D01*
X118317714Y-98206411D01*
X118282249Y-98258401D01*
X118194743Y-98386680D01*
X118151152Y-98480590D01*
X118128855Y-98528625D01*
X118100688Y-98589305D01*
X118040989Y-98804570D01*
X118017251Y-99026695D01*
X118017548Y-99031848D01*
X118017548Y-99031851D01*
X118024932Y-99159908D01*
X118030110Y-99249715D01*
X118031247Y-99254761D01*
X118031248Y-99254767D01*
X118038009Y-99284767D01*
X118079222Y-99467639D01*
X118163266Y-99674616D01*
X118200034Y-99734616D01*
X118256204Y-99826277D01*
X118279987Y-99865088D01*
X118426250Y-100033938D01*
X118573610Y-100156279D01*
X118579506Y-100161173D01*
X118598126Y-100176632D01*
X118643809Y-100203327D01*
X118671445Y-100219476D01*
X118720169Y-100271114D01*
X118733240Y-100340897D01*
X118706509Y-100406669D01*
X118666055Y-100440027D01*
X118659255Y-100443567D01*
X118653607Y-100446507D01*
X118649474Y-100449610D01*
X118649471Y-100449612D01*
X118479100Y-100577530D01*
X118474965Y-100580635D01*
X118320629Y-100742138D01*
X118194743Y-100926680D01*
X118100688Y-101129305D01*
X118040989Y-101344570D01*
X118017251Y-101566695D01*
X118017548Y-101571848D01*
X118017548Y-101571851D01*
X118022825Y-101663365D01*
X118030110Y-101789715D01*
X118031247Y-101794761D01*
X118031248Y-101794767D01*
X118038462Y-101826776D01*
X118079222Y-102007639D01*
X118163266Y-102214616D01*
X118200034Y-102274616D01*
X118256204Y-102366277D01*
X118279987Y-102405088D01*
X118426250Y-102573938D01*
X118502498Y-102637240D01*
X118579506Y-102701173D01*
X118598126Y-102716632D01*
X118643106Y-102742916D01*
X118671445Y-102759476D01*
X118720169Y-102811114D01*
X118733240Y-102880897D01*
X118706509Y-102946669D01*
X118666055Y-102980027D01*
X118653607Y-102986507D01*
X118649474Y-102989610D01*
X118649471Y-102989612D01*
X118479100Y-103117530D01*
X118474965Y-103120635D01*
X118471393Y-103124373D01*
X118398917Y-103200215D01*
X118320629Y-103282138D01*
X118317715Y-103286410D01*
X118317714Y-103286411D01*
X118282033Y-103338717D01*
X118194743Y-103466680D01*
X118100688Y-103669305D01*
X118040989Y-103884570D01*
X118017251Y-104106695D01*
X118017548Y-104111848D01*
X118017548Y-104111851D01*
X118024932Y-104239908D01*
X118030110Y-104329715D01*
X118031247Y-104334761D01*
X118031248Y-104334767D01*
X118038009Y-104364767D01*
X118079222Y-104547639D01*
X118163266Y-104754616D01*
X118279987Y-104945088D01*
X118426250Y-105113938D01*
X118598126Y-105256632D01*
X118643809Y-105283327D01*
X118671445Y-105299476D01*
X118720169Y-105351114D01*
X118733240Y-105420897D01*
X118706509Y-105486669D01*
X118666055Y-105520027D01*
X118658890Y-105523757D01*
X118653607Y-105526507D01*
X118649474Y-105529610D01*
X118649471Y-105529612D01*
X118479100Y-105657530D01*
X118474965Y-105660635D01*
X118320629Y-105822138D01*
X118194743Y-106006680D01*
X118100688Y-106209305D01*
X118040989Y-106424570D01*
X118017251Y-106646695D01*
X118017548Y-106651848D01*
X118017548Y-106651851D01*
X118022825Y-106743365D01*
X118030110Y-106869715D01*
X118031247Y-106874761D01*
X118031248Y-106874767D01*
X118038462Y-106906776D01*
X118079222Y-107087639D01*
X118163266Y-107294616D01*
X118200034Y-107354616D01*
X118256204Y-107446277D01*
X118279987Y-107485088D01*
X118426250Y-107653938D01*
X118502498Y-107717240D01*
X118579506Y-107781173D01*
X118598126Y-107796632D01*
X118665163Y-107835805D01*
X118671445Y-107839476D01*
X118720169Y-107891114D01*
X118733240Y-107960897D01*
X118706509Y-108026669D01*
X118666055Y-108060027D01*
X118653607Y-108066507D01*
X118649474Y-108069610D01*
X118649471Y-108069612D01*
X118479100Y-108197530D01*
X118474965Y-108200635D01*
X118320629Y-108362138D01*
X118194743Y-108546680D01*
X118100688Y-108749305D01*
X118040989Y-108964570D01*
X118017251Y-109186695D01*
X118017548Y-109191848D01*
X118017548Y-109191851D01*
X118023011Y-109286590D01*
X118030110Y-109409715D01*
X118031247Y-109414761D01*
X118031248Y-109414767D01*
X118038462Y-109446776D01*
X118079222Y-109627639D01*
X118163266Y-109834616D01*
X118279987Y-110025088D01*
X118426250Y-110193938D01*
X118598126Y-110336632D01*
X118665163Y-110375805D01*
X118671445Y-110379476D01*
X118720169Y-110431114D01*
X118733240Y-110500897D01*
X118706509Y-110566669D01*
X118666055Y-110600027D01*
X118653607Y-110606507D01*
X118649474Y-110609610D01*
X118649471Y-110609612D01*
X118479100Y-110737530D01*
X118474965Y-110740635D01*
X118320629Y-110902138D01*
X118194743Y-111086680D01*
X118100688Y-111289305D01*
X118040989Y-111504570D01*
X118017251Y-111726695D01*
X118017548Y-111731848D01*
X118017548Y-111731851D01*
X118023011Y-111826590D01*
X118030110Y-111949715D01*
X118031247Y-111954761D01*
X118031248Y-111954767D01*
X118038462Y-111986776D01*
X118079222Y-112167639D01*
X118163266Y-112374616D01*
X118279987Y-112565088D01*
X118426250Y-112733938D01*
X118598126Y-112876632D01*
X118665163Y-112915805D01*
X118671445Y-112919476D01*
X118720169Y-112971114D01*
X118733240Y-113040897D01*
X118706509Y-113106669D01*
X118666055Y-113140027D01*
X118653607Y-113146507D01*
X118649474Y-113149610D01*
X118649471Y-113149612D01*
X118479100Y-113277530D01*
X118474965Y-113280635D01*
X118320629Y-113442138D01*
X118194743Y-113626680D01*
X118100688Y-113829305D01*
X118040989Y-114044570D01*
X118017251Y-114266695D01*
X110492439Y-114266695D01*
X110475978Y-114078537D01*
X110418440Y-113863804D01*
X110416117Y-113858822D01*
X110326814Y-113667311D01*
X110326811Y-113667306D01*
X110324488Y-113662324D01*
X110319948Y-113655840D01*
X110200136Y-113484730D01*
X110200134Y-113484727D01*
X110196977Y-113480219D01*
X110039781Y-113323023D01*
X110035273Y-113319866D01*
X110035270Y-113319864D01*
X109959505Y-113266813D01*
X109857677Y-113195512D01*
X109852695Y-113193189D01*
X109852690Y-113193186D01*
X109747627Y-113144195D01*
X109694342Y-113097278D01*
X109674881Y-113029001D01*
X109695423Y-112961041D01*
X109747627Y-112915805D01*
X109852690Y-112866814D01*
X109852695Y-112866811D01*
X109857677Y-112864488D01*
X109959505Y-112793187D01*
X110035270Y-112740136D01*
X110035273Y-112740134D01*
X110039781Y-112736977D01*
X110196977Y-112579781D01*
X110210346Y-112560689D01*
X110321331Y-112402185D01*
X110321332Y-112402183D01*
X110324488Y-112397676D01*
X110326811Y-112392694D01*
X110326814Y-112392689D01*
X110416117Y-112201178D01*
X110416118Y-112201177D01*
X110418440Y-112196196D01*
X110424810Y-112172425D01*
X110474554Y-111986776D01*
X110475978Y-111981463D01*
X110495353Y-111760000D01*
X110475978Y-111538537D01*
X110418440Y-111323804D01*
X110416117Y-111318822D01*
X110326814Y-111127311D01*
X110326811Y-111127306D01*
X110324488Y-111122324D01*
X110319948Y-111115840D01*
X110200136Y-110944730D01*
X110200134Y-110944727D01*
X110196977Y-110940219D01*
X110039781Y-110783023D01*
X110035273Y-110779866D01*
X110035270Y-110779864D01*
X109959505Y-110726813D01*
X109857677Y-110655512D01*
X109852695Y-110653189D01*
X109852690Y-110653186D01*
X109747627Y-110604195D01*
X109694342Y-110557278D01*
X109674881Y-110489001D01*
X109695423Y-110421041D01*
X109747627Y-110375805D01*
X109852690Y-110326814D01*
X109852695Y-110326811D01*
X109857677Y-110324488D01*
X109959505Y-110253187D01*
X110035270Y-110200136D01*
X110035273Y-110200134D01*
X110039781Y-110196977D01*
X110196977Y-110039781D01*
X110210346Y-110020689D01*
X110321331Y-109862185D01*
X110321332Y-109862183D01*
X110324488Y-109857676D01*
X110326811Y-109852694D01*
X110326814Y-109852689D01*
X110416117Y-109661178D01*
X110416118Y-109661177D01*
X110418440Y-109656196D01*
X110424810Y-109632425D01*
X110474554Y-109446776D01*
X110475978Y-109441463D01*
X110495353Y-109220000D01*
X110475978Y-108998537D01*
X110418440Y-108783804D01*
X110416117Y-108778822D01*
X110326814Y-108587311D01*
X110326811Y-108587306D01*
X110324488Y-108582324D01*
X110319948Y-108575840D01*
X110200136Y-108404730D01*
X110200134Y-108404727D01*
X110196977Y-108400219D01*
X110039781Y-108243023D01*
X110035273Y-108239866D01*
X110035270Y-108239864D01*
X109959505Y-108186813D01*
X109857677Y-108115512D01*
X109852695Y-108113189D01*
X109852690Y-108113186D01*
X109747627Y-108064195D01*
X109694342Y-108017278D01*
X109674881Y-107949001D01*
X109695423Y-107881041D01*
X109747627Y-107835805D01*
X109852690Y-107786814D01*
X109852695Y-107786811D01*
X109857677Y-107784488D01*
X109964012Y-107710031D01*
X110035270Y-107660136D01*
X110035273Y-107660134D01*
X110039781Y-107656977D01*
X110196977Y-107499781D01*
X110210346Y-107480689D01*
X110321331Y-107322185D01*
X110321332Y-107322183D01*
X110324488Y-107317676D01*
X110326811Y-107312694D01*
X110326814Y-107312689D01*
X110416117Y-107121178D01*
X110416118Y-107121177D01*
X110418440Y-107116196D01*
X110424810Y-107092425D01*
X110468408Y-106929715D01*
X110475978Y-106901463D01*
X110495353Y-106680000D01*
X110475978Y-106458537D01*
X110437503Y-106314949D01*
X110419863Y-106249114D01*
X110419862Y-106249112D01*
X110418440Y-106243804D01*
X110416117Y-106238822D01*
X110326814Y-106047311D01*
X110326811Y-106047306D01*
X110324488Y-106042324D01*
X110319948Y-106035840D01*
X110200136Y-105864730D01*
X110200134Y-105864727D01*
X110196977Y-105860219D01*
X110039781Y-105703023D01*
X110035273Y-105699866D01*
X110035270Y-105699864D01*
X109899216Y-105604598D01*
X109857677Y-105575512D01*
X109852695Y-105573189D01*
X109852690Y-105573186D01*
X109747627Y-105524195D01*
X109694342Y-105477278D01*
X109674881Y-105409001D01*
X109695423Y-105341041D01*
X109747627Y-105295805D01*
X109852690Y-105246814D01*
X109852695Y-105246811D01*
X109857677Y-105244488D01*
X110006857Y-105140031D01*
X110035270Y-105120136D01*
X110035273Y-105120134D01*
X110039781Y-105116977D01*
X110196977Y-104959781D01*
X110210346Y-104940689D01*
X110321331Y-104782185D01*
X110321332Y-104782183D01*
X110324488Y-104777676D01*
X110326811Y-104772694D01*
X110326814Y-104772689D01*
X110416117Y-104581178D01*
X110416118Y-104581177D01*
X110418440Y-104576196D01*
X110424810Y-104552425D01*
X110450170Y-104457778D01*
X110475978Y-104361463D01*
X110495353Y-104140000D01*
X110475978Y-103918537D01*
X110418440Y-103703804D01*
X110416117Y-103698822D01*
X110326814Y-103507311D01*
X110326811Y-103507306D01*
X110324488Y-103502324D01*
X110317540Y-103492401D01*
X110200136Y-103324730D01*
X110200134Y-103324727D01*
X110196977Y-103320219D01*
X110039781Y-103163023D01*
X110035273Y-103159866D01*
X110035270Y-103159864D01*
X109959505Y-103106813D01*
X109857677Y-103035512D01*
X109852695Y-103033189D01*
X109852690Y-103033186D01*
X109747627Y-102984195D01*
X109694342Y-102937278D01*
X109674881Y-102869001D01*
X109695423Y-102801041D01*
X109747627Y-102755805D01*
X109852690Y-102706814D01*
X109852695Y-102706811D01*
X109857677Y-102704488D01*
X109997071Y-102606883D01*
X110035270Y-102580136D01*
X110035273Y-102580134D01*
X110039781Y-102576977D01*
X110196977Y-102419781D01*
X110210346Y-102400689D01*
X110321331Y-102242185D01*
X110321332Y-102242183D01*
X110324488Y-102237676D01*
X110326811Y-102232694D01*
X110326814Y-102232689D01*
X110416117Y-102041178D01*
X110416118Y-102041177D01*
X110418440Y-102036196D01*
X110424810Y-102012425D01*
X110458131Y-101888069D01*
X110475978Y-101821463D01*
X110495353Y-101600000D01*
X110475978Y-101378537D01*
X110437503Y-101234949D01*
X110419863Y-101169114D01*
X110419862Y-101169112D01*
X110418440Y-101163804D01*
X110416117Y-101158822D01*
X110326814Y-100967311D01*
X110326811Y-100967306D01*
X110324488Y-100962324D01*
X110317714Y-100952649D01*
X110200136Y-100784730D01*
X110200134Y-100784727D01*
X110196977Y-100780219D01*
X110039781Y-100623023D01*
X110035273Y-100619866D01*
X110035270Y-100619864D01*
X109895654Y-100522104D01*
X109857677Y-100495512D01*
X109852695Y-100493189D01*
X109852690Y-100493186D01*
X109747627Y-100444195D01*
X109694342Y-100397278D01*
X109674881Y-100329001D01*
X109695423Y-100261041D01*
X109747627Y-100215805D01*
X109852690Y-100166814D01*
X109852695Y-100166811D01*
X109857677Y-100164488D01*
X110006857Y-100060031D01*
X110035270Y-100040136D01*
X110035273Y-100040134D01*
X110039781Y-100036977D01*
X110196977Y-99879781D01*
X110210346Y-99860689D01*
X110321331Y-99702185D01*
X110321332Y-99702183D01*
X110324488Y-99697676D01*
X110326811Y-99692694D01*
X110326814Y-99692689D01*
X110416117Y-99501178D01*
X110416118Y-99501177D01*
X110418440Y-99496196D01*
X110424810Y-99472425D01*
X110468408Y-99309715D01*
X110475978Y-99281463D01*
X110495353Y-99060000D01*
X110475978Y-98838537D01*
X110437503Y-98694949D01*
X110419863Y-98629114D01*
X110419862Y-98629112D01*
X110418440Y-98623804D01*
X110416117Y-98618822D01*
X110326814Y-98427311D01*
X110326811Y-98427306D01*
X110324488Y-98422324D01*
X110317540Y-98412401D01*
X110200136Y-98244730D01*
X110200134Y-98244727D01*
X110196977Y-98240219D01*
X110039781Y-98083023D01*
X110035273Y-98079866D01*
X110035270Y-98079864D01*
X109895654Y-97982104D01*
X109857677Y-97955512D01*
X109852695Y-97953189D01*
X109852690Y-97953186D01*
X109747627Y-97904195D01*
X109694342Y-97857278D01*
X109674881Y-97789001D01*
X109695423Y-97721041D01*
X109747627Y-97675805D01*
X109852690Y-97626814D01*
X109852695Y-97626811D01*
X109857677Y-97624488D01*
X110006857Y-97520031D01*
X110035270Y-97500136D01*
X110035273Y-97500134D01*
X110039781Y-97496977D01*
X110196977Y-97339781D01*
X110210346Y-97320689D01*
X110321331Y-97162185D01*
X110321332Y-97162183D01*
X110324488Y-97157676D01*
X110326811Y-97152694D01*
X110326814Y-97152689D01*
X110416117Y-96961178D01*
X110416118Y-96961177D01*
X110418440Y-96956196D01*
X110424810Y-96932425D01*
X110468408Y-96769715D01*
X110475978Y-96741463D01*
X110495353Y-96520000D01*
X110475978Y-96298537D01*
X110437503Y-96154949D01*
X110419863Y-96089114D01*
X110419862Y-96089112D01*
X110418440Y-96083804D01*
X110416117Y-96078822D01*
X110326814Y-95887311D01*
X110326811Y-95887306D01*
X110324488Y-95882324D01*
X110317540Y-95872401D01*
X110200136Y-95704730D01*
X110200134Y-95704727D01*
X110196977Y-95700219D01*
X110039781Y-95543023D01*
X110035273Y-95539866D01*
X110035270Y-95539864D01*
X109895654Y-95442104D01*
X109857677Y-95415512D01*
X109852695Y-95413189D01*
X109852690Y-95413186D01*
X109747627Y-95364195D01*
X109694342Y-95317278D01*
X109674881Y-95249001D01*
X109695423Y-95181041D01*
X109747627Y-95135805D01*
X109852690Y-95086814D01*
X109852695Y-95086811D01*
X109857677Y-95084488D01*
X110006857Y-94980031D01*
X110035270Y-94960136D01*
X110035273Y-94960134D01*
X110039781Y-94956977D01*
X110196977Y-94799781D01*
X110210346Y-94780689D01*
X110321331Y-94622185D01*
X110321332Y-94622183D01*
X110324488Y-94617676D01*
X110326811Y-94612694D01*
X110326814Y-94612689D01*
X110416117Y-94421178D01*
X110416118Y-94421177D01*
X110418440Y-94416196D01*
X110424810Y-94392425D01*
X110468408Y-94229715D01*
X110475978Y-94201463D01*
X110495353Y-93980000D01*
X110475978Y-93758537D01*
X110437503Y-93614949D01*
X110419863Y-93549114D01*
X110419862Y-93549112D01*
X110418440Y-93543804D01*
X110416117Y-93538822D01*
X110326814Y-93347311D01*
X110326811Y-93347306D01*
X110324488Y-93342324D01*
X110317540Y-93332401D01*
X110200136Y-93164730D01*
X110200134Y-93164727D01*
X110196977Y-93160219D01*
X110039781Y-93003023D01*
X110035273Y-92999866D01*
X110035270Y-92999864D01*
X109895654Y-92902104D01*
X109857677Y-92875512D01*
X109852695Y-92873189D01*
X109852690Y-92873186D01*
X109747627Y-92824195D01*
X109694342Y-92777278D01*
X109674881Y-92709001D01*
X109695423Y-92641041D01*
X109747627Y-92595805D01*
X109852690Y-92546814D01*
X109852695Y-92546811D01*
X109857677Y-92544488D01*
X110006857Y-92440031D01*
X110035270Y-92420136D01*
X110035273Y-92420134D01*
X110039781Y-92416977D01*
X110196977Y-92259781D01*
X110210346Y-92240689D01*
X110321331Y-92082185D01*
X110321332Y-92082183D01*
X110324488Y-92077676D01*
X110326811Y-92072694D01*
X110326814Y-92072689D01*
X110416117Y-91881178D01*
X110416118Y-91881177D01*
X110418440Y-91876196D01*
X110424810Y-91852425D01*
X110468408Y-91689715D01*
X110475978Y-91661463D01*
X110495353Y-91440000D01*
X110475978Y-91218537D01*
X110437503Y-91074949D01*
X110419863Y-91009114D01*
X110419862Y-91009112D01*
X110418440Y-91003804D01*
X110416117Y-90998822D01*
X110326814Y-90807311D01*
X110326811Y-90807306D01*
X110324488Y-90802324D01*
X110317540Y-90792401D01*
X110200136Y-90624730D01*
X110200134Y-90624727D01*
X110196977Y-90620219D01*
X110039781Y-90463023D01*
X110035273Y-90459866D01*
X110035270Y-90459864D01*
X109895654Y-90362104D01*
X109857677Y-90335512D01*
X109852695Y-90333189D01*
X109852690Y-90333186D01*
X109747627Y-90284195D01*
X109694342Y-90237278D01*
X109674881Y-90169001D01*
X109695423Y-90101041D01*
X109747627Y-90055805D01*
X109852690Y-90006814D01*
X109852695Y-90006811D01*
X109857677Y-90004488D01*
X110006857Y-89900031D01*
X110035270Y-89880136D01*
X110035273Y-89880134D01*
X110039781Y-89876977D01*
X110196977Y-89719781D01*
X110210346Y-89700689D01*
X110321331Y-89542185D01*
X110321332Y-89542183D01*
X110324488Y-89537676D01*
X110326811Y-89532694D01*
X110326814Y-89532689D01*
X110416117Y-89341178D01*
X110416118Y-89341177D01*
X110418440Y-89336196D01*
X110424810Y-89312425D01*
X110468408Y-89149715D01*
X110475978Y-89121463D01*
X110495353Y-88900000D01*
X110475978Y-88678537D01*
X110437503Y-88534949D01*
X110419863Y-88469114D01*
X110419862Y-88469112D01*
X110418440Y-88463804D01*
X110416117Y-88458822D01*
X110326814Y-88267311D01*
X110326811Y-88267306D01*
X110324488Y-88262324D01*
X110317540Y-88252401D01*
X110200136Y-88084730D01*
X110200134Y-88084727D01*
X110196977Y-88080219D01*
X110039781Y-87923023D01*
X110035273Y-87919866D01*
X110035270Y-87919864D01*
X109895654Y-87822104D01*
X109857677Y-87795512D01*
X109852695Y-87793189D01*
X109852690Y-87793186D01*
X109747627Y-87744195D01*
X109694342Y-87697278D01*
X109674881Y-87629001D01*
X109695423Y-87561041D01*
X109747627Y-87515805D01*
X109852690Y-87466814D01*
X109852695Y-87466811D01*
X109857677Y-87464488D01*
X110006857Y-87360031D01*
X110035270Y-87340136D01*
X110035273Y-87340134D01*
X110039781Y-87336977D01*
X110196977Y-87179781D01*
X110210346Y-87160689D01*
X110321331Y-87002185D01*
X110321332Y-87002183D01*
X110324488Y-86997676D01*
X110326811Y-86992694D01*
X110326814Y-86992689D01*
X110416117Y-86801178D01*
X110416118Y-86801177D01*
X110418440Y-86796196D01*
X110424810Y-86772425D01*
X110468408Y-86609715D01*
X110475978Y-86581463D01*
X110495353Y-86360000D01*
X110475978Y-86138537D01*
X110437503Y-85994949D01*
X110419863Y-85929114D01*
X110419862Y-85929112D01*
X110418440Y-85923804D01*
X110416117Y-85918822D01*
X110326814Y-85727311D01*
X110326811Y-85727306D01*
X110324488Y-85722324D01*
X110317540Y-85712401D01*
X110200136Y-85544730D01*
X110200134Y-85544727D01*
X110196977Y-85540219D01*
X110039781Y-85383023D01*
X110035273Y-85379866D01*
X110035270Y-85379864D01*
X109883706Y-85273738D01*
X109857677Y-85255512D01*
X109852695Y-85253189D01*
X109852690Y-85253186D01*
X109747627Y-85204195D01*
X109694342Y-85157278D01*
X109674881Y-85089001D01*
X109695423Y-85021041D01*
X109747627Y-84975805D01*
X109852690Y-84926814D01*
X109852695Y-84926811D01*
X109857677Y-84924488D01*
X110006857Y-84820031D01*
X110035270Y-84800136D01*
X110035273Y-84800134D01*
X110039781Y-84796977D01*
X110196977Y-84639781D01*
X110201354Y-84633531D01*
X110321331Y-84462185D01*
X110321332Y-84462183D01*
X110324488Y-84457676D01*
X110326811Y-84452694D01*
X110326814Y-84452689D01*
X110416117Y-84261178D01*
X110416118Y-84261177D01*
X110418440Y-84256196D01*
X110475978Y-84041463D01*
X110495353Y-83820000D01*
X110475978Y-83598537D01*
X110437503Y-83454949D01*
X110419863Y-83389114D01*
X110419862Y-83389112D01*
X110418440Y-83383804D01*
X110349443Y-83235840D01*
X110326814Y-83187311D01*
X110326811Y-83187306D01*
X110324488Y-83182324D01*
X110317540Y-83172401D01*
X110200136Y-83004730D01*
X110200134Y-83004727D01*
X110196977Y-83000219D01*
X110039781Y-82843023D01*
X110035273Y-82839866D01*
X110035270Y-82839864D01*
X109880800Y-82731703D01*
X109857677Y-82715512D01*
X109852695Y-82713189D01*
X109852690Y-82713186D01*
X109661178Y-82623883D01*
X109661177Y-82623882D01*
X109656196Y-82621560D01*
X109650888Y-82620138D01*
X109650886Y-82620137D01*
X109580802Y-82601358D01*
X109441463Y-82564022D01*
X109220000Y-82544647D01*
X108998537Y-82564022D01*
X108859198Y-82601358D01*
X108789114Y-82620137D01*
X108789112Y-82620138D01*
X108783804Y-82621560D01*
X108778823Y-82623882D01*
X108778822Y-82623883D01*
X108587311Y-82713186D01*
X108587306Y-82713189D01*
X108582324Y-82715512D01*
X108577817Y-82718668D01*
X108577815Y-82718669D01*
X108404730Y-82839864D01*
X108404727Y-82839866D01*
X108400219Y-82843023D01*
X108243023Y-83000219D01*
X108239866Y-83004727D01*
X108239864Y-83004730D01*
X108122460Y-83172401D01*
X108115512Y-83182324D01*
X108113189Y-83187306D01*
X108113186Y-83187311D01*
X108090557Y-83235840D01*
X108021560Y-83383804D01*
X108020138Y-83389112D01*
X108020137Y-83389114D01*
X108002497Y-83454949D01*
X107964022Y-83598537D01*
X107944647Y-83820000D01*
X107964022Y-84041463D01*
X108021560Y-84256196D01*
X108023882Y-84261177D01*
X108023883Y-84261178D01*
X108113186Y-84452689D01*
X108113189Y-84452694D01*
X108115512Y-84457676D01*
X108118668Y-84462183D01*
X108118669Y-84462185D01*
X108238647Y-84633531D01*
X108243023Y-84639781D01*
X108400219Y-84796977D01*
X108404727Y-84800134D01*
X108404730Y-84800136D01*
X108433143Y-84820031D01*
X108582323Y-84924488D01*
X108587305Y-84926811D01*
X108587310Y-84926814D01*
X108692373Y-84975805D01*
X108745658Y-85022722D01*
X108765119Y-85090999D01*
X108744577Y-85158959D01*
X108692373Y-85204195D01*
X108587311Y-85253186D01*
X108587306Y-85253189D01*
X108582324Y-85255512D01*
X108577817Y-85258668D01*
X108577815Y-85258669D01*
X108404730Y-85379864D01*
X108404727Y-85379866D01*
X108400219Y-85383023D01*
X108243023Y-85540219D01*
X108239866Y-85544727D01*
X108239864Y-85544730D01*
X108122460Y-85712401D01*
X108115512Y-85722324D01*
X108113189Y-85727306D01*
X108113186Y-85727311D01*
X108023883Y-85918822D01*
X108021560Y-85923804D01*
X108020138Y-85929112D01*
X108020137Y-85929114D01*
X108002497Y-85994949D01*
X107964022Y-86138537D01*
X107944647Y-86360000D01*
X107964022Y-86581463D01*
X107971592Y-86609715D01*
X108015191Y-86772425D01*
X108021560Y-86796196D01*
X108023882Y-86801177D01*
X108023883Y-86801178D01*
X108113186Y-86992689D01*
X108113189Y-86992694D01*
X108115512Y-86997676D01*
X108118668Y-87002183D01*
X108118669Y-87002185D01*
X108229655Y-87160689D01*
X108243023Y-87179781D01*
X108400219Y-87336977D01*
X108404727Y-87340134D01*
X108404730Y-87340136D01*
X108433143Y-87360031D01*
X108582323Y-87464488D01*
X108587305Y-87466811D01*
X108587310Y-87466814D01*
X108692373Y-87515805D01*
X108745658Y-87562722D01*
X108765119Y-87630999D01*
X108744577Y-87698959D01*
X108692373Y-87744195D01*
X108587311Y-87793186D01*
X108587306Y-87793189D01*
X108582324Y-87795512D01*
X108577817Y-87798668D01*
X108577815Y-87798669D01*
X108404730Y-87919864D01*
X108404727Y-87919866D01*
X108400219Y-87923023D01*
X108243023Y-88080219D01*
X108239866Y-88084727D01*
X108239864Y-88084730D01*
X108122460Y-88252401D01*
X108115512Y-88262324D01*
X108113189Y-88267306D01*
X108113186Y-88267311D01*
X108023883Y-88458822D01*
X108021560Y-88463804D01*
X108020138Y-88469112D01*
X108020137Y-88469114D01*
X108002497Y-88534949D01*
X107964022Y-88678537D01*
X107944647Y-88900000D01*
X107964022Y-89121463D01*
X107971592Y-89149715D01*
X108015191Y-89312425D01*
X108021560Y-89336196D01*
X108023882Y-89341177D01*
X108023883Y-89341178D01*
X108113186Y-89532689D01*
X108113189Y-89532694D01*
X108115512Y-89537676D01*
X108118668Y-89542183D01*
X108118669Y-89542185D01*
X108229655Y-89700689D01*
X108243023Y-89719781D01*
X108400219Y-89876977D01*
X108404727Y-89880134D01*
X108404730Y-89880136D01*
X108433143Y-89900031D01*
X108582323Y-90004488D01*
X108587305Y-90006811D01*
X108587310Y-90006814D01*
X108692373Y-90055805D01*
X108745658Y-90102722D01*
X108765119Y-90170999D01*
X108744577Y-90238959D01*
X108692373Y-90284195D01*
X108587311Y-90333186D01*
X108587306Y-90333189D01*
X108582324Y-90335512D01*
X108577817Y-90338668D01*
X108577815Y-90338669D01*
X108404730Y-90459864D01*
X108404727Y-90459866D01*
X108400219Y-90463023D01*
X108243023Y-90620219D01*
X108239866Y-90624727D01*
X108239864Y-90624730D01*
X108122460Y-90792401D01*
X108115512Y-90802324D01*
X108113189Y-90807306D01*
X108113186Y-90807311D01*
X108023883Y-90998822D01*
X108021560Y-91003804D01*
X108020138Y-91009112D01*
X108020137Y-91009114D01*
X108002497Y-91074949D01*
X107964022Y-91218537D01*
X107944647Y-91440000D01*
X107964022Y-91661463D01*
X107971592Y-91689715D01*
X108015191Y-91852425D01*
X108021560Y-91876196D01*
X108023882Y-91881177D01*
X108023883Y-91881178D01*
X108113186Y-92072689D01*
X108113189Y-92072694D01*
X108115512Y-92077676D01*
X108118668Y-92082183D01*
X108118669Y-92082185D01*
X108229655Y-92240689D01*
X108243023Y-92259781D01*
X108400219Y-92416977D01*
X108404727Y-92420134D01*
X108404730Y-92420136D01*
X108433143Y-92440031D01*
X108582323Y-92544488D01*
X108587305Y-92546811D01*
X108587310Y-92546814D01*
X108692373Y-92595805D01*
X108745658Y-92642722D01*
X108765119Y-92710999D01*
X108744577Y-92778959D01*
X108692373Y-92824195D01*
X108587311Y-92873186D01*
X108587306Y-92873189D01*
X108582324Y-92875512D01*
X108577817Y-92878668D01*
X108577815Y-92878669D01*
X108404730Y-92999864D01*
X108404727Y-92999866D01*
X108400219Y-93003023D01*
X108243023Y-93160219D01*
X108239866Y-93164727D01*
X108239864Y-93164730D01*
X108122460Y-93332401D01*
X108115512Y-93342324D01*
X108113189Y-93347306D01*
X108113186Y-93347311D01*
X108023883Y-93538822D01*
X108021560Y-93543804D01*
X108020138Y-93549112D01*
X108020137Y-93549114D01*
X108002497Y-93614949D01*
X107964022Y-93758537D01*
X107944647Y-93980000D01*
X107964022Y-94201463D01*
X107971592Y-94229715D01*
X108015191Y-94392425D01*
X108021560Y-94416196D01*
X108023882Y-94421177D01*
X108023883Y-94421178D01*
X108113186Y-94612689D01*
X108113189Y-94612694D01*
X108115512Y-94617676D01*
X108118668Y-94622183D01*
X108118669Y-94622185D01*
X108229655Y-94780689D01*
X108243023Y-94799781D01*
X108400219Y-94956977D01*
X108404727Y-94960134D01*
X108404730Y-94960136D01*
X108433143Y-94980031D01*
X108582323Y-95084488D01*
X108587305Y-95086811D01*
X108587310Y-95086814D01*
X108692373Y-95135805D01*
X108745658Y-95182722D01*
X108765119Y-95250999D01*
X108744577Y-95318959D01*
X108692373Y-95364195D01*
X108587311Y-95413186D01*
X108587306Y-95413189D01*
X108582324Y-95415512D01*
X108577817Y-95418668D01*
X108577815Y-95418669D01*
X108404730Y-95539864D01*
X108404727Y-95539866D01*
X108400219Y-95543023D01*
X108243023Y-95700219D01*
X108239866Y-95704727D01*
X108239864Y-95704730D01*
X108122460Y-95872401D01*
X108115512Y-95882324D01*
X108113189Y-95887306D01*
X108113186Y-95887311D01*
X108023883Y-96078822D01*
X108021560Y-96083804D01*
X108020138Y-96089112D01*
X108020137Y-96089114D01*
X108002497Y-96154949D01*
X107964022Y-96298537D01*
X107944647Y-96520000D01*
X107964022Y-96741463D01*
X107971592Y-96769715D01*
X108015191Y-96932425D01*
X108021560Y-96956196D01*
X108023882Y-96961177D01*
X108023883Y-96961178D01*
X108113186Y-97152689D01*
X108113189Y-97152694D01*
X108115512Y-97157676D01*
X108118668Y-97162183D01*
X108118669Y-97162185D01*
X108229655Y-97320689D01*
X108243023Y-97339781D01*
X108400219Y-97496977D01*
X108404727Y-97500134D01*
X108404730Y-97500136D01*
X108433143Y-97520031D01*
X108582323Y-97624488D01*
X108587305Y-97626811D01*
X108587310Y-97626814D01*
X108692373Y-97675805D01*
X108745658Y-97722722D01*
X108765119Y-97790999D01*
X108744577Y-97858959D01*
X108692373Y-97904195D01*
X108587311Y-97953186D01*
X108587306Y-97953189D01*
X108582324Y-97955512D01*
X108577817Y-97958668D01*
X108577815Y-97958669D01*
X108404730Y-98079864D01*
X108404727Y-98079866D01*
X108400219Y-98083023D01*
X108243023Y-98240219D01*
X108239866Y-98244727D01*
X108239864Y-98244730D01*
X108122460Y-98412401D01*
X108115512Y-98422324D01*
X108113189Y-98427306D01*
X108113186Y-98427311D01*
X108023883Y-98618822D01*
X108021560Y-98623804D01*
X108020138Y-98629112D01*
X108020137Y-98629114D01*
X108002497Y-98694949D01*
X107964022Y-98838537D01*
X107944647Y-99060000D01*
X107964022Y-99281463D01*
X107971592Y-99309715D01*
X108015191Y-99472425D01*
X108021560Y-99496196D01*
X108023882Y-99501177D01*
X108023883Y-99501178D01*
X108113186Y-99692689D01*
X108113189Y-99692694D01*
X108115512Y-99697676D01*
X108118668Y-99702183D01*
X108118669Y-99702185D01*
X108229655Y-99860689D01*
X108243023Y-99879781D01*
X108400219Y-100036977D01*
X108404727Y-100040134D01*
X108404730Y-100040136D01*
X108433143Y-100060031D01*
X108582323Y-100164488D01*
X108587305Y-100166811D01*
X108587310Y-100166814D01*
X108692373Y-100215805D01*
X108745658Y-100262722D01*
X108765119Y-100330999D01*
X108744577Y-100398959D01*
X108692373Y-100444195D01*
X108587311Y-100493186D01*
X108587306Y-100493189D01*
X108582324Y-100495512D01*
X108577817Y-100498668D01*
X108577815Y-100498669D01*
X108404730Y-100619864D01*
X108404727Y-100619866D01*
X108400219Y-100623023D01*
X108243023Y-100780219D01*
X108239866Y-100784727D01*
X108239864Y-100784730D01*
X108122286Y-100952649D01*
X108115512Y-100962324D01*
X108113189Y-100967306D01*
X108113186Y-100967311D01*
X108023883Y-101158822D01*
X108021560Y-101163804D01*
X108020138Y-101169112D01*
X108020137Y-101169114D01*
X108002497Y-101234949D01*
X107964022Y-101378537D01*
X107944647Y-101600000D01*
X107964022Y-101821463D01*
X107981869Y-101888069D01*
X108015191Y-102012425D01*
X108021560Y-102036196D01*
X108023882Y-102041177D01*
X108023883Y-102041178D01*
X108113186Y-102232689D01*
X108113189Y-102232694D01*
X108115512Y-102237676D01*
X108118668Y-102242183D01*
X108118669Y-102242185D01*
X108229655Y-102400689D01*
X108243023Y-102419781D01*
X108400219Y-102576977D01*
X108404727Y-102580134D01*
X108404730Y-102580136D01*
X108442929Y-102606883D01*
X108582323Y-102704488D01*
X108587305Y-102706811D01*
X108587310Y-102706814D01*
X108692373Y-102755805D01*
X108745658Y-102802722D01*
X108765119Y-102870999D01*
X108744577Y-102938959D01*
X108692373Y-102984195D01*
X108587311Y-103033186D01*
X108587306Y-103033189D01*
X108582324Y-103035512D01*
X108577817Y-103038668D01*
X108577815Y-103038669D01*
X108404730Y-103159864D01*
X108404727Y-103159866D01*
X108400219Y-103163023D01*
X108243023Y-103320219D01*
X108239866Y-103324727D01*
X108239864Y-103324730D01*
X108122460Y-103492401D01*
X108115512Y-103502324D01*
X108113189Y-103507306D01*
X108113186Y-103507311D01*
X108023883Y-103698822D01*
X108021560Y-103703804D01*
X107964022Y-103918537D01*
X107944647Y-104140000D01*
X107964022Y-104361463D01*
X107989830Y-104457778D01*
X108015191Y-104552425D01*
X108021560Y-104576196D01*
X108023882Y-104581177D01*
X108023883Y-104581178D01*
X108113186Y-104772689D01*
X108113189Y-104772694D01*
X108115512Y-104777676D01*
X108118668Y-104782183D01*
X108118669Y-104782185D01*
X108229655Y-104940689D01*
X108243023Y-104959781D01*
X108400219Y-105116977D01*
X108404727Y-105120134D01*
X108404730Y-105120136D01*
X108433143Y-105140031D01*
X108582323Y-105244488D01*
X108587305Y-105246811D01*
X108587310Y-105246814D01*
X108692373Y-105295805D01*
X108745658Y-105342722D01*
X108765119Y-105410999D01*
X108744577Y-105478959D01*
X108692373Y-105524195D01*
X108587311Y-105573186D01*
X108587306Y-105573189D01*
X108582324Y-105575512D01*
X108577817Y-105578668D01*
X108577815Y-105578669D01*
X108404730Y-105699864D01*
X108404727Y-105699866D01*
X108400219Y-105703023D01*
X108243023Y-105860219D01*
X108239866Y-105864727D01*
X108239864Y-105864730D01*
X108120052Y-106035840D01*
X108115512Y-106042324D01*
X108113189Y-106047306D01*
X108113186Y-106047311D01*
X108023883Y-106238822D01*
X108021560Y-106243804D01*
X108020138Y-106249112D01*
X108020137Y-106249114D01*
X108002497Y-106314949D01*
X107964022Y-106458537D01*
X107944647Y-106680000D01*
X107964022Y-106901463D01*
X107971592Y-106929715D01*
X108015191Y-107092425D01*
X108021560Y-107116196D01*
X108023882Y-107121177D01*
X108023883Y-107121178D01*
X108113186Y-107312689D01*
X108113189Y-107312694D01*
X108115512Y-107317676D01*
X108118668Y-107322183D01*
X108118669Y-107322185D01*
X108229655Y-107480689D01*
X108243023Y-107499781D01*
X108400219Y-107656977D01*
X108404727Y-107660134D01*
X108404730Y-107660136D01*
X108475988Y-107710031D01*
X108582323Y-107784488D01*
X108587305Y-107786811D01*
X108587310Y-107786814D01*
X108692373Y-107835805D01*
X108745658Y-107882722D01*
X108765119Y-107950999D01*
X108744577Y-108018959D01*
X108692373Y-108064195D01*
X108587311Y-108113186D01*
X108587306Y-108113189D01*
X108582324Y-108115512D01*
X108577817Y-108118668D01*
X108577815Y-108118669D01*
X108404730Y-108239864D01*
X108404727Y-108239866D01*
X108400219Y-108243023D01*
X108243023Y-108400219D01*
X108239866Y-108404727D01*
X108239864Y-108404730D01*
X108120052Y-108575840D01*
X108115512Y-108582324D01*
X108113189Y-108587306D01*
X108113186Y-108587311D01*
X108023883Y-108778822D01*
X108021560Y-108783804D01*
X107964022Y-108998537D01*
X107944647Y-109220000D01*
X107964022Y-109441463D01*
X107965446Y-109446776D01*
X108015191Y-109632425D01*
X108021560Y-109656196D01*
X108023882Y-109661177D01*
X108023883Y-109661178D01*
X108113186Y-109852689D01*
X108113189Y-109852694D01*
X108115512Y-109857676D01*
X108118668Y-109862183D01*
X108118669Y-109862185D01*
X108229655Y-110020689D01*
X108243023Y-110039781D01*
X108400219Y-110196977D01*
X108404727Y-110200134D01*
X108404730Y-110200136D01*
X108480495Y-110253187D01*
X108582323Y-110324488D01*
X108587305Y-110326811D01*
X108587310Y-110326814D01*
X108692373Y-110375805D01*
X108745658Y-110422722D01*
X108765119Y-110490999D01*
X108744577Y-110558959D01*
X108692373Y-110604195D01*
X108587311Y-110653186D01*
X108587306Y-110653189D01*
X108582324Y-110655512D01*
X108577817Y-110658668D01*
X108577815Y-110658669D01*
X108404730Y-110779864D01*
X108404727Y-110779866D01*
X108400219Y-110783023D01*
X108243023Y-110940219D01*
X108239866Y-110944727D01*
X108239864Y-110944730D01*
X108120052Y-111115840D01*
X108115512Y-111122324D01*
X108113189Y-111127306D01*
X108113186Y-111127311D01*
X108023883Y-111318822D01*
X108021560Y-111323804D01*
X107964022Y-111538537D01*
X107944647Y-111760000D01*
X107964022Y-111981463D01*
X107965446Y-111986776D01*
X108015191Y-112172425D01*
X108021560Y-112196196D01*
X108023882Y-112201177D01*
X108023883Y-112201178D01*
X108113186Y-112392689D01*
X108113189Y-112392694D01*
X108115512Y-112397676D01*
X108118668Y-112402183D01*
X108118669Y-112402185D01*
X108229655Y-112560689D01*
X108243023Y-112579781D01*
X108400219Y-112736977D01*
X108404727Y-112740134D01*
X108404730Y-112740136D01*
X108480495Y-112793187D01*
X108582323Y-112864488D01*
X108587305Y-112866811D01*
X108587310Y-112866814D01*
X108692373Y-112915805D01*
X108745658Y-112962722D01*
X108765119Y-113030999D01*
X108744577Y-113098959D01*
X108692373Y-113144195D01*
X108587311Y-113193186D01*
X108587306Y-113193189D01*
X108582324Y-113195512D01*
X108577817Y-113198668D01*
X108577815Y-113198669D01*
X108404730Y-113319864D01*
X108404727Y-113319866D01*
X108400219Y-113323023D01*
X108243023Y-113480219D01*
X108239866Y-113484727D01*
X108239864Y-113484730D01*
X108120052Y-113655840D01*
X108115512Y-113662324D01*
X108113189Y-113667306D01*
X108113186Y-113667311D01*
X108023883Y-113858822D01*
X108021560Y-113863804D01*
X107964022Y-114078537D01*
X107944647Y-114300000D01*
X85095353Y-114300000D01*
X85075978Y-114078537D01*
X85018440Y-113863804D01*
X85016117Y-113858822D01*
X84926814Y-113667311D01*
X84926811Y-113667306D01*
X84924488Y-113662324D01*
X84919948Y-113655840D01*
X84800136Y-113484730D01*
X84800134Y-113484727D01*
X84796977Y-113480219D01*
X84639781Y-113323023D01*
X84635273Y-113319866D01*
X84635270Y-113319864D01*
X84559505Y-113266813D01*
X84457677Y-113195512D01*
X84452695Y-113193189D01*
X84452690Y-113193186D01*
X84347627Y-113144195D01*
X84294342Y-113097278D01*
X84274881Y-113029001D01*
X84295423Y-112961041D01*
X84347627Y-112915805D01*
X84452690Y-112866814D01*
X84452695Y-112866811D01*
X84457677Y-112864488D01*
X84559505Y-112793187D01*
X84635270Y-112740136D01*
X84635273Y-112740134D01*
X84639781Y-112736977D01*
X84796977Y-112579781D01*
X84810346Y-112560689D01*
X84921331Y-112402185D01*
X84921332Y-112402183D01*
X84924488Y-112397676D01*
X84926811Y-112392694D01*
X84926814Y-112392689D01*
X85016117Y-112201178D01*
X85016118Y-112201177D01*
X85018440Y-112196196D01*
X85024810Y-112172425D01*
X85074554Y-111986776D01*
X85075978Y-111981463D01*
X85095353Y-111760000D01*
X85075978Y-111538537D01*
X85018440Y-111323804D01*
X85016117Y-111318822D01*
X84926814Y-111127311D01*
X84926811Y-111127306D01*
X84924488Y-111122324D01*
X84919948Y-111115840D01*
X84800136Y-110944730D01*
X84800134Y-110944727D01*
X84796977Y-110940219D01*
X84639781Y-110783023D01*
X84635273Y-110779866D01*
X84635270Y-110779864D01*
X84559505Y-110726813D01*
X84457677Y-110655512D01*
X84452695Y-110653189D01*
X84452690Y-110653186D01*
X84347627Y-110604195D01*
X84294342Y-110557278D01*
X84274881Y-110489001D01*
X84295423Y-110421041D01*
X84347627Y-110375805D01*
X84452690Y-110326814D01*
X84452695Y-110326811D01*
X84457677Y-110324488D01*
X84559505Y-110253187D01*
X84635270Y-110200136D01*
X84635273Y-110200134D01*
X84639781Y-110196977D01*
X84796977Y-110039781D01*
X84810346Y-110020689D01*
X84921331Y-109862185D01*
X84921332Y-109862183D01*
X84924488Y-109857676D01*
X84926811Y-109852694D01*
X84926814Y-109852689D01*
X85016117Y-109661178D01*
X85016118Y-109661177D01*
X85018440Y-109656196D01*
X85024810Y-109632425D01*
X85074554Y-109446776D01*
X85075978Y-109441463D01*
X85095353Y-109220000D01*
X85075978Y-108998537D01*
X85018440Y-108783804D01*
X85016117Y-108778822D01*
X84926814Y-108587311D01*
X84926811Y-108587306D01*
X84924488Y-108582324D01*
X84919948Y-108575840D01*
X84800136Y-108404730D01*
X84800134Y-108404727D01*
X84796977Y-108400219D01*
X84639781Y-108243023D01*
X84635273Y-108239866D01*
X84635270Y-108239864D01*
X84559505Y-108186813D01*
X84457677Y-108115512D01*
X84452695Y-108113189D01*
X84452690Y-108113186D01*
X84347627Y-108064195D01*
X84294342Y-108017278D01*
X84274881Y-107949001D01*
X84295423Y-107881041D01*
X84347627Y-107835805D01*
X84452690Y-107786814D01*
X84452695Y-107786811D01*
X84457677Y-107784488D01*
X84564012Y-107710031D01*
X84635270Y-107660136D01*
X84635273Y-107660134D01*
X84639781Y-107656977D01*
X84796977Y-107499781D01*
X84810346Y-107480689D01*
X84921331Y-107322185D01*
X84921332Y-107322183D01*
X84924488Y-107317676D01*
X84926811Y-107312694D01*
X84926814Y-107312689D01*
X85016117Y-107121178D01*
X85016118Y-107121177D01*
X85018440Y-107116196D01*
X85024810Y-107092425D01*
X85068408Y-106929715D01*
X85075978Y-106901463D01*
X85095353Y-106680000D01*
X85075978Y-106458537D01*
X85037503Y-106314949D01*
X85019863Y-106249114D01*
X85019862Y-106249112D01*
X85018440Y-106243804D01*
X85016117Y-106238822D01*
X84926814Y-106047311D01*
X84926811Y-106047306D01*
X84924488Y-106042324D01*
X84919948Y-106035840D01*
X84800136Y-105864730D01*
X84800134Y-105864727D01*
X84796977Y-105860219D01*
X84639781Y-105703023D01*
X84635273Y-105699866D01*
X84635270Y-105699864D01*
X84499216Y-105604598D01*
X84457677Y-105575512D01*
X84452695Y-105573189D01*
X84452690Y-105573186D01*
X84347627Y-105524195D01*
X84294342Y-105477278D01*
X84274881Y-105409001D01*
X84295423Y-105341041D01*
X84347627Y-105295805D01*
X84452690Y-105246814D01*
X84452695Y-105246811D01*
X84457677Y-105244488D01*
X84606857Y-105140031D01*
X84635270Y-105120136D01*
X84635273Y-105120134D01*
X84639781Y-105116977D01*
X84796977Y-104959781D01*
X84810346Y-104940689D01*
X84921331Y-104782185D01*
X84921332Y-104782183D01*
X84924488Y-104777676D01*
X84926811Y-104772694D01*
X84926814Y-104772689D01*
X85016117Y-104581178D01*
X85016118Y-104581177D01*
X85018440Y-104576196D01*
X85024810Y-104552425D01*
X85050170Y-104457778D01*
X85075978Y-104361463D01*
X85095353Y-104140000D01*
X85075978Y-103918537D01*
X85018440Y-103703804D01*
X85016117Y-103698822D01*
X84926814Y-103507311D01*
X84926811Y-103507306D01*
X84924488Y-103502324D01*
X84917540Y-103492401D01*
X84800136Y-103324730D01*
X84800134Y-103324727D01*
X84796977Y-103320219D01*
X84639781Y-103163023D01*
X84635273Y-103159866D01*
X84635270Y-103159864D01*
X84559505Y-103106813D01*
X84457677Y-103035512D01*
X84452695Y-103033189D01*
X84452690Y-103033186D01*
X84347627Y-102984195D01*
X84294342Y-102937278D01*
X84274881Y-102869001D01*
X84295423Y-102801041D01*
X84347627Y-102755805D01*
X84452690Y-102706814D01*
X84452695Y-102706811D01*
X84457677Y-102704488D01*
X84597071Y-102606883D01*
X84635270Y-102580136D01*
X84635273Y-102580134D01*
X84639781Y-102576977D01*
X84796977Y-102419781D01*
X84810346Y-102400689D01*
X84921331Y-102242185D01*
X84921332Y-102242183D01*
X84924488Y-102237676D01*
X84926811Y-102232694D01*
X84926814Y-102232689D01*
X85016117Y-102041178D01*
X85016118Y-102041177D01*
X85018440Y-102036196D01*
X85024810Y-102012425D01*
X85058131Y-101888069D01*
X85075978Y-101821463D01*
X85095353Y-101600000D01*
X85075978Y-101378537D01*
X85037503Y-101234949D01*
X85019863Y-101169114D01*
X85019862Y-101169112D01*
X85018440Y-101163804D01*
X85016117Y-101158822D01*
X84926814Y-100967311D01*
X84926811Y-100967306D01*
X84924488Y-100962324D01*
X84917714Y-100952649D01*
X84800136Y-100784730D01*
X84800134Y-100784727D01*
X84796977Y-100780219D01*
X84639781Y-100623023D01*
X84635273Y-100619866D01*
X84635270Y-100619864D01*
X84495654Y-100522104D01*
X84457677Y-100495512D01*
X84452695Y-100493189D01*
X84452690Y-100493186D01*
X84347627Y-100444195D01*
X84294342Y-100397278D01*
X84274881Y-100329001D01*
X84295423Y-100261041D01*
X84347627Y-100215805D01*
X84452690Y-100166814D01*
X84452695Y-100166811D01*
X84457677Y-100164488D01*
X84606857Y-100060031D01*
X84635270Y-100040136D01*
X84635273Y-100040134D01*
X84639781Y-100036977D01*
X84796977Y-99879781D01*
X84810346Y-99860689D01*
X84921331Y-99702185D01*
X84921332Y-99702183D01*
X84924488Y-99697676D01*
X84926811Y-99692694D01*
X84926814Y-99692689D01*
X85016117Y-99501178D01*
X85016118Y-99501177D01*
X85018440Y-99496196D01*
X85024810Y-99472425D01*
X85068408Y-99309715D01*
X85075978Y-99281463D01*
X85095353Y-99060000D01*
X85075978Y-98838537D01*
X85037503Y-98694949D01*
X85019863Y-98629114D01*
X85019862Y-98629112D01*
X85018440Y-98623804D01*
X85016117Y-98618822D01*
X84926814Y-98427311D01*
X84926811Y-98427306D01*
X84924488Y-98422324D01*
X84917540Y-98412401D01*
X84800136Y-98244730D01*
X84800134Y-98244727D01*
X84796977Y-98240219D01*
X84639781Y-98083023D01*
X84635273Y-98079866D01*
X84635270Y-98079864D01*
X84495654Y-97982104D01*
X84457677Y-97955512D01*
X84452695Y-97953189D01*
X84452690Y-97953186D01*
X84347627Y-97904195D01*
X84294342Y-97857278D01*
X84274881Y-97789001D01*
X84295423Y-97721041D01*
X84347627Y-97675805D01*
X84452690Y-97626814D01*
X84452695Y-97626811D01*
X84457677Y-97624488D01*
X84606857Y-97520031D01*
X84635270Y-97500136D01*
X84635273Y-97500134D01*
X84639781Y-97496977D01*
X84796977Y-97339781D01*
X84810346Y-97320689D01*
X84921331Y-97162185D01*
X84921332Y-97162183D01*
X84924488Y-97157676D01*
X84926811Y-97152694D01*
X84926814Y-97152689D01*
X85016117Y-96961178D01*
X85016118Y-96961177D01*
X85018440Y-96956196D01*
X85024810Y-96932425D01*
X85068408Y-96769715D01*
X85075978Y-96741463D01*
X85095353Y-96520000D01*
X85075978Y-96298537D01*
X85037503Y-96154949D01*
X85019863Y-96089114D01*
X85019862Y-96089112D01*
X85018440Y-96083804D01*
X85016117Y-96078822D01*
X84926814Y-95887311D01*
X84926811Y-95887306D01*
X84924488Y-95882324D01*
X84917540Y-95872401D01*
X84800136Y-95704730D01*
X84800134Y-95704727D01*
X84796977Y-95700219D01*
X84639781Y-95543023D01*
X84635273Y-95539866D01*
X84635270Y-95539864D01*
X84495654Y-95442104D01*
X84457677Y-95415512D01*
X84452695Y-95413189D01*
X84452690Y-95413186D01*
X84347627Y-95364195D01*
X84294342Y-95317278D01*
X84274881Y-95249001D01*
X84295423Y-95181041D01*
X84347627Y-95135805D01*
X84452690Y-95086814D01*
X84452695Y-95086811D01*
X84457677Y-95084488D01*
X84606857Y-94980031D01*
X84635270Y-94960136D01*
X84635273Y-94960134D01*
X84639781Y-94956977D01*
X84796977Y-94799781D01*
X84810346Y-94780689D01*
X84921331Y-94622185D01*
X84921332Y-94622183D01*
X84924488Y-94617676D01*
X84926811Y-94612694D01*
X84926814Y-94612689D01*
X85016117Y-94421178D01*
X85016118Y-94421177D01*
X85018440Y-94416196D01*
X85024810Y-94392425D01*
X85068408Y-94229715D01*
X85075978Y-94201463D01*
X85095353Y-93980000D01*
X85075978Y-93758537D01*
X85037503Y-93614949D01*
X85019863Y-93549114D01*
X85019862Y-93549112D01*
X85018440Y-93543804D01*
X85016117Y-93538822D01*
X84926814Y-93347311D01*
X84926811Y-93347306D01*
X84924488Y-93342324D01*
X84917540Y-93332401D01*
X84800136Y-93164730D01*
X84800134Y-93164727D01*
X84796977Y-93160219D01*
X84639781Y-93003023D01*
X84635273Y-92999866D01*
X84635270Y-92999864D01*
X84495654Y-92902104D01*
X84457677Y-92875512D01*
X84452695Y-92873189D01*
X84452690Y-92873186D01*
X84347627Y-92824195D01*
X84294342Y-92777278D01*
X84274881Y-92709001D01*
X84295423Y-92641041D01*
X84347627Y-92595805D01*
X84452690Y-92546814D01*
X84452695Y-92546811D01*
X84457677Y-92544488D01*
X84606857Y-92440031D01*
X84635270Y-92420136D01*
X84635273Y-92420134D01*
X84639781Y-92416977D01*
X84796977Y-92259781D01*
X84810346Y-92240689D01*
X84921331Y-92082185D01*
X84921332Y-92082183D01*
X84924488Y-92077676D01*
X84926811Y-92072694D01*
X84926814Y-92072689D01*
X85016117Y-91881178D01*
X85016118Y-91881177D01*
X85018440Y-91876196D01*
X85024810Y-91852425D01*
X85068408Y-91689715D01*
X85075978Y-91661463D01*
X85095353Y-91440000D01*
X85075978Y-91218537D01*
X85037503Y-91074949D01*
X85019863Y-91009114D01*
X85019862Y-91009112D01*
X85018440Y-91003804D01*
X85016117Y-90998822D01*
X84926814Y-90807311D01*
X84926811Y-90807306D01*
X84924488Y-90802324D01*
X84917540Y-90792401D01*
X84800136Y-90624730D01*
X84800134Y-90624727D01*
X84796977Y-90620219D01*
X84639781Y-90463023D01*
X84635273Y-90459866D01*
X84635270Y-90459864D01*
X84495654Y-90362104D01*
X84457677Y-90335512D01*
X84452695Y-90333189D01*
X84452690Y-90333186D01*
X84347627Y-90284195D01*
X84294342Y-90237278D01*
X84274881Y-90169001D01*
X84295423Y-90101041D01*
X84347627Y-90055805D01*
X84452690Y-90006814D01*
X84452695Y-90006811D01*
X84457677Y-90004488D01*
X84606857Y-89900031D01*
X84635270Y-89880136D01*
X84635273Y-89880134D01*
X84639781Y-89876977D01*
X84796977Y-89719781D01*
X84810346Y-89700689D01*
X84921331Y-89542185D01*
X84921332Y-89542183D01*
X84924488Y-89537676D01*
X84926811Y-89532694D01*
X84926814Y-89532689D01*
X85016117Y-89341178D01*
X85016118Y-89341177D01*
X85018440Y-89336196D01*
X85024810Y-89312425D01*
X85068408Y-89149715D01*
X85075978Y-89121463D01*
X85095353Y-88900000D01*
X85075978Y-88678537D01*
X85037503Y-88534949D01*
X85019863Y-88469114D01*
X85019862Y-88469112D01*
X85018440Y-88463804D01*
X85016117Y-88458822D01*
X84926814Y-88267311D01*
X84926811Y-88267306D01*
X84924488Y-88262324D01*
X84917540Y-88252401D01*
X84800136Y-88084730D01*
X84800134Y-88084727D01*
X84796977Y-88080219D01*
X84639781Y-87923023D01*
X84635273Y-87919866D01*
X84635270Y-87919864D01*
X84495654Y-87822104D01*
X84457677Y-87795512D01*
X84452695Y-87793189D01*
X84452690Y-87793186D01*
X84347627Y-87744195D01*
X84294342Y-87697278D01*
X84274881Y-87629001D01*
X84295423Y-87561041D01*
X84347627Y-87515805D01*
X84452690Y-87466814D01*
X84452695Y-87466811D01*
X84457677Y-87464488D01*
X84606857Y-87360031D01*
X84635270Y-87340136D01*
X84635273Y-87340134D01*
X84639781Y-87336977D01*
X84796977Y-87179781D01*
X84810346Y-87160689D01*
X84921331Y-87002185D01*
X84921332Y-87002183D01*
X84924488Y-86997676D01*
X84926811Y-86992694D01*
X84926814Y-86992689D01*
X85016117Y-86801178D01*
X85016118Y-86801177D01*
X85018440Y-86796196D01*
X85024810Y-86772425D01*
X85068408Y-86609715D01*
X85075978Y-86581463D01*
X85095353Y-86360000D01*
X85075978Y-86138537D01*
X85037503Y-85994949D01*
X85019863Y-85929114D01*
X85019862Y-85929112D01*
X85018440Y-85923804D01*
X85016117Y-85918822D01*
X84926814Y-85727311D01*
X84926811Y-85727306D01*
X84924488Y-85722324D01*
X84917540Y-85712401D01*
X84800136Y-85544730D01*
X84800134Y-85544727D01*
X84796977Y-85540219D01*
X84639781Y-85383023D01*
X84635273Y-85379866D01*
X84635270Y-85379864D01*
X84549365Y-85319713D01*
X84505037Y-85264256D01*
X84497728Y-85193637D01*
X84529759Y-85130276D01*
X84590960Y-85094291D01*
X84621636Y-85090500D01*
X84630134Y-85090500D01*
X84692316Y-85083745D01*
X84828705Y-85032615D01*
X84945261Y-84945261D01*
X85032615Y-84828705D01*
X85083745Y-84692316D01*
X85090500Y-84630134D01*
X85090500Y-83820000D01*
X86360000Y-83820000D01*
X106680000Y-83820000D01*
X106680000Y-78740000D01*
X86360000Y-78740000D01*
X86360000Y-83820000D01*
X85090500Y-83820000D01*
X85090500Y-83009866D01*
X85083745Y-82947684D01*
X85032615Y-82811295D01*
X84945261Y-82694739D01*
X84828705Y-82607385D01*
X84692316Y-82556255D01*
X84630134Y-82549500D01*
X83009866Y-82549500D01*
X82947684Y-82556255D01*
X82811295Y-82607385D01*
X82694739Y-82694739D01*
X82607385Y-82811295D01*
X82556255Y-82947684D01*
X82549500Y-83009866D01*
X82549500Y-84630134D01*
X82556255Y-84692316D01*
X82607385Y-84828705D01*
X82694739Y-84945261D01*
X82811295Y-85032615D01*
X82947684Y-85083745D01*
X83009866Y-85090500D01*
X83018364Y-85090500D01*
X83086485Y-85110502D01*
X83132978Y-85164158D01*
X83143082Y-85234432D01*
X83113588Y-85299012D01*
X83090635Y-85319713D01*
X83004730Y-85379864D01*
X83004727Y-85379866D01*
X83000219Y-85383023D01*
X82843023Y-85540219D01*
X82839866Y-85544727D01*
X82839864Y-85544730D01*
X82722460Y-85712401D01*
X82715512Y-85722324D01*
X82713189Y-85727306D01*
X82713186Y-85727311D01*
X82623883Y-85918822D01*
X82621560Y-85923804D01*
X82620138Y-85929112D01*
X82620137Y-85929114D01*
X82602497Y-85994949D01*
X82564022Y-86138537D01*
X82544647Y-86360000D01*
X82564022Y-86581463D01*
X82571592Y-86609715D01*
X82615191Y-86772425D01*
X82621560Y-86796196D01*
X82623882Y-86801177D01*
X82623883Y-86801178D01*
X82713186Y-86992689D01*
X82713189Y-86992694D01*
X82715512Y-86997676D01*
X82718668Y-87002183D01*
X82718669Y-87002185D01*
X82829655Y-87160689D01*
X82843023Y-87179781D01*
X83000219Y-87336977D01*
X83004727Y-87340134D01*
X83004730Y-87340136D01*
X83033143Y-87360031D01*
X83182323Y-87464488D01*
X83187305Y-87466811D01*
X83187310Y-87466814D01*
X83292373Y-87515805D01*
X83345658Y-87562722D01*
X83365119Y-87630999D01*
X83344577Y-87698959D01*
X83292373Y-87744195D01*
X83187311Y-87793186D01*
X83187306Y-87793189D01*
X83182324Y-87795512D01*
X83177817Y-87798668D01*
X83177815Y-87798669D01*
X83004730Y-87919864D01*
X83004727Y-87919866D01*
X83000219Y-87923023D01*
X82843023Y-88080219D01*
X82839866Y-88084727D01*
X82839864Y-88084730D01*
X82722460Y-88252401D01*
X82715512Y-88262324D01*
X82713189Y-88267306D01*
X82713186Y-88267311D01*
X82623883Y-88458822D01*
X82621560Y-88463804D01*
X82620138Y-88469112D01*
X82620137Y-88469114D01*
X82602497Y-88534949D01*
X82564022Y-88678537D01*
X82544647Y-88900000D01*
X82564022Y-89121463D01*
X82571592Y-89149715D01*
X82615191Y-89312425D01*
X82621560Y-89336196D01*
X82623882Y-89341177D01*
X82623883Y-89341178D01*
X82713186Y-89532689D01*
X82713189Y-89532694D01*
X82715512Y-89537676D01*
X82718668Y-89542183D01*
X82718669Y-89542185D01*
X82829655Y-89700689D01*
X82843023Y-89719781D01*
X83000219Y-89876977D01*
X83004727Y-89880134D01*
X83004730Y-89880136D01*
X83033143Y-89900031D01*
X83182323Y-90004488D01*
X83187305Y-90006811D01*
X83187310Y-90006814D01*
X83292373Y-90055805D01*
X83345658Y-90102722D01*
X83365119Y-90170999D01*
X83344577Y-90238959D01*
X83292373Y-90284195D01*
X83187311Y-90333186D01*
X83187306Y-90333189D01*
X83182324Y-90335512D01*
X83177817Y-90338668D01*
X83177815Y-90338669D01*
X83004730Y-90459864D01*
X83004727Y-90459866D01*
X83000219Y-90463023D01*
X82843023Y-90620219D01*
X82839866Y-90624727D01*
X82839864Y-90624730D01*
X82722460Y-90792401D01*
X82715512Y-90802324D01*
X82713189Y-90807306D01*
X82713186Y-90807311D01*
X82623883Y-90998822D01*
X82621560Y-91003804D01*
X82620138Y-91009112D01*
X82620137Y-91009114D01*
X82602497Y-91074949D01*
X82564022Y-91218537D01*
X82544647Y-91440000D01*
X82564022Y-91661463D01*
X82571592Y-91689715D01*
X82615191Y-91852425D01*
X82621560Y-91876196D01*
X82623882Y-91881177D01*
X82623883Y-91881178D01*
X82713186Y-92072689D01*
X82713189Y-92072694D01*
X82715512Y-92077676D01*
X82718668Y-92082183D01*
X82718669Y-92082185D01*
X82829655Y-92240689D01*
X82843023Y-92259781D01*
X83000219Y-92416977D01*
X83004727Y-92420134D01*
X83004730Y-92420136D01*
X83033143Y-92440031D01*
X83182323Y-92544488D01*
X83187305Y-92546811D01*
X83187310Y-92546814D01*
X83292373Y-92595805D01*
X83345658Y-92642722D01*
X83365119Y-92710999D01*
X83344577Y-92778959D01*
X83292373Y-92824195D01*
X83187311Y-92873186D01*
X83187306Y-92873189D01*
X83182324Y-92875512D01*
X83177817Y-92878668D01*
X83177815Y-92878669D01*
X83004730Y-92999864D01*
X83004727Y-92999866D01*
X83000219Y-93003023D01*
X82843023Y-93160219D01*
X82839866Y-93164727D01*
X82839864Y-93164730D01*
X82722460Y-93332401D01*
X82715512Y-93342324D01*
X82713189Y-93347306D01*
X82713186Y-93347311D01*
X82623883Y-93538822D01*
X82621560Y-93543804D01*
X82620138Y-93549112D01*
X82620137Y-93549114D01*
X82602497Y-93614949D01*
X82564022Y-93758537D01*
X82544647Y-93980000D01*
X82564022Y-94201463D01*
X82571592Y-94229715D01*
X82615191Y-94392425D01*
X82621560Y-94416196D01*
X82623882Y-94421177D01*
X82623883Y-94421178D01*
X82713186Y-94612689D01*
X82713189Y-94612694D01*
X82715512Y-94617676D01*
X82718668Y-94622183D01*
X82718669Y-94622185D01*
X82829655Y-94780689D01*
X82843023Y-94799781D01*
X83000219Y-94956977D01*
X83004727Y-94960134D01*
X83004730Y-94960136D01*
X83033143Y-94980031D01*
X83182323Y-95084488D01*
X83187305Y-95086811D01*
X83187310Y-95086814D01*
X83292373Y-95135805D01*
X83345658Y-95182722D01*
X83365119Y-95250999D01*
X83344577Y-95318959D01*
X83292373Y-95364195D01*
X83187311Y-95413186D01*
X83187306Y-95413189D01*
X83182324Y-95415512D01*
X83177817Y-95418668D01*
X83177815Y-95418669D01*
X83004730Y-95539864D01*
X83004727Y-95539866D01*
X83000219Y-95543023D01*
X82843023Y-95700219D01*
X82839866Y-95704727D01*
X82839864Y-95704730D01*
X82722460Y-95872401D01*
X82715512Y-95882324D01*
X82713189Y-95887306D01*
X82713186Y-95887311D01*
X82623883Y-96078822D01*
X82621560Y-96083804D01*
X82620138Y-96089112D01*
X82620137Y-96089114D01*
X82602497Y-96154949D01*
X82564022Y-96298537D01*
X82544647Y-96520000D01*
X82564022Y-96741463D01*
X82571592Y-96769715D01*
X82615191Y-96932425D01*
X82621560Y-96956196D01*
X82623882Y-96961177D01*
X82623883Y-96961178D01*
X82713186Y-97152689D01*
X82713189Y-97152694D01*
X82715512Y-97157676D01*
X82718668Y-97162183D01*
X82718669Y-97162185D01*
X82829655Y-97320689D01*
X82843023Y-97339781D01*
X83000219Y-97496977D01*
X83004727Y-97500134D01*
X83004730Y-97500136D01*
X83033143Y-97520031D01*
X83182323Y-97624488D01*
X83187305Y-97626811D01*
X83187310Y-97626814D01*
X83292373Y-97675805D01*
X83345658Y-97722722D01*
X83365119Y-97790999D01*
X83344577Y-97858959D01*
X83292373Y-97904195D01*
X83187311Y-97953186D01*
X83187306Y-97953189D01*
X83182324Y-97955512D01*
X83177817Y-97958668D01*
X83177815Y-97958669D01*
X83004730Y-98079864D01*
X83004727Y-98079866D01*
X83000219Y-98083023D01*
X82843023Y-98240219D01*
X82839866Y-98244727D01*
X82839864Y-98244730D01*
X82722460Y-98412401D01*
X82715512Y-98422324D01*
X82713189Y-98427306D01*
X82713186Y-98427311D01*
X82623883Y-98618822D01*
X82621560Y-98623804D01*
X82620138Y-98629112D01*
X82620137Y-98629114D01*
X82602497Y-98694949D01*
X82564022Y-98838537D01*
X82544647Y-99060000D01*
X82564022Y-99281463D01*
X82571592Y-99309715D01*
X82615191Y-99472425D01*
X82621560Y-99496196D01*
X82623882Y-99501177D01*
X82623883Y-99501178D01*
X82713186Y-99692689D01*
X82713189Y-99692694D01*
X82715512Y-99697676D01*
X82718668Y-99702183D01*
X82718669Y-99702185D01*
X82829655Y-99860689D01*
X82843023Y-99879781D01*
X83000219Y-100036977D01*
X83004727Y-100040134D01*
X83004730Y-100040136D01*
X83033143Y-100060031D01*
X83182323Y-100164488D01*
X83187305Y-100166811D01*
X83187310Y-100166814D01*
X83292373Y-100215805D01*
X83345658Y-100262722D01*
X83365119Y-100330999D01*
X83344577Y-100398959D01*
X83292373Y-100444195D01*
X83187311Y-100493186D01*
X83187306Y-100493189D01*
X83182324Y-100495512D01*
X83177817Y-100498668D01*
X83177815Y-100498669D01*
X83004730Y-100619864D01*
X83004727Y-100619866D01*
X83000219Y-100623023D01*
X82843023Y-100780219D01*
X82839866Y-100784727D01*
X82839864Y-100784730D01*
X82722286Y-100952649D01*
X82715512Y-100962324D01*
X82713189Y-100967306D01*
X82713186Y-100967311D01*
X82623883Y-101158822D01*
X82621560Y-101163804D01*
X82620138Y-101169112D01*
X82620137Y-101169114D01*
X82602497Y-101234949D01*
X82564022Y-101378537D01*
X82544647Y-101600000D01*
X82564022Y-101821463D01*
X82581869Y-101888069D01*
X82615191Y-102012425D01*
X82621560Y-102036196D01*
X82623882Y-102041177D01*
X82623883Y-102041178D01*
X82713186Y-102232689D01*
X82713189Y-102232694D01*
X82715512Y-102237676D01*
X82718668Y-102242183D01*
X82718669Y-102242185D01*
X82829655Y-102400689D01*
X82843023Y-102419781D01*
X83000219Y-102576977D01*
X83004727Y-102580134D01*
X83004730Y-102580136D01*
X83042929Y-102606883D01*
X83182323Y-102704488D01*
X83187305Y-102706811D01*
X83187310Y-102706814D01*
X83292373Y-102755805D01*
X83345658Y-102802722D01*
X83365119Y-102870999D01*
X83344577Y-102938959D01*
X83292373Y-102984195D01*
X83187311Y-103033186D01*
X83187306Y-103033189D01*
X83182324Y-103035512D01*
X83177817Y-103038668D01*
X83177815Y-103038669D01*
X83004730Y-103159864D01*
X83004727Y-103159866D01*
X83000219Y-103163023D01*
X82843023Y-103320219D01*
X82839866Y-103324727D01*
X82839864Y-103324730D01*
X82722460Y-103492401D01*
X82715512Y-103502324D01*
X82713189Y-103507306D01*
X82713186Y-103507311D01*
X82623883Y-103698822D01*
X82621560Y-103703804D01*
X82564022Y-103918537D01*
X82544647Y-104140000D01*
X82564022Y-104361463D01*
X82589830Y-104457778D01*
X82615191Y-104552425D01*
X82621560Y-104576196D01*
X82623882Y-104581177D01*
X82623883Y-104581178D01*
X82713186Y-104772689D01*
X82713189Y-104772694D01*
X82715512Y-104777676D01*
X82718668Y-104782183D01*
X82718669Y-104782185D01*
X82829655Y-104940689D01*
X82843023Y-104959781D01*
X83000219Y-105116977D01*
X83004727Y-105120134D01*
X83004730Y-105120136D01*
X83033143Y-105140031D01*
X83182323Y-105244488D01*
X83187305Y-105246811D01*
X83187310Y-105246814D01*
X83292373Y-105295805D01*
X83345658Y-105342722D01*
X83365119Y-105410999D01*
X83344577Y-105478959D01*
X83292373Y-105524195D01*
X83187311Y-105573186D01*
X83187306Y-105573189D01*
X83182324Y-105575512D01*
X83177817Y-105578668D01*
X83177815Y-105578669D01*
X83004730Y-105699864D01*
X83004727Y-105699866D01*
X83000219Y-105703023D01*
X82843023Y-105860219D01*
X82839866Y-105864727D01*
X82839864Y-105864730D01*
X82720052Y-106035840D01*
X82715512Y-106042324D01*
X82713189Y-106047306D01*
X82713186Y-106047311D01*
X82623883Y-106238822D01*
X82621560Y-106243804D01*
X82620138Y-106249112D01*
X82620137Y-106249114D01*
X82602497Y-106314949D01*
X82564022Y-106458537D01*
X82544647Y-106680000D01*
X82564022Y-106901463D01*
X82571592Y-106929715D01*
X82615191Y-107092425D01*
X82621560Y-107116196D01*
X82623882Y-107121177D01*
X82623883Y-107121178D01*
X82713186Y-107312689D01*
X82713189Y-107312694D01*
X82715512Y-107317676D01*
X82718668Y-107322183D01*
X82718669Y-107322185D01*
X82829655Y-107480689D01*
X82843023Y-107499781D01*
X83000219Y-107656977D01*
X83004727Y-107660134D01*
X83004730Y-107660136D01*
X83075988Y-107710031D01*
X83182323Y-107784488D01*
X83187305Y-107786811D01*
X83187310Y-107786814D01*
X83292373Y-107835805D01*
X83345658Y-107882722D01*
X83365119Y-107950999D01*
X83344577Y-108018959D01*
X83292373Y-108064195D01*
X83187311Y-108113186D01*
X83187306Y-108113189D01*
X83182324Y-108115512D01*
X83177817Y-108118668D01*
X83177815Y-108118669D01*
X83004730Y-108239864D01*
X83004727Y-108239866D01*
X83000219Y-108243023D01*
X82843023Y-108400219D01*
X82839866Y-108404727D01*
X82839864Y-108404730D01*
X82720052Y-108575840D01*
X82715512Y-108582324D01*
X82713189Y-108587306D01*
X82713186Y-108587311D01*
X82623883Y-108778822D01*
X82621560Y-108783804D01*
X82564022Y-108998537D01*
X82544647Y-109220000D01*
X82564022Y-109441463D01*
X82565446Y-109446776D01*
X82615191Y-109632425D01*
X82621560Y-109656196D01*
X82623882Y-109661177D01*
X82623883Y-109661178D01*
X82713186Y-109852689D01*
X82713189Y-109852694D01*
X82715512Y-109857676D01*
X82718668Y-109862183D01*
X82718669Y-109862185D01*
X82829655Y-110020689D01*
X82843023Y-110039781D01*
X83000219Y-110196977D01*
X83004727Y-110200134D01*
X83004730Y-110200136D01*
X83080495Y-110253187D01*
X83182323Y-110324488D01*
X83187305Y-110326811D01*
X83187310Y-110326814D01*
X83292373Y-110375805D01*
X83345658Y-110422722D01*
X83365119Y-110490999D01*
X83344577Y-110558959D01*
X83292373Y-110604195D01*
X83187311Y-110653186D01*
X83187306Y-110653189D01*
X83182324Y-110655512D01*
X83177817Y-110658668D01*
X83177815Y-110658669D01*
X83004730Y-110779864D01*
X83004727Y-110779866D01*
X83000219Y-110783023D01*
X82843023Y-110940219D01*
X82839866Y-110944727D01*
X82839864Y-110944730D01*
X82720052Y-111115840D01*
X82715512Y-111122324D01*
X82713189Y-111127306D01*
X82713186Y-111127311D01*
X82623883Y-111318822D01*
X82621560Y-111323804D01*
X82564022Y-111538537D01*
X82544647Y-111760000D01*
X82564022Y-111981463D01*
X82565446Y-111986776D01*
X82615191Y-112172425D01*
X82621560Y-112196196D01*
X82623882Y-112201177D01*
X82623883Y-112201178D01*
X82713186Y-112392689D01*
X82713189Y-112392694D01*
X82715512Y-112397676D01*
X82718668Y-112402183D01*
X82718669Y-112402185D01*
X82829655Y-112560689D01*
X82843023Y-112579781D01*
X83000219Y-112736977D01*
X83004727Y-112740134D01*
X83004730Y-112740136D01*
X83080495Y-112793187D01*
X83182323Y-112864488D01*
X83187305Y-112866811D01*
X83187310Y-112866814D01*
X83292373Y-112915805D01*
X83345658Y-112962722D01*
X83365119Y-113030999D01*
X83344577Y-113098959D01*
X83292373Y-113144195D01*
X83187311Y-113193186D01*
X83187306Y-113193189D01*
X83182324Y-113195512D01*
X83177817Y-113198668D01*
X83177815Y-113198669D01*
X83004730Y-113319864D01*
X83004727Y-113319866D01*
X83000219Y-113323023D01*
X82843023Y-113480219D01*
X82839866Y-113484727D01*
X82839864Y-113484730D01*
X82720052Y-113655840D01*
X82715512Y-113662324D01*
X82713189Y-113667306D01*
X82713186Y-113667311D01*
X82623883Y-113858822D01*
X82621560Y-113863804D01*
X82564022Y-114078537D01*
X82544647Y-114300000D01*
X75023156Y-114300000D01*
X75004852Y-114077361D01*
X74950431Y-113860702D01*
X74861354Y-113655840D01*
X74740014Y-113468277D01*
X74589670Y-113303051D01*
X74585619Y-113299852D01*
X74585615Y-113299848D01*
X74418414Y-113167800D01*
X74418410Y-113167798D01*
X74414359Y-113164598D01*
X74373053Y-113141796D01*
X74323084Y-113091364D01*
X74308312Y-113021921D01*
X74333428Y-112955516D01*
X74360780Y-112928909D01*
X74404603Y-112897650D01*
X74539860Y-112801173D01*
X74698096Y-112643489D01*
X74757594Y-112560689D01*
X74825435Y-112466277D01*
X74828453Y-112462077D01*
X74858054Y-112402185D01*
X74925136Y-112266453D01*
X74925137Y-112266451D01*
X74927430Y-112261811D01*
X74992370Y-112048069D01*
X75021529Y-111826590D01*
X75023156Y-111760000D01*
X75004852Y-111537361D01*
X74950431Y-111320702D01*
X74861354Y-111115840D01*
X74740014Y-110928277D01*
X74589670Y-110763051D01*
X74585619Y-110759852D01*
X74585615Y-110759848D01*
X74418414Y-110627800D01*
X74418410Y-110627798D01*
X74414359Y-110624598D01*
X74373053Y-110601796D01*
X74323084Y-110551364D01*
X74308312Y-110481921D01*
X74333428Y-110415516D01*
X74360780Y-110388909D01*
X74404603Y-110357650D01*
X74539860Y-110261173D01*
X74698096Y-110103489D01*
X74757594Y-110020689D01*
X74825435Y-109926277D01*
X74828453Y-109922077D01*
X74858054Y-109862185D01*
X74925136Y-109726453D01*
X74925137Y-109726451D01*
X74927430Y-109721811D01*
X74992370Y-109508069D01*
X75021529Y-109286590D01*
X75023156Y-109220000D01*
X75004852Y-108997361D01*
X74950431Y-108780702D01*
X74861354Y-108575840D01*
X74740014Y-108388277D01*
X74589670Y-108223051D01*
X74585619Y-108219852D01*
X74585615Y-108219848D01*
X74418414Y-108087800D01*
X74418410Y-108087798D01*
X74414359Y-108084598D01*
X74373053Y-108061796D01*
X74323084Y-108011364D01*
X74308312Y-107941921D01*
X74333428Y-107875516D01*
X74360780Y-107848909D01*
X74404603Y-107817650D01*
X74539860Y-107721173D01*
X74547121Y-107713938D01*
X74694435Y-107567137D01*
X74698096Y-107563489D01*
X74711319Y-107545088D01*
X74825435Y-107386277D01*
X74828453Y-107382077D01*
X74839849Y-107359020D01*
X74925136Y-107186453D01*
X74925137Y-107186451D01*
X74927430Y-107181811D01*
X74992370Y-106968069D01*
X75021529Y-106746590D01*
X75023156Y-106680000D01*
X75004852Y-106457361D01*
X74950431Y-106240702D01*
X74861354Y-106035840D01*
X74821906Y-105974862D01*
X74742822Y-105852617D01*
X74742820Y-105852614D01*
X74740014Y-105848277D01*
X74589670Y-105683051D01*
X74585619Y-105679852D01*
X74585615Y-105679848D01*
X74418414Y-105547800D01*
X74418410Y-105547798D01*
X74414359Y-105544598D01*
X74373053Y-105521796D01*
X74323084Y-105471364D01*
X74308312Y-105401921D01*
X74333428Y-105335516D01*
X74360780Y-105308909D01*
X74404603Y-105277650D01*
X74539860Y-105181173D01*
X74698096Y-105023489D01*
X74732876Y-104975088D01*
X74825435Y-104846277D01*
X74828453Y-104842077D01*
X74858054Y-104782185D01*
X74925136Y-104646453D01*
X74925137Y-104646451D01*
X74927430Y-104641811D01*
X74983255Y-104458069D01*
X74990865Y-104433023D01*
X74990865Y-104433021D01*
X74992370Y-104428069D01*
X75021529Y-104206590D01*
X75023156Y-104140000D01*
X75004852Y-103917361D01*
X74950431Y-103700702D01*
X74861354Y-103495840D01*
X74776553Y-103364757D01*
X74742822Y-103312617D01*
X74742820Y-103312614D01*
X74740014Y-103308277D01*
X74589670Y-103143051D01*
X74585619Y-103139852D01*
X74585615Y-103139848D01*
X74418414Y-103007800D01*
X74418410Y-103007798D01*
X74414359Y-103004598D01*
X74373053Y-102981796D01*
X74323084Y-102931364D01*
X74308312Y-102861921D01*
X74333428Y-102795516D01*
X74360780Y-102768909D01*
X74404603Y-102737650D01*
X74539860Y-102641173D01*
X74547121Y-102633938D01*
X74694435Y-102487137D01*
X74698096Y-102483489D01*
X74711319Y-102465088D01*
X74825435Y-102306277D01*
X74828453Y-102302077D01*
X74839849Y-102279020D01*
X74925136Y-102106453D01*
X74925137Y-102106451D01*
X74927430Y-102101811D01*
X74975699Y-101942939D01*
X74990865Y-101893023D01*
X74990865Y-101893021D01*
X74992370Y-101888069D01*
X75021529Y-101666590D01*
X75023156Y-101600000D01*
X75004852Y-101377361D01*
X74950431Y-101160702D01*
X74861354Y-100955840D01*
X74821906Y-100894862D01*
X74742822Y-100772617D01*
X74742820Y-100772614D01*
X74740014Y-100768277D01*
X74589670Y-100603051D01*
X74585619Y-100599852D01*
X74585615Y-100599848D01*
X74418414Y-100467800D01*
X74418410Y-100467798D01*
X74414359Y-100464598D01*
X74373053Y-100441796D01*
X74323084Y-100391364D01*
X74308312Y-100321921D01*
X74333428Y-100255516D01*
X74360780Y-100228909D01*
X74404603Y-100197650D01*
X74539860Y-100101173D01*
X74547121Y-100093938D01*
X74694435Y-99947137D01*
X74698096Y-99943489D01*
X74711319Y-99925088D01*
X74825435Y-99766277D01*
X74828453Y-99762077D01*
X74839849Y-99739020D01*
X74925136Y-99566453D01*
X74925137Y-99566451D01*
X74927430Y-99561811D01*
X74992370Y-99348069D01*
X75021529Y-99126590D01*
X75023156Y-99060000D01*
X75004852Y-98837361D01*
X74950431Y-98620702D01*
X74861354Y-98415840D01*
X74821906Y-98354862D01*
X74742822Y-98232617D01*
X74742820Y-98232614D01*
X74740014Y-98228277D01*
X74589670Y-98063051D01*
X74585619Y-98059852D01*
X74585615Y-98059848D01*
X74418414Y-97927800D01*
X74418410Y-97927798D01*
X74414359Y-97924598D01*
X74373053Y-97901796D01*
X74323084Y-97851364D01*
X74308312Y-97781921D01*
X74333428Y-97715516D01*
X74360780Y-97688909D01*
X74404603Y-97657650D01*
X74539860Y-97561173D01*
X74547121Y-97553938D01*
X74694435Y-97407137D01*
X74698096Y-97403489D01*
X74711319Y-97385088D01*
X74825435Y-97226277D01*
X74828453Y-97222077D01*
X74838875Y-97200991D01*
X74925136Y-97026453D01*
X74925137Y-97026451D01*
X74927430Y-97021811D01*
X74992370Y-96808069D01*
X75021529Y-96586590D01*
X75023156Y-96520000D01*
X75004852Y-96297361D01*
X74950431Y-96080702D01*
X74861354Y-95875840D01*
X74783231Y-95755080D01*
X74742822Y-95692617D01*
X74742820Y-95692614D01*
X74740014Y-95688277D01*
X74589670Y-95523051D01*
X74585619Y-95519852D01*
X74585615Y-95519848D01*
X74418414Y-95387800D01*
X74418410Y-95387798D01*
X74414359Y-95384598D01*
X74373053Y-95361796D01*
X74323084Y-95311364D01*
X74308312Y-95241921D01*
X74333428Y-95175516D01*
X74360780Y-95148909D01*
X74404603Y-95117650D01*
X74539860Y-95021173D01*
X74547121Y-95013938D01*
X74694435Y-94867137D01*
X74698096Y-94863489D01*
X74711319Y-94845088D01*
X74825435Y-94686277D01*
X74828453Y-94682077D01*
X74832671Y-94673544D01*
X74925136Y-94486453D01*
X74925137Y-94486451D01*
X74927430Y-94481811D01*
X74992370Y-94268069D01*
X75021529Y-94046590D01*
X75023156Y-93980000D01*
X75004852Y-93757361D01*
X74950431Y-93540702D01*
X74861354Y-93335840D01*
X74821906Y-93274862D01*
X74742822Y-93152617D01*
X74742820Y-93152614D01*
X74740014Y-93148277D01*
X74589670Y-92983051D01*
X74585619Y-92979852D01*
X74585615Y-92979848D01*
X74418414Y-92847800D01*
X74418410Y-92847798D01*
X74414359Y-92844598D01*
X74373053Y-92821796D01*
X74323084Y-92771364D01*
X74308312Y-92701921D01*
X74333428Y-92635516D01*
X74360780Y-92608909D01*
X74404603Y-92577650D01*
X74539860Y-92481173D01*
X74547121Y-92473938D01*
X74694435Y-92327137D01*
X74698096Y-92323489D01*
X74711319Y-92305088D01*
X74825435Y-92146277D01*
X74828453Y-92142077D01*
X74839849Y-92119020D01*
X74925136Y-91946453D01*
X74925137Y-91946451D01*
X74927430Y-91941811D01*
X74992370Y-91728069D01*
X75021529Y-91506590D01*
X75023156Y-91440000D01*
X75004852Y-91217361D01*
X74950431Y-91000702D01*
X74861354Y-90795840D01*
X74821906Y-90734862D01*
X74742822Y-90612617D01*
X74742820Y-90612614D01*
X74740014Y-90608277D01*
X74589670Y-90443051D01*
X74585619Y-90439852D01*
X74585615Y-90439848D01*
X74418414Y-90307800D01*
X74418410Y-90307798D01*
X74414359Y-90304598D01*
X74373053Y-90281796D01*
X74323084Y-90231364D01*
X74308312Y-90161921D01*
X74333428Y-90095516D01*
X74360780Y-90068909D01*
X74404603Y-90037650D01*
X74539860Y-89941173D01*
X74547121Y-89933938D01*
X74694435Y-89787137D01*
X74698096Y-89783489D01*
X74711319Y-89765088D01*
X74825435Y-89606277D01*
X74828453Y-89602077D01*
X74839849Y-89579020D01*
X74925136Y-89406453D01*
X74925137Y-89406451D01*
X74927430Y-89401811D01*
X74992370Y-89188069D01*
X75021529Y-88966590D01*
X75023156Y-88900000D01*
X75004852Y-88677361D01*
X74950431Y-88460702D01*
X74861354Y-88255840D01*
X74821906Y-88194862D01*
X74742822Y-88072617D01*
X74742820Y-88072614D01*
X74740014Y-88068277D01*
X74589670Y-87903051D01*
X74585619Y-87899852D01*
X74585615Y-87899848D01*
X74418414Y-87767800D01*
X74418410Y-87767798D01*
X74414359Y-87764598D01*
X74373053Y-87741796D01*
X74323084Y-87691364D01*
X74308312Y-87621921D01*
X74333428Y-87555516D01*
X74360780Y-87528909D01*
X74404603Y-87497650D01*
X74539860Y-87401173D01*
X74547121Y-87393938D01*
X74694435Y-87247137D01*
X74698096Y-87243489D01*
X74711319Y-87225088D01*
X74825435Y-87066277D01*
X74828453Y-87062077D01*
X74839849Y-87039020D01*
X74925136Y-86866453D01*
X74925137Y-86866451D01*
X74927430Y-86861811D01*
X74992370Y-86648069D01*
X75021529Y-86426590D01*
X75023156Y-86360000D01*
X75004852Y-86137361D01*
X74950431Y-85920702D01*
X74861354Y-85715840D01*
X74821906Y-85654862D01*
X74742822Y-85532617D01*
X74742820Y-85532614D01*
X74740014Y-85528277D01*
X74736532Y-85524450D01*
X74592798Y-85366488D01*
X74561746Y-85302642D01*
X74570141Y-85232143D01*
X74615317Y-85177375D01*
X74641761Y-85163706D01*
X74748297Y-85123767D01*
X74756705Y-85120615D01*
X74873261Y-85033261D01*
X74960615Y-84916705D01*
X75011745Y-84780316D01*
X75018500Y-84718134D01*
X75018500Y-82921866D01*
X75011745Y-82859684D01*
X74960615Y-82723295D01*
X74873261Y-82606739D01*
X74756705Y-82519385D01*
X74620316Y-82468255D01*
X74558134Y-82461500D01*
X72761866Y-82461500D01*
X72699684Y-82468255D01*
X72563295Y-82519385D01*
X72446739Y-82606739D01*
X72359385Y-82723295D01*
X72308255Y-82859684D01*
X72301500Y-82921866D01*
X72301500Y-84718134D01*
X72308255Y-84780316D01*
X72359385Y-84916705D01*
X72446739Y-85033261D01*
X72563295Y-85120615D01*
X72571704Y-85123767D01*
X72571705Y-85123768D01*
X72680451Y-85164535D01*
X72737216Y-85207176D01*
X72761916Y-85273738D01*
X72746709Y-85343087D01*
X72727316Y-85369568D01*
X72600629Y-85502138D01*
X72597715Y-85506410D01*
X72597714Y-85506411D01*
X72562249Y-85558401D01*
X72474743Y-85686680D01*
X72380688Y-85889305D01*
X72320989Y-86104570D01*
X72297251Y-86326695D01*
X72297548Y-86331848D01*
X72297548Y-86331851D01*
X72304932Y-86459908D01*
X72310110Y-86549715D01*
X72311247Y-86554761D01*
X72311248Y-86554767D01*
X72318009Y-86584767D01*
X72359222Y-86767639D01*
X72443266Y-86974616D01*
X72480034Y-87034616D01*
X72536204Y-87126277D01*
X72559987Y-87165088D01*
X72706250Y-87333938D01*
X72853610Y-87456279D01*
X72859506Y-87461173D01*
X72878126Y-87476632D01*
X72923809Y-87503327D01*
X72951445Y-87519476D01*
X73000169Y-87571114D01*
X73013240Y-87640897D01*
X72986509Y-87706669D01*
X72946055Y-87740027D01*
X72933607Y-87746507D01*
X72929474Y-87749610D01*
X72929471Y-87749612D01*
X72759100Y-87877530D01*
X72754965Y-87880635D01*
X72600629Y-88042138D01*
X72597715Y-88046410D01*
X72597714Y-88046411D01*
X72562249Y-88098401D01*
X72474743Y-88226680D01*
X72380688Y-88429305D01*
X72320989Y-88644570D01*
X72297251Y-88866695D01*
X72297548Y-88871848D01*
X72297548Y-88871851D01*
X72304932Y-88999908D01*
X72310110Y-89089715D01*
X72311247Y-89094761D01*
X72311248Y-89094767D01*
X72318009Y-89124767D01*
X72359222Y-89307639D01*
X72443266Y-89514616D01*
X72480034Y-89574616D01*
X72536204Y-89666277D01*
X72559987Y-89705088D01*
X72706250Y-89873938D01*
X72853610Y-89996279D01*
X72859506Y-90001173D01*
X72878126Y-90016632D01*
X72923809Y-90043327D01*
X72951445Y-90059476D01*
X73000169Y-90111114D01*
X73013240Y-90180897D01*
X72986509Y-90246669D01*
X72946055Y-90280027D01*
X72933607Y-90286507D01*
X72929474Y-90289610D01*
X72929471Y-90289612D01*
X72759100Y-90417530D01*
X72754965Y-90420635D01*
X72600629Y-90582138D01*
X72597715Y-90586410D01*
X72597714Y-90586411D01*
X72562249Y-90638401D01*
X72474743Y-90766680D01*
X72380688Y-90969305D01*
X72320989Y-91184570D01*
X72297251Y-91406695D01*
X72297548Y-91411848D01*
X72297548Y-91411851D01*
X72304932Y-91539908D01*
X72310110Y-91629715D01*
X72311247Y-91634761D01*
X72311248Y-91634767D01*
X72318009Y-91664767D01*
X72359222Y-91847639D01*
X72443266Y-92054616D01*
X72480034Y-92114616D01*
X72536204Y-92206277D01*
X72559987Y-92245088D01*
X72706250Y-92413938D01*
X72853610Y-92536279D01*
X72859506Y-92541173D01*
X72878126Y-92556632D01*
X72923809Y-92583327D01*
X72951445Y-92599476D01*
X73000169Y-92651114D01*
X73013240Y-92720897D01*
X72986509Y-92786669D01*
X72946055Y-92820027D01*
X72933607Y-92826507D01*
X72929474Y-92829610D01*
X72929471Y-92829612D01*
X72759100Y-92957530D01*
X72754965Y-92960635D01*
X72600629Y-93122138D01*
X72597715Y-93126410D01*
X72597714Y-93126411D01*
X72562249Y-93178401D01*
X72474743Y-93306680D01*
X72380688Y-93509305D01*
X72320989Y-93724570D01*
X72297251Y-93946695D01*
X72297548Y-93951848D01*
X72297548Y-93951851D01*
X72304932Y-94079908D01*
X72310110Y-94169715D01*
X72311247Y-94174761D01*
X72311248Y-94174767D01*
X72318009Y-94204767D01*
X72359222Y-94387639D01*
X72443266Y-94594616D01*
X72482733Y-94659020D01*
X72536204Y-94746277D01*
X72559987Y-94785088D01*
X72706250Y-94953938D01*
X72853610Y-95076279D01*
X72859506Y-95081173D01*
X72878126Y-95096632D01*
X72923809Y-95123327D01*
X72951445Y-95139476D01*
X73000169Y-95191114D01*
X73013240Y-95260897D01*
X72986509Y-95326669D01*
X72946055Y-95360027D01*
X72933607Y-95366507D01*
X72929474Y-95369610D01*
X72929471Y-95369612D01*
X72759100Y-95497530D01*
X72754965Y-95500635D01*
X72600629Y-95662138D01*
X72597715Y-95666410D01*
X72597714Y-95666411D01*
X72562249Y-95718401D01*
X72474743Y-95846680D01*
X72431152Y-95940590D01*
X72384211Y-96041716D01*
X72380688Y-96049305D01*
X72320989Y-96264570D01*
X72297251Y-96486695D01*
X72297548Y-96491848D01*
X72297548Y-96491851D01*
X72304816Y-96617895D01*
X72310110Y-96709715D01*
X72311247Y-96714761D01*
X72311248Y-96714767D01*
X72318009Y-96744767D01*
X72359222Y-96927639D01*
X72443266Y-97134616D01*
X72480034Y-97194616D01*
X72536204Y-97286277D01*
X72559987Y-97325088D01*
X72706250Y-97493938D01*
X72846061Y-97610011D01*
X72859506Y-97621173D01*
X72878126Y-97636632D01*
X72923809Y-97663327D01*
X72951445Y-97679476D01*
X73000169Y-97731114D01*
X73013240Y-97800897D01*
X72986509Y-97866669D01*
X72946055Y-97900027D01*
X72933607Y-97906507D01*
X72929474Y-97909610D01*
X72929471Y-97909612D01*
X72759100Y-98037530D01*
X72754965Y-98040635D01*
X72600629Y-98202138D01*
X72597715Y-98206410D01*
X72597714Y-98206411D01*
X72562249Y-98258401D01*
X72474743Y-98386680D01*
X72431152Y-98480590D01*
X72408855Y-98528625D01*
X72380688Y-98589305D01*
X72320989Y-98804570D01*
X72297251Y-99026695D01*
X72297548Y-99031848D01*
X72297548Y-99031851D01*
X72304932Y-99159908D01*
X72310110Y-99249715D01*
X72311247Y-99254761D01*
X72311248Y-99254767D01*
X72318009Y-99284767D01*
X72359222Y-99467639D01*
X72443266Y-99674616D01*
X72480034Y-99734616D01*
X72536204Y-99826277D01*
X72559987Y-99865088D01*
X72706250Y-100033938D01*
X72853610Y-100156279D01*
X72859506Y-100161173D01*
X72878126Y-100176632D01*
X72923809Y-100203327D01*
X72951445Y-100219476D01*
X73000169Y-100271114D01*
X73013240Y-100340897D01*
X72986509Y-100406669D01*
X72946055Y-100440027D01*
X72939255Y-100443567D01*
X72933607Y-100446507D01*
X72929474Y-100449610D01*
X72929471Y-100449612D01*
X72759100Y-100577530D01*
X72754965Y-100580635D01*
X72600629Y-100742138D01*
X72474743Y-100926680D01*
X72380688Y-101129305D01*
X72320989Y-101344570D01*
X72297251Y-101566695D01*
X72297548Y-101571848D01*
X72297548Y-101571851D01*
X72302825Y-101663365D01*
X72310110Y-101789715D01*
X72311247Y-101794761D01*
X72311248Y-101794767D01*
X72318462Y-101826776D01*
X72359222Y-102007639D01*
X72443266Y-102214616D01*
X72480034Y-102274616D01*
X72536204Y-102366277D01*
X72559987Y-102405088D01*
X72706250Y-102573938D01*
X72782498Y-102637240D01*
X72859506Y-102701173D01*
X72878126Y-102716632D01*
X72923106Y-102742916D01*
X72951445Y-102759476D01*
X73000169Y-102811114D01*
X73013240Y-102880897D01*
X72986509Y-102946669D01*
X72946055Y-102980027D01*
X72933607Y-102986507D01*
X72929474Y-102989610D01*
X72929471Y-102989612D01*
X72759100Y-103117530D01*
X72754965Y-103120635D01*
X72751393Y-103124373D01*
X72678917Y-103200215D01*
X72600629Y-103282138D01*
X72597715Y-103286410D01*
X72597714Y-103286411D01*
X72562033Y-103338717D01*
X72474743Y-103466680D01*
X72380688Y-103669305D01*
X72320989Y-103884570D01*
X72297251Y-104106695D01*
X72297548Y-104111848D01*
X72297548Y-104111851D01*
X72304932Y-104239908D01*
X72310110Y-104329715D01*
X72311247Y-104334761D01*
X72311248Y-104334767D01*
X72318009Y-104364767D01*
X72359222Y-104547639D01*
X72443266Y-104754616D01*
X72559987Y-104945088D01*
X72706250Y-105113938D01*
X72878126Y-105256632D01*
X72923809Y-105283327D01*
X72951445Y-105299476D01*
X73000169Y-105351114D01*
X73013240Y-105420897D01*
X72986509Y-105486669D01*
X72946055Y-105520027D01*
X72938890Y-105523757D01*
X72933607Y-105526507D01*
X72929474Y-105529610D01*
X72929471Y-105529612D01*
X72759100Y-105657530D01*
X72754965Y-105660635D01*
X72600629Y-105822138D01*
X72474743Y-106006680D01*
X72380688Y-106209305D01*
X72320989Y-106424570D01*
X72297251Y-106646695D01*
X72297548Y-106651848D01*
X72297548Y-106651851D01*
X72302825Y-106743365D01*
X72310110Y-106869715D01*
X72311247Y-106874761D01*
X72311248Y-106874767D01*
X72318462Y-106906776D01*
X72359222Y-107087639D01*
X72443266Y-107294616D01*
X72480034Y-107354616D01*
X72536204Y-107446277D01*
X72559987Y-107485088D01*
X72706250Y-107653938D01*
X72782498Y-107717240D01*
X72859506Y-107781173D01*
X72878126Y-107796632D01*
X72945163Y-107835805D01*
X72951445Y-107839476D01*
X73000169Y-107891114D01*
X73013240Y-107960897D01*
X72986509Y-108026669D01*
X72946055Y-108060027D01*
X72933607Y-108066507D01*
X72929474Y-108069610D01*
X72929471Y-108069612D01*
X72759100Y-108197530D01*
X72754965Y-108200635D01*
X72600629Y-108362138D01*
X72474743Y-108546680D01*
X72380688Y-108749305D01*
X72320989Y-108964570D01*
X72297251Y-109186695D01*
X72297548Y-109191848D01*
X72297548Y-109191851D01*
X72303011Y-109286590D01*
X72310110Y-109409715D01*
X72311247Y-109414761D01*
X72311248Y-109414767D01*
X72318462Y-109446776D01*
X72359222Y-109627639D01*
X72443266Y-109834616D01*
X72559987Y-110025088D01*
X72706250Y-110193938D01*
X72878126Y-110336632D01*
X72945163Y-110375805D01*
X72951445Y-110379476D01*
X73000169Y-110431114D01*
X73013240Y-110500897D01*
X72986509Y-110566669D01*
X72946055Y-110600027D01*
X72933607Y-110606507D01*
X72929474Y-110609610D01*
X72929471Y-110609612D01*
X72759100Y-110737530D01*
X72754965Y-110740635D01*
X72600629Y-110902138D01*
X72474743Y-111086680D01*
X72380688Y-111289305D01*
X72320989Y-111504570D01*
X72297251Y-111726695D01*
X72297548Y-111731848D01*
X72297548Y-111731851D01*
X72303011Y-111826590D01*
X72310110Y-111949715D01*
X72311247Y-111954761D01*
X72311248Y-111954767D01*
X72318462Y-111986776D01*
X72359222Y-112167639D01*
X72443266Y-112374616D01*
X72559987Y-112565088D01*
X72706250Y-112733938D01*
X72878126Y-112876632D01*
X72945163Y-112915805D01*
X72951445Y-112919476D01*
X73000169Y-112971114D01*
X73013240Y-113040897D01*
X72986509Y-113106669D01*
X72946055Y-113140027D01*
X72933607Y-113146507D01*
X72929474Y-113149610D01*
X72929471Y-113149612D01*
X72759100Y-113277530D01*
X72754965Y-113280635D01*
X72600629Y-113442138D01*
X72474743Y-113626680D01*
X72380688Y-113829305D01*
X72320989Y-114044570D01*
X72297251Y-114266695D01*
X47538500Y-114266695D01*
X47538500Y-106706695D01*
X58377251Y-106706695D01*
X58377548Y-106711848D01*
X58377548Y-106711851D01*
X58386650Y-106869715D01*
X58390110Y-106929715D01*
X58391247Y-106934761D01*
X58391248Y-106934767D01*
X58399870Y-106973023D01*
X58439222Y-107147639D01*
X58523266Y-107354616D01*
X58525965Y-107359020D01*
X58609459Y-107495270D01*
X58639987Y-107545088D01*
X58786250Y-107713938D01*
X58958126Y-107856632D01*
X59151000Y-107969338D01*
X59155825Y-107971180D01*
X59155826Y-107971181D01*
X59228612Y-107998975D01*
X59359692Y-108049030D01*
X59364760Y-108050061D01*
X59364763Y-108050062D01*
X59460855Y-108069612D01*
X59578597Y-108093567D01*
X59583772Y-108093757D01*
X59583774Y-108093757D01*
X59796673Y-108101564D01*
X59796677Y-108101564D01*
X59801837Y-108101753D01*
X59806957Y-108101097D01*
X59806959Y-108101097D01*
X60018288Y-108074025D01*
X60018289Y-108074025D01*
X60023416Y-108073368D01*
X60028366Y-108071883D01*
X60232429Y-108010661D01*
X60232434Y-108010659D01*
X60237384Y-108009174D01*
X60437994Y-107910896D01*
X60619860Y-107781173D01*
X60778096Y-107623489D01*
X60837594Y-107540689D01*
X60905435Y-107446277D01*
X60908453Y-107442077D01*
X60940400Y-107377438D01*
X61005136Y-107246453D01*
X61005137Y-107246451D01*
X61007430Y-107241811D01*
X61072370Y-107028069D01*
X61101529Y-106806590D01*
X61103156Y-106740000D01*
X61084852Y-106517361D01*
X61030431Y-106300702D01*
X60941354Y-106095840D01*
X60820014Y-105908277D01*
X60669670Y-105743051D01*
X60665619Y-105739852D01*
X60665615Y-105739848D01*
X60498414Y-105607800D01*
X60498410Y-105607798D01*
X60494359Y-105604598D01*
X60452569Y-105581529D01*
X60402598Y-105531097D01*
X60387826Y-105461654D01*
X60412942Y-105395248D01*
X60440294Y-105368641D01*
X60615328Y-105243792D01*
X60623200Y-105237139D01*
X60774052Y-105086812D01*
X60780730Y-105078965D01*
X60905003Y-104906020D01*
X60910313Y-104897183D01*
X61004670Y-104706267D01*
X61008469Y-104696672D01*
X61070377Y-104492910D01*
X61072555Y-104482837D01*
X61073986Y-104471962D01*
X61071775Y-104457778D01*
X61058617Y-104454000D01*
X58423225Y-104454000D01*
X58409694Y-104457973D01*
X58408257Y-104467966D01*
X58438565Y-104602446D01*
X58441645Y-104612275D01*
X58521770Y-104809603D01*
X58526413Y-104818794D01*
X58637694Y-105000388D01*
X58643777Y-105008699D01*
X58783213Y-105169667D01*
X58790580Y-105176883D01*
X58954434Y-105312916D01*
X58962881Y-105318831D01*
X59031969Y-105359203D01*
X59080693Y-105410842D01*
X59093764Y-105480625D01*
X59067033Y-105546396D01*
X59026584Y-105579752D01*
X59013607Y-105586507D01*
X59009474Y-105589610D01*
X59009471Y-105589612D01*
X58839100Y-105717530D01*
X58834965Y-105720635D01*
X58831393Y-105724373D01*
X58741538Y-105818401D01*
X58680629Y-105882138D01*
X58554743Y-106066680D01*
X58539003Y-106100590D01*
X58471636Y-106245720D01*
X58460688Y-106269305D01*
X58400989Y-106484570D01*
X58377251Y-106706695D01*
X47538500Y-106706695D01*
X47538500Y-101626695D01*
X58377251Y-101626695D01*
X58377548Y-101631848D01*
X58377548Y-101631851D01*
X58386650Y-101789715D01*
X58390110Y-101849715D01*
X58391247Y-101854761D01*
X58391248Y-101854767D01*
X58404335Y-101912837D01*
X58439222Y-102067639D01*
X58523266Y-102274616D01*
X58525965Y-102279020D01*
X58609459Y-102415270D01*
X58639987Y-102465088D01*
X58786250Y-102633938D01*
X58958126Y-102776632D01*
X58995446Y-102798440D01*
X59031955Y-102819774D01*
X59080679Y-102871412D01*
X59093750Y-102941195D01*
X59067019Y-103006967D01*
X59026562Y-103040327D01*
X59018457Y-103044546D01*
X59009738Y-103050036D01*
X58839433Y-103177905D01*
X58831726Y-103184748D01*
X58684590Y-103338717D01*
X58678104Y-103346727D01*
X58558098Y-103522649D01*
X58553000Y-103531623D01*
X58463338Y-103724783D01*
X58459775Y-103734470D01*
X58404389Y-103934183D01*
X58405912Y-103942607D01*
X58418292Y-103946000D01*
X61058344Y-103946000D01*
X61071875Y-103942027D01*
X61073180Y-103932947D01*
X61031214Y-103765875D01*
X61027894Y-103756124D01*
X60942972Y-103560814D01*
X60938105Y-103551739D01*
X60822426Y-103372926D01*
X60816136Y-103364757D01*
X60672806Y-103207240D01*
X60665273Y-103200215D01*
X60498139Y-103068222D01*
X60489556Y-103062520D01*
X60452602Y-103042120D01*
X60402631Y-102991687D01*
X60387859Y-102922245D01*
X60412975Y-102855839D01*
X60440327Y-102829232D01*
X60463797Y-102812491D01*
X60619860Y-102701173D01*
X60778096Y-102543489D01*
X60837594Y-102460689D01*
X60905435Y-102366277D01*
X60908453Y-102362077D01*
X60940400Y-102297438D01*
X61005136Y-102166453D01*
X61005137Y-102166451D01*
X61007430Y-102161811D01*
X61072370Y-101948069D01*
X61101529Y-101726590D01*
X61103156Y-101660000D01*
X61084852Y-101437361D01*
X61030431Y-101220702D01*
X60941354Y-101015840D01*
X60820014Y-100828277D01*
X60669670Y-100663051D01*
X60665619Y-100659852D01*
X60665615Y-100659848D01*
X60498414Y-100527800D01*
X60498410Y-100527798D01*
X60494359Y-100524598D01*
X60453053Y-100501796D01*
X60403084Y-100451364D01*
X60388312Y-100381921D01*
X60413428Y-100315516D01*
X60440780Y-100288909D01*
X60495645Y-100249774D01*
X60619860Y-100161173D01*
X60778096Y-100003489D01*
X60837594Y-99920689D01*
X60905435Y-99826277D01*
X60908453Y-99822077D01*
X60940400Y-99757438D01*
X61005136Y-99626453D01*
X61005137Y-99626451D01*
X61007430Y-99621811D01*
X61072370Y-99408069D01*
X61101529Y-99186590D01*
X61103156Y-99120000D01*
X61084852Y-98897361D01*
X61030431Y-98680702D01*
X60941354Y-98475840D01*
X60820014Y-98288277D01*
X60669670Y-98123051D01*
X60665619Y-98119852D01*
X60665615Y-98119848D01*
X60498414Y-97987800D01*
X60498410Y-97987798D01*
X60494359Y-97984598D01*
X60453053Y-97961796D01*
X60403084Y-97911364D01*
X60388312Y-97841921D01*
X60413428Y-97775516D01*
X60440780Y-97748909D01*
X60496276Y-97709324D01*
X60619860Y-97621173D01*
X60778096Y-97463489D01*
X60837594Y-97380689D01*
X60905435Y-97286277D01*
X60908453Y-97282077D01*
X60940400Y-97217438D01*
X61005136Y-97086453D01*
X61005137Y-97086451D01*
X61007430Y-97081811D01*
X61072370Y-96868069D01*
X61101529Y-96646590D01*
X61103156Y-96580000D01*
X61084852Y-96357361D01*
X61030431Y-96140702D01*
X60941354Y-95935840D01*
X60880906Y-95842401D01*
X60822822Y-95752617D01*
X60822820Y-95752614D01*
X60820014Y-95748277D01*
X60669670Y-95583051D01*
X60665619Y-95579852D01*
X60665615Y-95579848D01*
X60498414Y-95447800D01*
X60498410Y-95447798D01*
X60494359Y-95444598D01*
X60453053Y-95421796D01*
X60403084Y-95371364D01*
X60388312Y-95301921D01*
X60413428Y-95235516D01*
X60440780Y-95208909D01*
X60496063Y-95169476D01*
X60619860Y-95081173D01*
X60778096Y-94923489D01*
X60837594Y-94840689D01*
X60905435Y-94746277D01*
X60908453Y-94742077D01*
X60940400Y-94677438D01*
X61005136Y-94546453D01*
X61005137Y-94546451D01*
X61007430Y-94541811D01*
X61058302Y-94374371D01*
X61070865Y-94333023D01*
X61070865Y-94333021D01*
X61072370Y-94328069D01*
X61101529Y-94106590D01*
X61103156Y-94040000D01*
X61084852Y-93817361D01*
X61030431Y-93600702D01*
X60941354Y-93395840D01*
X60820014Y-93208277D01*
X60669670Y-93043051D01*
X60665619Y-93039852D01*
X60665615Y-93039848D01*
X60498414Y-92907800D01*
X60498410Y-92907798D01*
X60494359Y-92904598D01*
X60453053Y-92881796D01*
X60403084Y-92831364D01*
X60388312Y-92761921D01*
X60413428Y-92695516D01*
X60440780Y-92668909D01*
X60496063Y-92629476D01*
X60619860Y-92541173D01*
X60778096Y-92383489D01*
X60837594Y-92300689D01*
X60905435Y-92206277D01*
X60908453Y-92202077D01*
X60940400Y-92137438D01*
X61005136Y-92006453D01*
X61005137Y-92006451D01*
X61007430Y-92001811D01*
X61072370Y-91788069D01*
X61101529Y-91566590D01*
X61103156Y-91500000D01*
X61084852Y-91277361D01*
X61030431Y-91060702D01*
X60941354Y-90855840D01*
X60820014Y-90668277D01*
X60669670Y-90503051D01*
X60665619Y-90499852D01*
X60665615Y-90499848D01*
X60498414Y-90367800D01*
X60498410Y-90367798D01*
X60494359Y-90364598D01*
X60453053Y-90341796D01*
X60403084Y-90291364D01*
X60388312Y-90221921D01*
X60413428Y-90155516D01*
X60440780Y-90128909D01*
X60496063Y-90089476D01*
X60619860Y-90001173D01*
X60778096Y-89843489D01*
X60837594Y-89760689D01*
X60905435Y-89666277D01*
X60908453Y-89662077D01*
X60940400Y-89597438D01*
X61005136Y-89466453D01*
X61005137Y-89466451D01*
X61007430Y-89461811D01*
X61072370Y-89248069D01*
X61101529Y-89026590D01*
X61103156Y-88960000D01*
X61084852Y-88737361D01*
X61030431Y-88520702D01*
X60941354Y-88315840D01*
X60820014Y-88128277D01*
X60669670Y-87963051D01*
X60665619Y-87959852D01*
X60665615Y-87959848D01*
X60498414Y-87827800D01*
X60498410Y-87827798D01*
X60494359Y-87824598D01*
X60453053Y-87801796D01*
X60403084Y-87751364D01*
X60388312Y-87681921D01*
X60413428Y-87615516D01*
X60440780Y-87588909D01*
X60496063Y-87549476D01*
X60619860Y-87461173D01*
X60778096Y-87303489D01*
X60837594Y-87220689D01*
X60905435Y-87126277D01*
X60908453Y-87122077D01*
X60940400Y-87057438D01*
X61005136Y-86926453D01*
X61005137Y-86926451D01*
X61007430Y-86921811D01*
X61072370Y-86708069D01*
X61101529Y-86486590D01*
X61103156Y-86420000D01*
X61084852Y-86197361D01*
X61030431Y-85980702D01*
X60941354Y-85775840D01*
X60820014Y-85588277D01*
X60669670Y-85423051D01*
X60665619Y-85419852D01*
X60665615Y-85419848D01*
X60498414Y-85287800D01*
X60498410Y-85287798D01*
X60494359Y-85284598D01*
X60453053Y-85261796D01*
X60403084Y-85211364D01*
X60388312Y-85141921D01*
X60413428Y-85075516D01*
X60440780Y-85048909D01*
X60496063Y-85009476D01*
X60619860Y-84921173D01*
X60778096Y-84763489D01*
X60837594Y-84680689D01*
X60905435Y-84586277D01*
X60908453Y-84582077D01*
X60966506Y-84464616D01*
X61005136Y-84386453D01*
X61005137Y-84386451D01*
X61007430Y-84381811D01*
X61072370Y-84168069D01*
X61101529Y-83946590D01*
X61103156Y-83880000D01*
X61084852Y-83657361D01*
X61030431Y-83440702D01*
X60941354Y-83235840D01*
X60820014Y-83048277D01*
X60669670Y-82883051D01*
X60665619Y-82879852D01*
X60665615Y-82879848D01*
X60498414Y-82747800D01*
X60498410Y-82747798D01*
X60494359Y-82744598D01*
X60453053Y-82721796D01*
X60403084Y-82671364D01*
X60388312Y-82601921D01*
X60413428Y-82535516D01*
X60440780Y-82508909D01*
X60507245Y-82461500D01*
X60619860Y-82381173D01*
X60778096Y-82223489D01*
X60837594Y-82140689D01*
X60905435Y-82046277D01*
X60908453Y-82042077D01*
X60966506Y-81924616D01*
X61005136Y-81846453D01*
X61005137Y-81846451D01*
X61007430Y-81841811D01*
X61072370Y-81628069D01*
X61101529Y-81406590D01*
X61103156Y-81340000D01*
X61084852Y-81117361D01*
X61030431Y-80900702D01*
X60941354Y-80695840D01*
X60820014Y-80508277D01*
X60669670Y-80343051D01*
X60665619Y-80339852D01*
X60665615Y-80339848D01*
X60498414Y-80207800D01*
X60498410Y-80207798D01*
X60494359Y-80204598D01*
X60453053Y-80181796D01*
X60403084Y-80131364D01*
X60388312Y-80061921D01*
X60413428Y-79995516D01*
X60440780Y-79968909D01*
X60496063Y-79929476D01*
X60619860Y-79841173D01*
X60778096Y-79683489D01*
X60837594Y-79600689D01*
X60905435Y-79506277D01*
X60908453Y-79502077D01*
X60966506Y-79384616D01*
X61005136Y-79306453D01*
X61005137Y-79306451D01*
X61007430Y-79301811D01*
X61072370Y-79088069D01*
X61101529Y-78866590D01*
X61103156Y-78800000D01*
X61084852Y-78577361D01*
X61030431Y-78360702D01*
X60941354Y-78155840D01*
X60820014Y-77968277D01*
X60669670Y-77803051D01*
X60665619Y-77799852D01*
X60665615Y-77799848D01*
X60498414Y-77667800D01*
X60498410Y-77667798D01*
X60494359Y-77664598D01*
X60453053Y-77641796D01*
X60403084Y-77591364D01*
X60388312Y-77521921D01*
X60413428Y-77455516D01*
X60440780Y-77428909D01*
X60496063Y-77389476D01*
X60619860Y-77301173D01*
X60778096Y-77143489D01*
X60837594Y-77060689D01*
X60905435Y-76966277D01*
X60908453Y-76962077D01*
X60966506Y-76844616D01*
X61005136Y-76766453D01*
X61005137Y-76766451D01*
X61007430Y-76761811D01*
X61072370Y-76548069D01*
X61101529Y-76326590D01*
X61103156Y-76260000D01*
X61084852Y-76037361D01*
X61030431Y-75820702D01*
X60941354Y-75615840D01*
X60820014Y-75428277D01*
X60669670Y-75263051D01*
X60665619Y-75259852D01*
X60665615Y-75259848D01*
X60498414Y-75127800D01*
X60498410Y-75127798D01*
X60494359Y-75124598D01*
X60453053Y-75101796D01*
X60403084Y-75051364D01*
X60388312Y-74981921D01*
X60413428Y-74915516D01*
X60440780Y-74888909D01*
X60496063Y-74849476D01*
X60619860Y-74761173D01*
X60778096Y-74603489D01*
X60837594Y-74520689D01*
X60905435Y-74426277D01*
X60908453Y-74422077D01*
X60933089Y-74372231D01*
X61005136Y-74226453D01*
X61005137Y-74226451D01*
X61007430Y-74221811D01*
X61065190Y-74031702D01*
X61070865Y-74013023D01*
X61070865Y-74013021D01*
X61072370Y-74008069D01*
X61101529Y-73786590D01*
X61103156Y-73720000D01*
X61084852Y-73497361D01*
X61030431Y-73280702D01*
X60941354Y-73075840D01*
X60863006Y-72954733D01*
X95142822Y-72954733D01*
X95142975Y-72959121D01*
X95142975Y-72959127D01*
X95152061Y-73219305D01*
X95152625Y-73235458D01*
X95153387Y-73239781D01*
X95153388Y-73239788D01*
X95177164Y-73374624D01*
X95201402Y-73512087D01*
X95288203Y-73779235D01*
X95290131Y-73783188D01*
X95290133Y-73783193D01*
X95334690Y-73874547D01*
X95411340Y-74031702D01*
X95413795Y-74035341D01*
X95413798Y-74035347D01*
X95476050Y-74127639D01*
X95568415Y-74264576D01*
X95756371Y-74473322D01*
X95971550Y-74653879D01*
X96209764Y-74802731D01*
X96466375Y-74916982D01*
X96579215Y-74949338D01*
X96718036Y-74989144D01*
X96736390Y-74994407D01*
X96740740Y-74995018D01*
X96740743Y-74995019D01*
X96843690Y-75009487D01*
X97014552Y-75033500D01*
X97225146Y-75033500D01*
X97227332Y-75033347D01*
X97227336Y-75033347D01*
X97430827Y-75019118D01*
X97430832Y-75019117D01*
X97435212Y-75018811D01*
X97709970Y-74960409D01*
X97714099Y-74958906D01*
X97714103Y-74958905D01*
X97969781Y-74865846D01*
X97969785Y-74865844D01*
X97973926Y-74864337D01*
X98221942Y-74732464D01*
X98225503Y-74729877D01*
X98445629Y-74569947D01*
X98445632Y-74569944D01*
X98449192Y-74567358D01*
X98651252Y-74372231D01*
X98824188Y-74150882D01*
X98826384Y-74147078D01*
X98826389Y-74147071D01*
X98962435Y-73911431D01*
X98964636Y-73907619D01*
X99069862Y-73647176D01*
X99103544Y-73512087D01*
X99136753Y-73378893D01*
X99136754Y-73378888D01*
X99137817Y-73374624D01*
X99147689Y-73280702D01*
X99166719Y-73099636D01*
X99166719Y-73099633D01*
X99167178Y-73095267D01*
X99167025Y-73090873D01*
X99157529Y-72818939D01*
X99157528Y-72818933D01*
X99157375Y-72814542D01*
X99133608Y-72679749D01*
X99113640Y-72566507D01*
X99108598Y-72537913D01*
X99021797Y-72270765D01*
X99019782Y-72266632D01*
X98927844Y-72078134D01*
X98898660Y-72018298D01*
X98896205Y-72014659D01*
X98896202Y-72014653D01*
X98783414Y-71847438D01*
X98741585Y-71785424D01*
X98553629Y-71576678D01*
X98338450Y-71396121D01*
X98100236Y-71247269D01*
X97843625Y-71133018D01*
X97573610Y-71055593D01*
X97569260Y-71054982D01*
X97569257Y-71054981D01*
X97466310Y-71040513D01*
X97295448Y-71016500D01*
X97084854Y-71016500D01*
X97082668Y-71016653D01*
X97082664Y-71016653D01*
X96879173Y-71030882D01*
X96879168Y-71030883D01*
X96874788Y-71031189D01*
X96600030Y-71089591D01*
X96595901Y-71091094D01*
X96595897Y-71091095D01*
X96340219Y-71184154D01*
X96340215Y-71184156D01*
X96336074Y-71185663D01*
X96088058Y-71317536D01*
X96084499Y-71320122D01*
X96084497Y-71320123D01*
X95922158Y-71438069D01*
X95860808Y-71482642D01*
X95658748Y-71677769D01*
X95485812Y-71899118D01*
X95483616Y-71902922D01*
X95483611Y-71902929D01*
X95384430Y-72074717D01*
X95345364Y-72142381D01*
X95240138Y-72402824D01*
X95239073Y-72407097D01*
X95239072Y-72407099D01*
X95182565Y-72633738D01*
X95172183Y-72675376D01*
X95171724Y-72679744D01*
X95171723Y-72679749D01*
X95143281Y-72950364D01*
X95142822Y-72954733D01*
X60863006Y-72954733D01*
X60820014Y-72888277D01*
X60816532Y-72884450D01*
X60672798Y-72726488D01*
X60641746Y-72662642D01*
X60650141Y-72592143D01*
X60695317Y-72537375D01*
X60721761Y-72523706D01*
X60828297Y-72483767D01*
X60836705Y-72480615D01*
X60953261Y-72393261D01*
X61040615Y-72276705D01*
X61091745Y-72140316D01*
X61098500Y-72078134D01*
X61098500Y-70281866D01*
X61091745Y-70219684D01*
X61040615Y-70083295D01*
X60953261Y-69966739D01*
X60836705Y-69879385D01*
X60700316Y-69828255D01*
X60638134Y-69821500D01*
X58841866Y-69821500D01*
X58779684Y-69828255D01*
X58643295Y-69879385D01*
X58526739Y-69966739D01*
X58439385Y-70083295D01*
X58388255Y-70219684D01*
X58381500Y-70281866D01*
X58381500Y-72078134D01*
X58388255Y-72140316D01*
X58439385Y-72276705D01*
X58526739Y-72393261D01*
X58643295Y-72480615D01*
X58651704Y-72483767D01*
X58651705Y-72483768D01*
X58760451Y-72524535D01*
X58817216Y-72567176D01*
X58841916Y-72633738D01*
X58826709Y-72703087D01*
X58807316Y-72729568D01*
X58684319Y-72858277D01*
X58680629Y-72862138D01*
X58554743Y-73046680D01*
X58532190Y-73095267D01*
X58465106Y-73239788D01*
X58460688Y-73249305D01*
X58400989Y-73464570D01*
X58377251Y-73686695D01*
X58377548Y-73691848D01*
X58377548Y-73691851D01*
X58389754Y-73903539D01*
X58390110Y-73909715D01*
X58391247Y-73914761D01*
X58391248Y-73914767D01*
X58404358Y-73972939D01*
X58439222Y-74127639D01*
X58477461Y-74221811D01*
X58512873Y-74309020D01*
X58523266Y-74334616D01*
X58639987Y-74525088D01*
X58786250Y-74693938D01*
X58958126Y-74836632D01*
X58980106Y-74849476D01*
X59031445Y-74879476D01*
X59080169Y-74931114D01*
X59093240Y-75000897D01*
X59066509Y-75066669D01*
X59026055Y-75100027D01*
X59013607Y-75106507D01*
X59009474Y-75109610D01*
X59009471Y-75109612D01*
X58839100Y-75237530D01*
X58834965Y-75240635D01*
X58831393Y-75244373D01*
X58684319Y-75398277D01*
X58680629Y-75402138D01*
X58554743Y-75586680D01*
X58460688Y-75789305D01*
X58400989Y-76004570D01*
X58377251Y-76226695D01*
X58377548Y-76231848D01*
X58377548Y-76231851D01*
X58389812Y-76444547D01*
X58390110Y-76449715D01*
X58391247Y-76454761D01*
X58391248Y-76454767D01*
X58404358Y-76512939D01*
X58439222Y-76667639D01*
X58477461Y-76761811D01*
X58512873Y-76849020D01*
X58523266Y-76874616D01*
X58639987Y-77065088D01*
X58786250Y-77233938D01*
X58958126Y-77376632D01*
X58980106Y-77389476D01*
X59031445Y-77419476D01*
X59080169Y-77471114D01*
X59093240Y-77540897D01*
X59066509Y-77606669D01*
X59026055Y-77640027D01*
X59013607Y-77646507D01*
X59009474Y-77649610D01*
X59009471Y-77649612D01*
X58839100Y-77777530D01*
X58834965Y-77780635D01*
X58831393Y-77784373D01*
X58684319Y-77938277D01*
X58680629Y-77942138D01*
X58554743Y-78126680D01*
X58460688Y-78329305D01*
X58400989Y-78544570D01*
X58377251Y-78766695D01*
X58377548Y-78771848D01*
X58377548Y-78771851D01*
X58389812Y-78984547D01*
X58390110Y-78989715D01*
X58391247Y-78994761D01*
X58391248Y-78994767D01*
X58404358Y-79052939D01*
X58439222Y-79207639D01*
X58477461Y-79301811D01*
X58512873Y-79389020D01*
X58523266Y-79414616D01*
X58639987Y-79605088D01*
X58786250Y-79773938D01*
X58958126Y-79916632D01*
X58980106Y-79929476D01*
X59031445Y-79959476D01*
X59080169Y-80011114D01*
X59093240Y-80080897D01*
X59066509Y-80146669D01*
X59026055Y-80180027D01*
X59013607Y-80186507D01*
X59009474Y-80189610D01*
X59009471Y-80189612D01*
X58839100Y-80317530D01*
X58834965Y-80320635D01*
X58831393Y-80324373D01*
X58684319Y-80478277D01*
X58680629Y-80482138D01*
X58554743Y-80666680D01*
X58460688Y-80869305D01*
X58400989Y-81084570D01*
X58377251Y-81306695D01*
X58377548Y-81311848D01*
X58377548Y-81311851D01*
X58389812Y-81524547D01*
X58390110Y-81529715D01*
X58391247Y-81534761D01*
X58391248Y-81534767D01*
X58404358Y-81592939D01*
X58439222Y-81747639D01*
X58477461Y-81841811D01*
X58512873Y-81929020D01*
X58523266Y-81954616D01*
X58639987Y-82145088D01*
X58786250Y-82313938D01*
X58958126Y-82456632D01*
X58980106Y-82469476D01*
X59031445Y-82499476D01*
X59080169Y-82551114D01*
X59093240Y-82620897D01*
X59066509Y-82686669D01*
X59026055Y-82720027D01*
X59013607Y-82726507D01*
X59009474Y-82729610D01*
X59009471Y-82729612D01*
X58839100Y-82857530D01*
X58834965Y-82860635D01*
X58776451Y-82921866D01*
X58684319Y-83018277D01*
X58680629Y-83022138D01*
X58554743Y-83206680D01*
X58539003Y-83240590D01*
X58474838Y-83378822D01*
X58460688Y-83409305D01*
X58400989Y-83624570D01*
X58377251Y-83846695D01*
X58377548Y-83851848D01*
X58377548Y-83851851D01*
X58388787Y-84046776D01*
X58390110Y-84069715D01*
X58391247Y-84074761D01*
X58391248Y-84074767D01*
X58404358Y-84132939D01*
X58439222Y-84287639D01*
X58477461Y-84381811D01*
X58512873Y-84469020D01*
X58523266Y-84494616D01*
X58525965Y-84499020D01*
X58609459Y-84635270D01*
X58639987Y-84685088D01*
X58786250Y-84853938D01*
X58958126Y-84996632D01*
X58980106Y-85009476D01*
X59031445Y-85039476D01*
X59080169Y-85091114D01*
X59093240Y-85160897D01*
X59066509Y-85226669D01*
X59026055Y-85260027D01*
X59013607Y-85266507D01*
X59009474Y-85269610D01*
X59009471Y-85269612D01*
X58839100Y-85397530D01*
X58834965Y-85400635D01*
X58831393Y-85404373D01*
X58684319Y-85558277D01*
X58680629Y-85562138D01*
X58554743Y-85746680D01*
X58539003Y-85780590D01*
X58471636Y-85925720D01*
X58460688Y-85949305D01*
X58400989Y-86164570D01*
X58377251Y-86386695D01*
X58377548Y-86391848D01*
X58377548Y-86391851D01*
X58388787Y-86586776D01*
X58390110Y-86609715D01*
X58391247Y-86614761D01*
X58391248Y-86614767D01*
X58399870Y-86653023D01*
X58439222Y-86827639D01*
X58477461Y-86921811D01*
X58512873Y-87009020D01*
X58523266Y-87034616D01*
X58525965Y-87039020D01*
X58609459Y-87175270D01*
X58639987Y-87225088D01*
X58786250Y-87393938D01*
X58958126Y-87536632D01*
X58995446Y-87558440D01*
X59031445Y-87579476D01*
X59080169Y-87631114D01*
X59093240Y-87700897D01*
X59066509Y-87766669D01*
X59026055Y-87800027D01*
X59013607Y-87806507D01*
X59009474Y-87809610D01*
X59009471Y-87809612D01*
X58839100Y-87937530D01*
X58834965Y-87940635D01*
X58831393Y-87944373D01*
X58684319Y-88098277D01*
X58680629Y-88102138D01*
X58554743Y-88286680D01*
X58539003Y-88320590D01*
X58471636Y-88465720D01*
X58460688Y-88489305D01*
X58400989Y-88704570D01*
X58377251Y-88926695D01*
X58377548Y-88931848D01*
X58377548Y-88931851D01*
X58388787Y-89126776D01*
X58390110Y-89149715D01*
X58391247Y-89154761D01*
X58391248Y-89154767D01*
X58399870Y-89193023D01*
X58439222Y-89367639D01*
X58477461Y-89461811D01*
X58512873Y-89549020D01*
X58523266Y-89574616D01*
X58525965Y-89579020D01*
X58609459Y-89715270D01*
X58639987Y-89765088D01*
X58786250Y-89933938D01*
X58958126Y-90076632D01*
X58995446Y-90098440D01*
X59031445Y-90119476D01*
X59080169Y-90171114D01*
X59093240Y-90240897D01*
X59066509Y-90306669D01*
X59026055Y-90340027D01*
X59013607Y-90346507D01*
X59009474Y-90349610D01*
X59009471Y-90349612D01*
X58839100Y-90477530D01*
X58834965Y-90480635D01*
X58831393Y-90484373D01*
X58684319Y-90638277D01*
X58680629Y-90642138D01*
X58554743Y-90826680D01*
X58539003Y-90860590D01*
X58471636Y-91005720D01*
X58460688Y-91029305D01*
X58400989Y-91244570D01*
X58377251Y-91466695D01*
X58377548Y-91471848D01*
X58377548Y-91471851D01*
X58388787Y-91666776D01*
X58390110Y-91689715D01*
X58391247Y-91694761D01*
X58391248Y-91694767D01*
X58399870Y-91733023D01*
X58439222Y-91907639D01*
X58477461Y-92001811D01*
X58512873Y-92089020D01*
X58523266Y-92114616D01*
X58525965Y-92119020D01*
X58609459Y-92255270D01*
X58639987Y-92305088D01*
X58786250Y-92473938D01*
X58958126Y-92616632D01*
X58995446Y-92638440D01*
X59031445Y-92659476D01*
X59080169Y-92711114D01*
X59093240Y-92780897D01*
X59066509Y-92846669D01*
X59026055Y-92880027D01*
X59013607Y-92886507D01*
X59009474Y-92889610D01*
X59009471Y-92889612D01*
X58839100Y-93017530D01*
X58834965Y-93020635D01*
X58831393Y-93024373D01*
X58684319Y-93178277D01*
X58680629Y-93182138D01*
X58554743Y-93366680D01*
X58539003Y-93400590D01*
X58471636Y-93545720D01*
X58460688Y-93569305D01*
X58400989Y-93784570D01*
X58377251Y-94006695D01*
X58377548Y-94011848D01*
X58377548Y-94011851D01*
X58388787Y-94206776D01*
X58390110Y-94229715D01*
X58391247Y-94234761D01*
X58391248Y-94234767D01*
X58399870Y-94273023D01*
X58439222Y-94447639D01*
X58477461Y-94541811D01*
X58512873Y-94629020D01*
X58523266Y-94654616D01*
X58525965Y-94659020D01*
X58628213Y-94825874D01*
X58639987Y-94845088D01*
X58786250Y-95013938D01*
X58958126Y-95156632D01*
X58995446Y-95178440D01*
X59031445Y-95199476D01*
X59080169Y-95251114D01*
X59093240Y-95320897D01*
X59066509Y-95386669D01*
X59026055Y-95420027D01*
X59013607Y-95426507D01*
X59009474Y-95429610D01*
X59009471Y-95429612D01*
X58839100Y-95557530D01*
X58834965Y-95560635D01*
X58831393Y-95564373D01*
X58684319Y-95718277D01*
X58680629Y-95722138D01*
X58677715Y-95726410D01*
X58677714Y-95726411D01*
X58598591Y-95842401D01*
X58554743Y-95906680D01*
X58539003Y-95940590D01*
X58471636Y-96085720D01*
X58460688Y-96109305D01*
X58400989Y-96324570D01*
X58377251Y-96546695D01*
X58377548Y-96551848D01*
X58377548Y-96551851D01*
X58388787Y-96746776D01*
X58390110Y-96769715D01*
X58391247Y-96774761D01*
X58391248Y-96774767D01*
X58399870Y-96813023D01*
X58439222Y-96987639D01*
X58477461Y-97081811D01*
X58512873Y-97169020D01*
X58523266Y-97194616D01*
X58525965Y-97199020D01*
X58609459Y-97335270D01*
X58639987Y-97385088D01*
X58786250Y-97553938D01*
X58958126Y-97696632D01*
X58991777Y-97716296D01*
X59031445Y-97739476D01*
X59080169Y-97791114D01*
X59093240Y-97860897D01*
X59066509Y-97926669D01*
X59026055Y-97960027D01*
X59013607Y-97966507D01*
X59009474Y-97969610D01*
X59009471Y-97969612D01*
X58839100Y-98097530D01*
X58834965Y-98100635D01*
X58831393Y-98104373D01*
X58684319Y-98258277D01*
X58680629Y-98262138D01*
X58677715Y-98266410D01*
X58677714Y-98266411D01*
X58660956Y-98290978D01*
X58554743Y-98446680D01*
X58539003Y-98480590D01*
X58471636Y-98625720D01*
X58460688Y-98649305D01*
X58400989Y-98864570D01*
X58377251Y-99086695D01*
X58377548Y-99091848D01*
X58377548Y-99091851D01*
X58388787Y-99286776D01*
X58390110Y-99309715D01*
X58391247Y-99314761D01*
X58391248Y-99314767D01*
X58399870Y-99353023D01*
X58439222Y-99527639D01*
X58477461Y-99621811D01*
X58512873Y-99709020D01*
X58523266Y-99734616D01*
X58525965Y-99739020D01*
X58609459Y-99875270D01*
X58639987Y-99925088D01*
X58786250Y-100093938D01*
X58958126Y-100236632D01*
X58999649Y-100260896D01*
X59031445Y-100279476D01*
X59080169Y-100331114D01*
X59093240Y-100400897D01*
X59066509Y-100466669D01*
X59026055Y-100500027D01*
X59013607Y-100506507D01*
X59009474Y-100509610D01*
X59009471Y-100509612D01*
X58839100Y-100637530D01*
X58834965Y-100640635D01*
X58831393Y-100644373D01*
X58741538Y-100738401D01*
X58680629Y-100802138D01*
X58554743Y-100986680D01*
X58539003Y-101020590D01*
X58471636Y-101165720D01*
X58460688Y-101189305D01*
X58400989Y-101404570D01*
X58377251Y-101626695D01*
X47538500Y-101626695D01*
X47538500Y-63500000D01*
X91496884Y-63500000D01*
X91515314Y-63710655D01*
X91570044Y-63914910D01*
X91572366Y-63919891D01*
X91572367Y-63919892D01*
X91650102Y-64086594D01*
X91659411Y-64106558D01*
X91780699Y-64279776D01*
X91930224Y-64429301D01*
X92103442Y-64550589D01*
X92108420Y-64552910D01*
X92108423Y-64552912D01*
X92290108Y-64637633D01*
X92295090Y-64639956D01*
X92300398Y-64641378D01*
X92300400Y-64641379D01*
X92494030Y-64693262D01*
X92494032Y-64693262D01*
X92499345Y-64694686D01*
X92710000Y-64713116D01*
X92920655Y-64694686D01*
X92925968Y-64693262D01*
X92925970Y-64693262D01*
X93119600Y-64641379D01*
X93119602Y-64641378D01*
X93124910Y-64639956D01*
X93129892Y-64637633D01*
X93311577Y-64552912D01*
X93311580Y-64552910D01*
X93316558Y-64550589D01*
X93489776Y-64429301D01*
X93639301Y-64279776D01*
X93760589Y-64106558D01*
X93769899Y-64086594D01*
X93847633Y-63919892D01*
X93847634Y-63919891D01*
X93849956Y-63914910D01*
X93904686Y-63710655D01*
X93923116Y-63500000D01*
X99116884Y-63500000D01*
X99135314Y-63710655D01*
X99190044Y-63914910D01*
X99192366Y-63919891D01*
X99192367Y-63919892D01*
X99270102Y-64086594D01*
X99279411Y-64106558D01*
X99400699Y-64279776D01*
X99550224Y-64429301D01*
X99723442Y-64550589D01*
X99728420Y-64552910D01*
X99728423Y-64552912D01*
X99910108Y-64637633D01*
X99915090Y-64639956D01*
X99920398Y-64641378D01*
X99920400Y-64641379D01*
X100114030Y-64693262D01*
X100114032Y-64693262D01*
X100119345Y-64694686D01*
X100330000Y-64713116D01*
X100540655Y-64694686D01*
X100545968Y-64693262D01*
X100545970Y-64693262D01*
X100739600Y-64641379D01*
X100739602Y-64641378D01*
X100744910Y-64639956D01*
X100749892Y-64637633D01*
X100931577Y-64552912D01*
X100931580Y-64552910D01*
X100936558Y-64550589D01*
X101109776Y-64429301D01*
X101259301Y-64279776D01*
X101380589Y-64106558D01*
X101389899Y-64086594D01*
X101467633Y-63919892D01*
X101467634Y-63919891D01*
X101469956Y-63914910D01*
X101524686Y-63710655D01*
X101543116Y-63500000D01*
X101524686Y-63289345D01*
X101469956Y-63085090D01*
X101380589Y-62893442D01*
X101259301Y-62720224D01*
X101109776Y-62570699D01*
X100936558Y-62449411D01*
X100931580Y-62447090D01*
X100931577Y-62447088D01*
X100749892Y-62362367D01*
X100749891Y-62362366D01*
X100744910Y-62360044D01*
X100739602Y-62358622D01*
X100739600Y-62358621D01*
X100545970Y-62306738D01*
X100545968Y-62306738D01*
X100540655Y-62305314D01*
X100330000Y-62286884D01*
X100119345Y-62305314D01*
X100114032Y-62306738D01*
X100114030Y-62306738D01*
X99920400Y-62358621D01*
X99920398Y-62358622D01*
X99915090Y-62360044D01*
X99910109Y-62362366D01*
X99910108Y-62362367D01*
X99728423Y-62447088D01*
X99728420Y-62447090D01*
X99723442Y-62449411D01*
X99550224Y-62570699D01*
X99400699Y-62720224D01*
X99279411Y-62893442D01*
X99190044Y-63085090D01*
X99135314Y-63289345D01*
X99116884Y-63500000D01*
X93923116Y-63500000D01*
X93904686Y-63289345D01*
X93849956Y-63085090D01*
X93760589Y-62893442D01*
X93639301Y-62720224D01*
X93489776Y-62570699D01*
X93316558Y-62449411D01*
X93311580Y-62447090D01*
X93311577Y-62447088D01*
X93129892Y-62362367D01*
X93129891Y-62362366D01*
X93124910Y-62360044D01*
X93119602Y-62358622D01*
X93119600Y-62358621D01*
X92925970Y-62306738D01*
X92925968Y-62306738D01*
X92920655Y-62305314D01*
X92710000Y-62286884D01*
X92499345Y-62305314D01*
X92494032Y-62306738D01*
X92494030Y-62306738D01*
X92300400Y-62358621D01*
X92300398Y-62358622D01*
X92295090Y-62360044D01*
X92290109Y-62362366D01*
X92290108Y-62362367D01*
X92108423Y-62447088D01*
X92108420Y-62447090D01*
X92103442Y-62449411D01*
X91930224Y-62570699D01*
X91780699Y-62720224D01*
X91659411Y-62893442D01*
X91570044Y-63085090D01*
X91515314Y-63289345D01*
X91496884Y-63500000D01*
X47538500Y-63500000D01*
X47538500Y-48965278D01*
X92183000Y-48965278D01*
X92183266Y-48971067D01*
X92197034Y-49120908D01*
X92199132Y-49132229D01*
X92253962Y-49326643D01*
X92258087Y-49337390D01*
X92347434Y-49518565D01*
X92353446Y-49528374D01*
X92474304Y-49690225D01*
X92482011Y-49698785D01*
X92630349Y-49835907D01*
X92639474Y-49842908D01*
X92810320Y-49950704D01*
X92820564Y-49955924D01*
X93008197Y-50030782D01*
X93019226Y-50034049D01*
X93073232Y-50044791D01*
X93086106Y-50043639D01*
X93090074Y-50031353D01*
X93599000Y-50031353D01*
X93602806Y-50044315D01*
X93617722Y-50046251D01*
X93641339Y-50042193D01*
X93652459Y-50039213D01*
X93841981Y-49969295D01*
X93852359Y-49964345D01*
X94025967Y-49861059D01*
X94035276Y-49854295D01*
X94187157Y-49721100D01*
X94195067Y-49712765D01*
X94320132Y-49554121D01*
X94326403Y-49544464D01*
X94420454Y-49365702D01*
X94424862Y-49355059D01*
X94484765Y-49162143D01*
X94487157Y-49150888D01*
X94488871Y-49136411D01*
X94516742Y-49071113D01*
X94575491Y-49031250D01*
X94646465Y-49029477D01*
X94707131Y-49066357D01*
X94737055Y-49126589D01*
X94737070Y-49126756D01*
X94738639Y-49132318D01*
X94738639Y-49132320D01*
X94745524Y-49156733D01*
X94795064Y-49332387D01*
X94797616Y-49337563D01*
X94797618Y-49337567D01*
X94809063Y-49360775D01*
X94889560Y-49524007D01*
X94893014Y-49528633D01*
X94893015Y-49528634D01*
X94912047Y-49554121D01*
X95017393Y-49695197D01*
X95021627Y-49699111D01*
X95021629Y-49699113D01*
X95169613Y-49835907D01*
X95174283Y-49840224D01*
X95354975Y-49954232D01*
X95553418Y-50033403D01*
X95559075Y-50034528D01*
X95559081Y-50034530D01*
X95757297Y-50073957D01*
X95757301Y-50073957D01*
X95762965Y-50075084D01*
X95768740Y-50075160D01*
X95768744Y-50075160D01*
X95876003Y-50076564D01*
X95976599Y-50077881D01*
X95982296Y-50076902D01*
X95982297Y-50076902D01*
X96181469Y-50042678D01*
X96181470Y-50042678D01*
X96187166Y-50041699D01*
X96387613Y-49967750D01*
X96416265Y-49950704D01*
X96566260Y-49861467D01*
X96566263Y-49861465D01*
X96571228Y-49858511D01*
X96575568Y-49854705D01*
X96575572Y-49854702D01*
X96727519Y-49721447D01*
X96731860Y-49717640D01*
X96864131Y-49549855D01*
X96866968Y-49544464D01*
X96960918Y-49365893D01*
X96963611Y-49360775D01*
X96965386Y-49355059D01*
X97025256Y-49162248D01*
X97025257Y-49162243D01*
X97026968Y-49156733D01*
X97029177Y-49138070D01*
X97057048Y-49072772D01*
X97115796Y-49032908D01*
X97186771Y-49031135D01*
X97247437Y-49068014D01*
X97276677Y-49126867D01*
X97277070Y-49126756D01*
X97278639Y-49132320D01*
X97278640Y-49132324D01*
X97333444Y-49326643D01*
X97335064Y-49332387D01*
X97337616Y-49337563D01*
X97337618Y-49337567D01*
X97349063Y-49360775D01*
X97429560Y-49524007D01*
X97433014Y-49528633D01*
X97433015Y-49528634D01*
X97452047Y-49554121D01*
X97557393Y-49695197D01*
X97561627Y-49699111D01*
X97561629Y-49699113D01*
X97709613Y-49835907D01*
X97714283Y-49840224D01*
X97894975Y-49954232D01*
X98093418Y-50033403D01*
X98099075Y-50034528D01*
X98099081Y-50034530D01*
X98297297Y-50073957D01*
X98297301Y-50073957D01*
X98302965Y-50075084D01*
X98308740Y-50075160D01*
X98308744Y-50075160D01*
X98416003Y-50076564D01*
X98516599Y-50077881D01*
X98522296Y-50076902D01*
X98522297Y-50076902D01*
X98721469Y-50042678D01*
X98721470Y-50042678D01*
X98727166Y-50041699D01*
X98927613Y-49967750D01*
X98956265Y-49950704D01*
X99106260Y-49861467D01*
X99106263Y-49861465D01*
X99111228Y-49858511D01*
X99115568Y-49854705D01*
X99115572Y-49854702D01*
X99267519Y-49721447D01*
X99271860Y-49717640D01*
X99404131Y-49549855D01*
X99406968Y-49544464D01*
X99500918Y-49365893D01*
X99503611Y-49360775D01*
X99505386Y-49355059D01*
X99565256Y-49162248D01*
X99565257Y-49162243D01*
X99566968Y-49156733D01*
X99569177Y-49138070D01*
X99597048Y-49072772D01*
X99655796Y-49032908D01*
X99726771Y-49031135D01*
X99787437Y-49068014D01*
X99816677Y-49126867D01*
X99817070Y-49126756D01*
X99818639Y-49132320D01*
X99818640Y-49132324D01*
X99873444Y-49326643D01*
X99875064Y-49332387D01*
X99877616Y-49337563D01*
X99877618Y-49337567D01*
X99889063Y-49360775D01*
X99969560Y-49524007D01*
X99973014Y-49528633D01*
X99973015Y-49528634D01*
X99992047Y-49554121D01*
X100097393Y-49695197D01*
X100101627Y-49699111D01*
X100101629Y-49699113D01*
X100249613Y-49835907D01*
X100254283Y-49840224D01*
X100434975Y-49954232D01*
X100633418Y-50033403D01*
X100639075Y-50034528D01*
X100639081Y-50034530D01*
X100837297Y-50073957D01*
X100837301Y-50073957D01*
X100842965Y-50075084D01*
X100848740Y-50075160D01*
X100848744Y-50075160D01*
X100956003Y-50076564D01*
X101056599Y-50077881D01*
X101062296Y-50076902D01*
X101062297Y-50076902D01*
X101261469Y-50042678D01*
X101261470Y-50042678D01*
X101267166Y-50041699D01*
X101467613Y-49967750D01*
X101496265Y-49950704D01*
X101646260Y-49861467D01*
X101646263Y-49861465D01*
X101651228Y-49858511D01*
X101655568Y-49854705D01*
X101655572Y-49854702D01*
X101807519Y-49721447D01*
X101811860Y-49717640D01*
X101944131Y-49549855D01*
X101946968Y-49544464D01*
X102040918Y-49365893D01*
X102043611Y-49360775D01*
X102045386Y-49355059D01*
X102105256Y-49162248D01*
X102105257Y-49162243D01*
X102106968Y-49156733D01*
X102111208Y-49120908D01*
X102127064Y-48986945D01*
X102127064Y-48986939D01*
X102127500Y-48983258D01*
X102127500Y-47551804D01*
X102112930Y-47393244D01*
X102054936Y-47187613D01*
X102043756Y-47164941D01*
X101962995Y-47001174D01*
X101960440Y-46995993D01*
X101945426Y-46975886D01*
X101836060Y-46829427D01*
X101836059Y-46829426D01*
X101832607Y-46824803D01*
X101813602Y-46807235D01*
X101679957Y-46683695D01*
X101679954Y-46683693D01*
X101675717Y-46679776D01*
X101495025Y-46565768D01*
X101296582Y-46486597D01*
X101290925Y-46485472D01*
X101290919Y-46485470D01*
X101092703Y-46446043D01*
X101092699Y-46446043D01*
X101087035Y-46444916D01*
X101081260Y-46444840D01*
X101081256Y-46444840D01*
X100973997Y-46443436D01*
X100873401Y-46442119D01*
X100867704Y-46443098D01*
X100867703Y-46443098D01*
X100689325Y-46473749D01*
X100662834Y-46478301D01*
X100462387Y-46552250D01*
X100457426Y-46555202D01*
X100457425Y-46555202D01*
X100283740Y-46658533D01*
X100283737Y-46658535D01*
X100278772Y-46661489D01*
X100274432Y-46665295D01*
X100274428Y-46665298D01*
X100169862Y-46757001D01*
X100118140Y-46802360D01*
X99985869Y-46970145D01*
X99983180Y-46975256D01*
X99983178Y-46975259D01*
X99928830Y-47078557D01*
X99886389Y-47159225D01*
X99884675Y-47164746D01*
X99884673Y-47164750D01*
X99826080Y-47353452D01*
X99823032Y-47363267D01*
X99822354Y-47368997D01*
X99820823Y-47381930D01*
X99792952Y-47447228D01*
X99734204Y-47487092D01*
X99663229Y-47488865D01*
X99602563Y-47451986D01*
X99573323Y-47393133D01*
X99572930Y-47393244D01*
X99570214Y-47383611D01*
X99516504Y-47193172D01*
X99516503Y-47193170D01*
X99514936Y-47187613D01*
X99503756Y-47164941D01*
X99422995Y-47001174D01*
X99420440Y-46995993D01*
X99405426Y-46975886D01*
X99296060Y-46829427D01*
X99296059Y-46829426D01*
X99292607Y-46824803D01*
X99273602Y-46807235D01*
X99139957Y-46683695D01*
X99139954Y-46683693D01*
X99135717Y-46679776D01*
X98955025Y-46565768D01*
X98756582Y-46486597D01*
X98750925Y-46485472D01*
X98750919Y-46485470D01*
X98552703Y-46446043D01*
X98552699Y-46446043D01*
X98547035Y-46444916D01*
X98541260Y-46444840D01*
X98541256Y-46444840D01*
X98433997Y-46443436D01*
X98333401Y-46442119D01*
X98327704Y-46443098D01*
X98327703Y-46443098D01*
X98149325Y-46473749D01*
X98122834Y-46478301D01*
X97922387Y-46552250D01*
X97917426Y-46555202D01*
X97917425Y-46555202D01*
X97743740Y-46658533D01*
X97743737Y-46658535D01*
X97738772Y-46661489D01*
X97734432Y-46665295D01*
X97734428Y-46665298D01*
X97629862Y-46757001D01*
X97578140Y-46802360D01*
X97445869Y-46970145D01*
X97443180Y-46975256D01*
X97443178Y-46975259D01*
X97388830Y-47078557D01*
X97346389Y-47159225D01*
X97344675Y-47164746D01*
X97344673Y-47164750D01*
X97286080Y-47353452D01*
X97283032Y-47363267D01*
X97282354Y-47368997D01*
X97280823Y-47381930D01*
X97252952Y-47447228D01*
X97194204Y-47487092D01*
X97123229Y-47488865D01*
X97062563Y-47451986D01*
X97033323Y-47393133D01*
X97032930Y-47393244D01*
X97030214Y-47383611D01*
X96976504Y-47193172D01*
X96976503Y-47193170D01*
X96974936Y-47187613D01*
X96963756Y-47164941D01*
X96882995Y-47001174D01*
X96880440Y-46995993D01*
X96865426Y-46975886D01*
X96756060Y-46829427D01*
X96756059Y-46829426D01*
X96752607Y-46824803D01*
X96733602Y-46807235D01*
X96599957Y-46683695D01*
X96599954Y-46683693D01*
X96595717Y-46679776D01*
X96415025Y-46565768D01*
X96216582Y-46486597D01*
X96210925Y-46485472D01*
X96210919Y-46485470D01*
X96012703Y-46446043D01*
X96012699Y-46446043D01*
X96007035Y-46444916D01*
X96001260Y-46444840D01*
X96001256Y-46444840D01*
X95893997Y-46443436D01*
X95793401Y-46442119D01*
X95787704Y-46443098D01*
X95787703Y-46443098D01*
X95609325Y-46473749D01*
X95582834Y-46478301D01*
X95382387Y-46552250D01*
X95377426Y-46555202D01*
X95377425Y-46555202D01*
X95203740Y-46658533D01*
X95203737Y-46658535D01*
X95198772Y-46661489D01*
X95194432Y-46665295D01*
X95194428Y-46665298D01*
X95089862Y-46757001D01*
X95038140Y-46802360D01*
X94905869Y-46970145D01*
X94903180Y-46975256D01*
X94903178Y-46975259D01*
X94848830Y-47078557D01*
X94806389Y-47159225D01*
X94804675Y-47164746D01*
X94804673Y-47164750D01*
X94746080Y-47353452D01*
X94743032Y-47363267D01*
X94742354Y-47368997D01*
X94742352Y-47369006D01*
X94740623Y-47383611D01*
X94712752Y-47448908D01*
X94654003Y-47488771D01*
X94583028Y-47490544D01*
X94522363Y-47453663D01*
X94491606Y-47391757D01*
X94490867Y-47387767D01*
X94436038Y-47193357D01*
X94431913Y-47182610D01*
X94342566Y-47001435D01*
X94336554Y-46991626D01*
X94215696Y-46829775D01*
X94207989Y-46821215D01*
X94059651Y-46684093D01*
X94050526Y-46677092D01*
X93879680Y-46569296D01*
X93869436Y-46564076D01*
X93681803Y-46489218D01*
X93670774Y-46485951D01*
X93616768Y-46475209D01*
X93603894Y-46476361D01*
X93599000Y-46491516D01*
X93599000Y-50031353D01*
X93090074Y-50031353D01*
X93091000Y-50028484D01*
X93091000Y-48532115D01*
X93086525Y-48516876D01*
X93085135Y-48515671D01*
X93077452Y-48514000D01*
X92201115Y-48514000D01*
X92185876Y-48518475D01*
X92184671Y-48519865D01*
X92183000Y-48527548D01*
X92183000Y-48965278D01*
X47538500Y-48965278D01*
X47538500Y-47987885D01*
X92183000Y-47987885D01*
X92187475Y-48003124D01*
X92188865Y-48004329D01*
X92196548Y-48006000D01*
X93072885Y-48006000D01*
X93088124Y-48001525D01*
X93089329Y-48000135D01*
X93091000Y-47992452D01*
X93091000Y-46488647D01*
X93087194Y-46475685D01*
X93072278Y-46473749D01*
X93048661Y-46477807D01*
X93037541Y-46480787D01*
X92848019Y-46550705D01*
X92837641Y-46555655D01*
X92664033Y-46658941D01*
X92654724Y-46665705D01*
X92502843Y-46798900D01*
X92494933Y-46807235D01*
X92369868Y-46965879D01*
X92363597Y-46975536D01*
X92269546Y-47154298D01*
X92265138Y-47164941D01*
X92205235Y-47357857D01*
X92202845Y-47369101D01*
X92183436Y-47533085D01*
X92183000Y-47540488D01*
X92183000Y-47987885D01*
X47538500Y-47987885D01*
X47538500Y-45817869D01*
X51306689Y-45817869D01*
X51323238Y-46104883D01*
X51324063Y-46109088D01*
X51324064Y-46109096D01*
X51356010Y-46271921D01*
X51378586Y-46386995D01*
X51379973Y-46391045D01*
X51379974Y-46391050D01*
X51439794Y-46565768D01*
X51471710Y-46658986D01*
X51600885Y-46915822D01*
X51763721Y-47152750D01*
X51766608Y-47155923D01*
X51766609Y-47155924D01*
X51873449Y-47273340D01*
X51957206Y-47365388D01*
X51960501Y-47368143D01*
X51960502Y-47368144D01*
X52106892Y-47490544D01*
X52177759Y-47549798D01*
X52421298Y-47702571D01*
X52683318Y-47820877D01*
X52687437Y-47822097D01*
X52954857Y-47901311D01*
X52954862Y-47901312D01*
X52958970Y-47902529D01*
X52963204Y-47903177D01*
X52963209Y-47903178D01*
X53211811Y-47941219D01*
X53243153Y-47946015D01*
X53389485Y-47948314D01*
X53526317Y-47950464D01*
X53526323Y-47950464D01*
X53530608Y-47950531D01*
X53534860Y-47950016D01*
X53534868Y-47950016D01*
X53811756Y-47916508D01*
X53811761Y-47916507D01*
X53816017Y-47915992D01*
X54094097Y-47843039D01*
X54359704Y-47733021D01*
X54607922Y-47587974D01*
X54834159Y-47410582D01*
X54851069Y-47393133D01*
X55031244Y-47207206D01*
X55034227Y-47204128D01*
X55036760Y-47200680D01*
X55036764Y-47200675D01*
X55201887Y-46975886D01*
X55204425Y-46972431D01*
X55206471Y-46968663D01*
X55339554Y-46723555D01*
X55339555Y-46723553D01*
X55341604Y-46719779D01*
X55429961Y-46485951D01*
X55441707Y-46454866D01*
X55441708Y-46454862D01*
X55443225Y-46450848D01*
X55507407Y-46170613D01*
X55518472Y-46046638D01*
X55532743Y-45886726D01*
X55532743Y-45886724D01*
X55532963Y-45884260D01*
X55533427Y-45840000D01*
X55532997Y-45833693D01*
X55529858Y-45787655D01*
X145639858Y-45787655D01*
X145675104Y-46046638D01*
X145676412Y-46051124D01*
X145676412Y-46051126D01*
X145690831Y-46100596D01*
X145748243Y-46297567D01*
X145857668Y-46534928D01*
X145860231Y-46538837D01*
X145998410Y-46749596D01*
X145998414Y-46749601D01*
X146000976Y-46753509D01*
X146175018Y-46948506D01*
X146375970Y-47115637D01*
X146379973Y-47118066D01*
X146595422Y-47248804D01*
X146595426Y-47248806D01*
X146599419Y-47251229D01*
X146840455Y-47352303D01*
X147093783Y-47416641D01*
X147098434Y-47417109D01*
X147098438Y-47417110D01*
X147291308Y-47436531D01*
X147310867Y-47438500D01*
X147466354Y-47438500D01*
X147468679Y-47438327D01*
X147468685Y-47438327D01*
X147656000Y-47424407D01*
X147656004Y-47424406D01*
X147660652Y-47424061D01*
X147665200Y-47423032D01*
X147665206Y-47423031D01*
X147851601Y-47380853D01*
X147915577Y-47366377D01*
X147919931Y-47364684D01*
X148154824Y-47273340D01*
X148154827Y-47273339D01*
X148159177Y-47271647D01*
X148386098Y-47141951D01*
X148591357Y-46980138D01*
X148770443Y-46789763D01*
X148919424Y-46575009D01*
X148921492Y-46570816D01*
X149032960Y-46344781D01*
X149032961Y-46344778D01*
X149035025Y-46340593D01*
X149114707Y-46091665D01*
X149156721Y-45833693D01*
X149160142Y-45572345D01*
X149124896Y-45313362D01*
X149110473Y-45263877D01*
X149053068Y-45066932D01*
X149051757Y-45062433D01*
X148942332Y-44825072D01*
X148880074Y-44730113D01*
X148801590Y-44610404D01*
X148801586Y-44610399D01*
X148799024Y-44606491D01*
X148624982Y-44411494D01*
X148424030Y-44244363D01*
X148219091Y-44120003D01*
X148204578Y-44111196D01*
X148204574Y-44111194D01*
X148200581Y-44108771D01*
X147959545Y-44007697D01*
X147706217Y-43943359D01*
X147701566Y-43942891D01*
X147701562Y-43942890D01*
X147492271Y-43921816D01*
X147489133Y-43921500D01*
X147333646Y-43921500D01*
X147331321Y-43921673D01*
X147331315Y-43921673D01*
X147144000Y-43935593D01*
X147143996Y-43935594D01*
X147139348Y-43935939D01*
X147134800Y-43936968D01*
X147134794Y-43936969D01*
X146948399Y-43979147D01*
X146884423Y-43993623D01*
X146880071Y-43995315D01*
X146880069Y-43995316D01*
X146645176Y-44086660D01*
X146645173Y-44086661D01*
X146640823Y-44088353D01*
X146413902Y-44218049D01*
X146208643Y-44379862D01*
X146029557Y-44570237D01*
X145880576Y-44784991D01*
X145878510Y-44789181D01*
X145878508Y-44789184D01*
X145772229Y-45004698D01*
X145764975Y-45019407D01*
X145685293Y-45268335D01*
X145643279Y-45526307D01*
X145639858Y-45787655D01*
X55529858Y-45787655D01*
X55514165Y-45557452D01*
X55514164Y-45557446D01*
X55513873Y-45553175D01*
X55509336Y-45531264D01*
X55456443Y-45275855D01*
X55455574Y-45271658D01*
X55359607Y-45000657D01*
X55227750Y-44745188D01*
X55214488Y-44726317D01*
X55064904Y-44513482D01*
X55062441Y-44509977D01*
X54944692Y-44383264D01*
X54869661Y-44302521D01*
X54869658Y-44302519D01*
X54866740Y-44299378D01*
X54644268Y-44117287D01*
X54399142Y-43967073D01*
X54381048Y-43959130D01*
X54139830Y-43853243D01*
X54135898Y-43851517D01*
X54109963Y-43844129D01*
X53863534Y-43773932D01*
X53863535Y-43773932D01*
X53859406Y-43772756D01*
X53646704Y-43742485D01*
X53579036Y-43732854D01*
X53579034Y-43732854D01*
X53574784Y-43732249D01*
X53570495Y-43732227D01*
X53570488Y-43732226D01*
X53291583Y-43730765D01*
X53291576Y-43730765D01*
X53287297Y-43730743D01*
X53283053Y-43731302D01*
X53283049Y-43731302D01*
X53157660Y-43747810D01*
X53002266Y-43768268D01*
X52998126Y-43769401D01*
X52998124Y-43769401D01*
X52921311Y-43790415D01*
X52724964Y-43844129D01*
X52721016Y-43845813D01*
X52464476Y-43955237D01*
X52464472Y-43955239D01*
X52460524Y-43956923D01*
X52399203Y-43993623D01*
X52217521Y-44102357D01*
X52217517Y-44102360D01*
X52213839Y-44104561D01*
X51989472Y-44284313D01*
X51791577Y-44492851D01*
X51623814Y-44726317D01*
X51489288Y-44980392D01*
X51390489Y-45250373D01*
X51329245Y-45531264D01*
X51306689Y-45817869D01*
X47538500Y-45817869D01*
X47538500Y-41274500D01*
X47558502Y-41206379D01*
X47612158Y-41159886D01*
X47664500Y-41148500D01*
X151805500Y-41148500D01*
X151873621Y-41168502D01*
G37*
G04 #@! TD.AperFunction*
M02*
